<svg width="763.76" height="161.85" xmlns="http://www.w3.org/2000/svg" version="1.1" xml:space="preserve">

 <g>
  <title>Layer 1</title>
  <metadata id="CorelCorpID_0Corel-Layer"/>
  <path id="svg_2" fill="#000000" d="m95.23,161.84c-9.87,0.01 -19.74,0 -29.6,0c-2.26,0 -3.21,-1.4 -3.7,-3.28c-0.29,-1.16 -0.22,-3.46 -0.22,-3.46c0,0 0.02,-4.26 0.02,-4.26c0,-1.68 1.27,-4.17 2.63,-4.94c0,0 0,-6.77 0,-6.77c0,0 -1.51,-2.88 -3.28,-5.2c-3.03,-3.95 -8.21,-15.08 -7,-19.45c1.45,-5.22 6.04,-10.86 8.18,-14.32c0,0 0,-8.62 0,-8.62c-0.04,-4.5 -0.03,-8.98 0,-13.49c0,0 0,-5.25 0,-5.25c0,0 0,-1.37 0,-1.7c0,-6.22 9.09,-10.01 13.02,-2.04c0.34,0.68 0.4,1.77 0.39,2.66c0,0 0,1.47 0,1.47c0,0 0,21.94 0,21.94c0,0 2.73,-1.99 5.36,-1.15c1.42,0.45 2.72,1.65 3.78,3.27c2.99,-1.85 6.97,-1.91 9.66,2.16c2.86,-1.31 5.56,-1.21 7.45,-0.29c2.84,1.39 3.77,3.67 3.82,6.61c0.02,1.52 0,3.24 0,4.98c-0.01,7.05 -0.06,14.12 0.05,21.16c0.04,3.1 -1.01,5.42 -4.31,7.39c0,0 0,6.78 0,6.78c1.36,0.77 3.17,3.25 3.17,4.93c0,0 0.01,4.26 0.01,4.26c0,0 0.08,2.31 -0.22,3.46c-0.41,1.57 -0.86,2.08 -2.4,2.8c-0.77,0.35 -2.14,0.35 -3.47,0.35c-1.27,0 -2.52,0 -3.34,0zm-28.2,-11.35l31.78,0c0.29,0 0.53,0.24 0.53,0.53l0,6.8c0,0.29 -0.24,0.53 -0.53,0.53l-31.78,0c-0.29,0 -0.53,-0.24 -0.53,-0.53l0,-6.8c0,-0.29 0.24,-0.53 0.53,-0.53zm34.36,-16.66c0.3,-0.48 0.76,-1.16 0.74,-2.27c-0.02,-0.84 -0.02,-5.35 -0.02,-5.35c0,0 0,-2.11 0,-3.31c-0.03,-6.12 0,-12.68 0,-18.81c0,-2.98 -6.75,-3.65 -6.9,-0.08c-0.04,0.89 0,2.51 -0.2,3.68c-0.41,2.49 -3.27,3.23 -3.44,0.29c-0.09,-1.65 -0.08,-3.91 -0.06,-5.57c0,-0.46 -0.04,-0.89 -0.23,-1.27c-0.96,-1.91 -3.75,-2.55 -5.1,-0.43c-0.73,1.15 0.03,5.17 -1.13,6.37c-1.28,1.33 -2.66,0.01 -2.88,-1.53c-0.26,-1.87 0.18,-4.75 -0.27,-6.87c-0.55,-2.66 -5.91,-2.76 -5.91,0.36c0,0.58 0,3.19 0,3.19c0,4.3 -3.9,4.06 -3.83,-0.09c0.02,-0.84 -0.01,-2.5 0,-3.58c0,0 0,-15.2 0,-15.2c0,0 0,-10.12 0,-12.6c-0.01,-3.17 -6.24,-2.78 -6.24,-0.1c0,1.71 0,6.91 0,6.91c0,0 0,27 0,27c0,0 0,8.71 0,11.05c0,1.96 -2.51,2.95 -2.97,0.13c-0.15,-0.9 -0.16,-2.02 -0.18,-2.65c-0.06,-2.17 -0.12,-7.14 -0.12,-7.14c-2.6,2.66 -6.61,8.03 -5.22,12.42c1.88,5.91 2.84,8.56 6.43,13.77c0.88,1.29 1.73,2.36 2.31,2.78c0.87,0.62 1.89,0.99 3.06,0.89c0.48,-0.04 0.92,-0.04 1.32,0.02c2.72,0.38 3.98,5.41 -1.6,5.05c0,0 0.04,5.94 0.04,5.94c9.11,0 19.05,0.04 28.16,0.05c0,0 0.04,-5.93 0.04,-5.93c-0.63,0.04 -0.12,0.01 -0.59,-0.07c-3.55,-0.62 -2.48,-4.43 -0.29,-4.38c0.77,0.02 0.52,0.09 1.25,0.07c1.77,-0.06 2.9,-1.24 3.83,-2.74z" class="fil0"/>
  <path id="svg_3" fill="none" stroke-miterlimit="22.9256" stroke-linejoin="bevel" stroke-linecap="round" stroke-width="4.13" stroke="#000000" d="m85.12707,88.08606c4.48017,-1.72 8.57293,-6.29 8.57293,-10.84l0,-63.43c0,-5.12 -6.12919,-11.15 -11.32461,-11.15l-67.94764,0c-3.62586,0 -6.95371,2.67 -9.02988,5.26c-2.21525,2.78 -2.73181,6.68 -2.73181,11.46l0,53.14c0,4.71 0.79471,8.55 2.98016,11.22c1.79803,2.2 5.82124,5.07 9.65572,5.07l37.85796,0" class="fil1 str0"/>
  <path id="svg_4" fill="#000000" d="m37.83,62.38c4.05,0 7.33,3.29 7.33,7.33c0,4.05 -3.28,7.34 -7.33,7.34c-4.05,0 -7.33,-3.29 -7.33,-7.34c0,-4.04 3.28,-7.33 7.33,-7.33zm0,4.78c1.41,0 2.55,1.15 2.55,2.55c0,1.41 -1.14,2.56 -2.55,2.56c-1.41,0 -2.55,-1.15 -2.55,-2.56c0,-1.4 1.14,-2.55 2.55,-2.55z" class="fil0"/>
  <path id="svg_5" fill="#000000" d="m68.12,42.68c-2.87,0.37 -28.39,3.36 -28.39,3.36c0,0 -4.8,-20.26 -4.8,-20.26c0,0 38.14,0 38.14,0c0,0 0.29,11.52 0.33,13.92c0.01,0.77 -0.21,1.27 -0.85,1.78c-0.87,0.68 -3.34,1.06 -4.43,1.2zm-39.21,-20.51c0.02,0.09 0.04,0.18 0.07,0.27c1.56,6.66 4.76,20.23 4.76,20.23c0,0 1.4,5.94 2.08,8.81c0.9,3.82 2.84,5.67 5.01,6.55c1.66,0.68 3.49,0.76 6.97,0.76c0,0 9.58,-0.02 9.58,-0.02c0,0 3.5,-0.01 4.34,-0.01c0.95,0.01 2.81,-0.19 3.47,-0.99c0.87,-1.04 0.29,-2.92 -1.1,-3.55c-0.81,-0.36 -1.95,-0.29 -2.74,-0.3c-1.24,-0.01 -2.79,0.01 -2.79,0.01c0,0 -4.45,0 -8.74,0.02c-1.73,0 -3.61,0 -5.03,0.01c-1.18,0 -2.36,0 -3.15,-1.11c-0.45,-0.62 -0.68,-1.49 -0.84,-2.28c9.05,-1.08 27.13,-3.25 27.16,-3.25c1.98,-0.26 4.66,-0.66 6.08,-1.28c1.35,-0.58 2.64,-1.77 3.27,-2.64c0.95,-1.33 0.96,-3.1 1.01,-5.44c0.06,-3.02 -0.18,-12.82 -0.41,-14.88c-0.13,-1.23 -1.68,-1.76 -3,-1.79c-0.74,-0.01 -6.67,0 -13.86,0.01c-11.9,0.02 -27.14,0.07 -27.14,0.07c0,0 -0.61,-3 -2.17,-5.14c-0.23,-0.31 -0.66,-0.74 -1.13,-1.13c-2.46,-2.09 -8.51,-2.24 -11.36,-1.38c-2.27,0.68 -2.45,3.39 -0.33,3.97c0.8,0.22 2.34,0.14 3.08,0.11c1.79,-0.08 3.46,-0.37 4.93,0.28c1.04,0.46 1.48,1.94 1.72,2.99c0.13,0.59 0.25,1.04 0.26,1.1z" class="fil0"/>
  <path id="svg_7" fill-rule="nonzero" fill="#000000" d="m178.89,25.35l0,22.12c0,5.46 -2.23,10.22 -6.69,14.1c-4.46,3.89 -9.72,5.87 -15.79,5.87c-6.15,0 -11.5,-1.98 -15.87,-5.87c-4.37,-3.88 -6.6,-8.64 -6.6,-14.1l0,-22.12l-3.21,0l0,22.12c0,6.26 2.49,11.65 7.49,16.09c5.08,4.44 11.15,6.65 18.19,6.65c6.96,0 12.94,-2.21 18.02,-6.65c5.09,-4.44 7.58,-9.83 7.58,-16.09l0,-22.12l-3.12,0z" class="fil2"/>
  <path fill-rule="nonzero" fill="#000000" d="m247.93,47.31c0,-6.26 -2.59,-11.58 -7.67,-16.01c-5.09,-4.52 -11.15,-6.74 -18.2,-6.74c-7.04,0 -13.11,2.22 -18.19,6.74c-5.09,4.43 -7.59,9.75 -7.59,16.01l0,22.11l3.3,0l0,-22.11c0,-5.47 2.23,-10.15 6.69,-14.03c4.46,-3.97 9.73,-5.95 15.79,-5.95c6.16,0 11.42,1.98 15.88,5.95c4.46,3.88 6.69,8.56 6.69,14.03l0,22.11l3.3,0l0,-22.11z" class="fil2" id="1"/>
  <path fill-rule="nonzero" fill="#000000" d="m294.84,65.93c-2.85,1.03 -5.79,1.59 -8.74,1.59c-6.42,0 -11.77,-1.98 -16.14,-6.02c-4.28,-4.05 -6.42,-8.72 -6.42,-14.03c0,-5.71 2.23,-10.47 6.78,-14.27c4.54,-3.89 9.81,-5.79 15.78,-5.79c5.98,0 11.15,1.9 15.7,5.71c4.55,3.8 6.87,8.4 6.87,13.79l0,22.51l3.12,0l0,-21.95c0,-6.58 -2.59,-11.97 -7.76,-16.33c-5.08,-4.36 -11.06,-6.5 -17.93,-6.5c-7.22,0 -13.29,2.3 -18.28,6.81c-4.91,4.52 -7.4,9.83 -7.4,16.02c0,6.5 2.58,11.96 7.76,16.32c5.17,4.36 11.14,6.5 17.92,6.5c3.48,0 6.78,-0.63 9.99,-1.82l-1.25,-2.54z" class="fil2" id="2"/>
  <path fill-rule="nonzero" fill="#000000" d="m397.69,60.78c-4.38,4.44 -9.99,6.66 -16.68,6.66c-6.16,0 -11.51,-1.98 -15.88,-5.87c-4.37,-3.88 -6.51,-8.56 -6.51,-14.03c0,-5.39 2.23,-10.06 6.6,-13.95c4.37,-3.96 9.63,-5.94 15.79,-5.94c5.97,0 11.59,2.22 16.76,6.74l2.32,-1.83c-4.37,-4.83 -11.86,-7.69 -19.08,-7.69c-7.05,0 -13.03,2.22 -18.02,6.66c-5,4.44 -7.49,9.75 -7.49,16.01c0,6.19 2.49,11.5 7.49,16.02c5.08,4.44 11.06,6.65 18.02,6.65c7.04,0 13.38,-2.53 18.99,-7.53l-2.31,-1.9z" class="fil2" id="3"/>
  <path fill-rule="nonzero" fill="#000000" d="m461.99,47.39c0,-6.19 -2.49,-11.5 -7.58,-16.02c-4.99,-4.51 -10.97,-6.73 -18.01,-6.73c-7.05,0 -13.12,2.22 -18.11,6.73c-5,4.44 -7.49,9.75 -7.49,16.02c0,6.26 2.49,11.57 7.49,16.09c5.08,4.44 11.06,6.66 18.11,6.66c7.04,0 13.02,-2.22 18.01,-6.66c5.09,-4.52 7.58,-9.83 7.58,-16.09zm-3.12,0c0,5.47 -2.23,10.22 -6.6,14.11c-4.37,3.88 -9.72,5.86 -15.87,5.86c-6.16,0 -11.51,-1.98 -15.88,-5.86c-4.37,-3.89 -6.6,-8.64 -6.6,-14.11c0,-5.39 2.23,-10.07 6.6,-14.03c4.46,-3.97 9.72,-5.95 15.88,-5.95c6.15,0 11.41,1.98 15.78,5.95c4.46,3.96 6.69,8.64 6.69,14.03z" class="fil2" id="4"/>
  <path fill-rule="nonzero" fill="#000000" d="m540.4,39.7c0,-4.12 -1.79,-7.69 -5.27,-10.62c-3.47,-2.94 -7.49,-4.44 -12.04,-4.44c-6.51,0 -12.57,3.25 -15.52,8.24c-2.94,-5.07 -9.09,-8.24 -15.52,-8.24c-4.72,0 -8.92,1.5 -12.39,4.44c-3.48,2.93 -5.18,6.5 -5.18,10.62l0,29.72l3.3,0l0,-29.09c0,-3.49 1.43,-6.5 4.19,-9.03c2.77,-2.62 6.16,-3.89 10.08,-3.89c6.34,0 11.78,3.65 13.83,9.28l0,32.73l3.3,0l0,-32.73c1.87,-5.47 7.58,-9.28 13.91,-9.28c4.02,0 7.32,1.27 9.99,3.81c2.68,2.53 4.02,5.54 4.02,9.11l0,29.09l3.3,0l0,-29.72z" class="fil2" id="5"/>
  <path fill-rule="nonzero" fill="#000000" d="m606.13,47.47c0,-6.11 -2.49,-11.42 -7.4,-15.94c-4.91,-4.59 -11.06,-6.89 -18.28,-6.89c-6.78,0 -12.76,2.22 -18.02,6.58c-5.17,4.36 -7.76,9.75 -7.76,16.25l0,39.71l3.21,0l0,-40.27c0,-5.31 2.23,-9.83 6.69,-13.71c4.55,-3.89 9.81,-5.79 15.88,-5.79c5.97,0 11.23,1.9 15.69,5.79c4.55,3.88 6.78,8.64 6.78,14.27c0,5.31 -2.14,9.98 -6.42,14.03c-4.19,4.04 -9.54,6.02 -16.05,6.02c-3.04,0 -5.98,-0.56 -8.83,-1.59l-1.25,2.54c3.3,1.19 6.6,1.82 10.08,1.82c6.69,0 12.66,-2.14 17.83,-6.5c5.27,-4.36 7.85,-9.82 7.85,-16.32z" class="fil2" id="6"/>
  <path fill-rule="nonzero" fill="#000000" d="m644.22,24.56c-6.69,0 -12.67,2.14 -17.84,6.5c-5.17,4.28 -7.76,9.75 -7.76,16.33l0,22.03l3.12,0l0,-22.03c0,-5.47 2.23,-10.23 6.6,-14.11c4.37,-3.97 9.73,-5.95 15.88,-5.95l0,-2.77z" class="fil2" id="7"/>
  <path fill-rule="nonzero" fill="#000000" d="m684.89,65.93c-2.85,1.03 -5.8,1.59 -8.74,1.59c-6.42,0 -11.77,-1.98 -16.14,-6.02c-4.28,-4.05 -6.43,-8.72 -6.43,-14.03c0,-5.71 2.23,-10.47 6.78,-14.27c4.55,-3.89 9.82,-5.79 15.79,-5.79c5.98,0 11.15,1.9 15.7,5.71c4.55,3.8 6.87,8.4 6.87,13.79l0,22.51l3.12,0l0,-21.95c0,-6.58 -2.59,-11.97 -7.76,-16.33c-5.08,-4.36 -11.06,-6.5 -17.93,-6.5c-7.22,0 -13.29,2.3 -18.28,6.81c-4.91,4.52 -7.41,9.83 -7.41,16.02c0,6.5 2.59,11.96 7.76,16.32c5.18,4.36 11.15,6.5 17.93,6.5c3.48,0 6.78,-0.63 9.99,-1.82l-1.25,-2.54z" class="fil2" id="8"/>
  <path fill-rule="nonzero" fill="#000000" d="m718.52,38.27c1.69,-3.17 4.46,-5.79 8.11,-7.77c3.66,-2.06 7.59,-3.09 11.69,-3.09c7.05,0 14.18,3.01 18.73,9.04l2.68,-1.59c-4.64,-6.34 -12.76,-10.22 -21.41,-10.22c-5.62,0 -10.53,1.42 -14.81,4.2c-4.19,2.77 -7.31,6.34 -9.18,10.7l44.06,17.12c-3.66,6.1 -10.79,10.78 -20.07,10.78c-4.55,0 -8.74,-1.11 -12.58,-3.33c-3.83,-2.22 -6.6,-5.15 -8.29,-8.88l-2.95,0.95c2.41,5.39 7.05,9.52 11.78,11.42c4.9,1.82 8.83,2.61 12.04,2.61c5.44,0 10.26,-1.34 14.63,-4.12c4.37,-2.77 7.49,-6.34 9.54,-10.86l-43.97,-16.96z" class="fil2" id="9"/>
  <path fill-rule="nonzero" fill="#000000" stroke-miterlimit="22.9256" stroke-width="1.88" d="m178.89,25.35l0,22.12c0,5.46 -2.23,10.22 -6.69,14.1c-4.46,3.89 -9.72,5.87 -15.79,5.87c-6.15,0 -11.5,-1.98 -15.87,-5.87c-4.37,-3.88 -6.6,-8.64 -6.6,-14.1l0,-22.12l-3.21,0l0,22.12c0,6.26 2.49,11.65 7.49,16.09c5.08,4.44 11.15,6.65 18.19,6.65c6.96,0 12.94,-2.21 18.02,-6.65c5.09,-4.44 7.58,-9.83 7.58,-16.09l0,-22.12l-3.12,0z" class="fil3 str1" id="10"/>
  <path fill-rule="nonzero" fill="#000000" stroke-miterlimit="22.9256" stroke-width="1.88" d="m247.93,47.31c0,-6.26 -2.59,-11.58 -7.67,-16.01c-5.09,-4.52 -11.15,-6.74 -18.2,-6.74c-7.04,0 -13.11,2.22 -18.19,6.74c-5.09,4.43 -7.59,9.75 -7.59,16.01l0,22.11l3.3,0l0,-22.11c0,-5.47 2.23,-10.15 6.69,-14.03c4.46,-3.97 9.73,-5.95 15.79,-5.95c6.16,0 11.42,1.98 15.88,5.95c4.46,3.88 6.69,8.56 6.69,14.03l0,22.11l3.3,0l0,-22.11z" class="fil3 str1" id="11"/>
  <path fill-rule="nonzero" fill="#000000" stroke-miterlimit="22.9256" stroke-width="1.88" d="m294.84,65.93c-2.85,1.03 -5.79,1.59 -8.74,1.59c-6.42,0 -11.77,-1.98 -16.14,-6.02c-4.28,-4.05 -6.42,-8.72 -6.42,-14.03c0,-5.71 2.23,-10.47 6.78,-14.27c4.54,-3.89 9.81,-5.79 15.78,-5.79c5.98,0 11.15,1.9 15.7,5.71c4.55,3.8 6.87,8.4 6.87,13.79l0,22.51l3.12,0l0,-21.95c0,-6.58 -2.59,-11.97 -7.76,-16.33c-5.08,-4.36 -11.06,-6.5 -17.93,-6.5c-7.22,0 -13.29,2.3 -18.28,6.81c-4.91,4.52 -7.4,9.83 -7.4,16.02c0,6.5 2.58,11.96 7.76,16.32c5.17,4.36 11.14,6.5 17.92,6.5c3.48,0 6.78,-0.63 9.99,-1.82l-1.25,-2.54z" class="fil3 str1" id="12"/>
  <path fill-rule="nonzero" fill="#000000" stroke-miterlimit="22.9256" stroke-width="1.88" d="m397.69,60.78c-4.38,4.44 -9.99,6.66 -16.68,6.66c-6.16,0 -11.51,-1.98 -15.88,-5.87c-4.37,-3.88 -6.51,-8.56 -6.51,-14.03c0,-5.39 2.23,-10.06 6.6,-13.95c4.37,-3.96 9.63,-5.94 15.79,-5.94c5.97,0 11.59,2.22 16.76,6.74l2.32,-1.83c-4.37,-4.83 -11.86,-7.69 -19.08,-7.69c-7.05,0 -13.03,2.22 -18.02,6.66c-5,4.44 -7.49,9.75 -7.49,16.01c0,6.19 2.49,11.5 7.49,16.02c5.08,4.44 11.06,6.65 18.02,6.65c7.04,0 13.38,-2.53 18.99,-7.53l-2.31,-1.9z" class="fil3 str1" id="13"/>
  <path fill-rule="nonzero" fill="#000000" stroke-miterlimit="22.9256" stroke-width="1.88" d="m461.99,47.39c0,-6.19 -2.49,-11.5 -7.58,-16.02c-4.99,-4.51 -10.97,-6.73 -18.01,-6.73c-7.05,0 -13.12,2.22 -18.11,6.73c-5,4.44 -7.49,9.75 -7.49,16.02c0,6.26 2.49,11.57 7.49,16.09c5.08,4.44 11.06,6.66 18.11,6.66c7.04,0 13.02,-2.22 18.01,-6.66c5.09,-4.52 7.58,-9.83 7.58,-16.09zm-3.12,0c0,5.47 -2.23,10.22 -6.6,14.11c-4.37,3.88 -9.72,5.86 -15.87,5.86c-6.16,0 -11.51,-1.98 -15.88,-5.86c-4.37,-3.89 -6.6,-8.64 -6.6,-14.11c0,-5.39 2.23,-10.07 6.6,-14.03c4.46,-3.97 9.72,-5.95 15.88,-5.95c6.15,0 11.41,1.98 15.78,5.95c4.46,3.96 6.69,8.64 6.69,14.03z" class="fil3 str1" id="14"/>
  <path fill-rule="nonzero" fill="#000000" stroke-miterlimit="22.9256" stroke-width="1.88" d="m540.4,39.7c0,-4.12 -1.79,-7.69 -5.27,-10.62c-3.47,-2.94 -7.49,-4.44 -12.04,-4.44c-6.51,0 -12.57,3.25 -15.52,8.24c-2.94,-5.07 -9.09,-8.24 -15.52,-8.24c-4.72,0 -8.92,1.5 -12.39,4.44c-3.48,2.93 -5.18,6.5 -5.18,10.62l0,29.72l3.3,0l0,-29.09c0,-3.49 1.43,-6.5 4.19,-9.03c2.77,-2.62 6.16,-3.89 10.08,-3.89c6.34,0 11.78,3.65 13.83,9.28l0,32.73l3.3,0l0,-32.73c1.87,-5.47 7.58,-9.28 13.91,-9.28c4.02,0 7.32,1.27 9.99,3.81c2.68,2.53 4.02,5.54 4.02,9.11l0,29.09l3.3,0l0,-29.72z" class="fil3 str1" id="15"/>
  <path fill-rule="nonzero" fill="#000000" stroke-miterlimit="22.9256" stroke-width="1.88" d="m606.13,47.47c0,-6.11 -2.49,-11.42 -7.4,-15.94c-4.91,-4.59 -11.06,-6.89 -18.28,-6.89c-6.78,0 -12.76,2.22 -18.02,6.58c-5.17,4.36 -7.76,9.75 -7.76,16.25l0,39.71l3.21,0l0,-40.27c0,-5.31 2.23,-9.83 6.69,-13.71c4.55,-3.89 9.81,-5.79 15.88,-5.79c5.97,0 11.23,1.9 15.69,5.79c4.55,3.88 6.78,8.64 6.78,14.27c0,5.31 -2.14,9.98 -6.42,14.03c-4.19,4.04 -9.54,6.02 -16.05,6.02c-3.04,0 -5.98,-0.56 -8.83,-1.59l-1.25,2.54c3.3,1.19 6.6,1.82 10.08,1.82c6.69,0 12.66,-2.14 17.83,-6.5c5.27,-4.36 7.85,-9.82 7.85,-16.32z" class="fil3 str1" id="16"/>
  <path fill-rule="nonzero" fill="#000000" stroke-miterlimit="22.9256" stroke-width="1.88" d="m644.22,24.56c-6.69,0 -12.67,2.14 -17.84,6.5c-5.17,4.28 -7.76,9.75 -7.76,16.33l0,22.03l3.12,0l0,-22.03c0,-5.47 2.23,-10.23 6.6,-14.11c4.37,-3.97 9.73,-5.95 15.88,-5.95l0,-2.77z" class="fil3 str1" id="17"/>
  <path fill-rule="nonzero" fill="#000000" stroke-miterlimit="22.9256" stroke-width="1.88" d="m684.89,65.93c-2.85,1.03 -5.8,1.59 -8.74,1.59c-6.42,0 -11.77,-1.98 -16.14,-6.02c-4.28,-4.05 -6.43,-8.72 -6.43,-14.03c0,-5.71 2.23,-10.47 6.78,-14.27c4.55,-3.89 9.82,-5.79 15.79,-5.79c5.98,0 11.15,1.9 15.7,5.71c4.55,3.8 6.87,8.4 6.87,13.79l0,22.51l3.12,0l0,-21.95c0,-6.58 -2.59,-11.97 -7.76,-16.33c-5.08,-4.36 -11.06,-6.5 -17.93,-6.5c-7.22,0 -13.29,2.3 -18.28,6.81c-4.91,4.52 -7.41,9.83 -7.41,16.02c0,6.5 2.59,11.96 7.76,16.32c5.18,4.36 11.15,6.5 17.93,6.5c3.48,0 6.78,-0.63 9.99,-1.82l-1.25,-2.54z" class="fil3 str1" id="18"/>
  <path fill-rule="nonzero" fill="#000000" stroke-miterlimit="22.9256" stroke-width="1.88" d="m718.52,38.27c1.69,-3.17 4.46,-5.79 8.11,-7.77c3.66,-2.06 7.59,-3.09 11.69,-3.09c7.05,0 14.18,3.01 18.73,9.04l2.68,-1.59c-4.64,-6.34 -12.76,-10.22 -21.41,-10.22c-5.62,0 -10.53,1.42 -14.81,4.2c-4.19,2.77 -7.31,6.34 -9.18,10.7l44.06,17.12c-3.66,6.1 -10.79,10.78 -20.07,10.78c-4.55,0 -8.74,-1.11 -12.58,-3.33c-3.83,-2.22 -6.6,-5.15 -8.29,-8.88l-2.95,0.95c2.41,5.39 7.05,9.52 11.78,11.42c4.9,1.82 8.83,2.61 12.04,2.61c5.44,0 10.26,-1.34 14.63,-4.12c4.37,-2.77 7.49,-6.34 9.54,-10.86l-43.97,-16.96z" class="fil3 str1" id="19"/>
  <path id="svg_8" fill-rule="nonzero" fill="#000000" d="m170.33,105.6c0.52,0 0.96,0.15 1.32,0.47c0.36,0.31 0.55,0.68 0.55,1.1l0,12.79c0,1.26 -0.3,2.44 -0.9,3.56c-0.6,1.12 -1.42,2.1 -2.45,2.94c-1.03,0.84 -2.23,1.5 -3.6,1.99c-1.37,0.49 -2.83,0.73 -4.37,0.73c-1.93,0 -3.72,-0.36 -5.37,-1.1c-1.65,-0.73 -2.99,-1.74 -4.02,-3.04c-1.07,1.3 -2.43,2.31 -4.08,3.04c-1.66,0.74 -3.45,1.1 -5.37,1.1c-1.55,0 -3.01,-0.24 -4.38,-0.73c-1.37,-0.49 -2.57,-1.15 -3.6,-1.99c-1.03,-0.84 -1.84,-1.82 -2.44,-2.94c-0.6,-1.12 -0.9,-2.3 -0.9,-3.56l0,-12.79c0,-0.42 0.19,-0.79 0.58,-1.1c0.38,-0.32 0.83,-0.47 1.35,-0.47c0.51,0 0.95,0.15 1.31,0.47c0.37,0.31 0.55,0.68 0.55,1.1l0,12.79c0,0.84 0.2,1.63 0.61,2.38c0.41,0.75 0.95,1.41 1.61,1.97c0.66,0.56 1.46,1 2.38,1.31c0.92,0.31 1.9,0.47 2.93,0.47c1.02,0 2,-0.16 2.92,-0.47c0.92,-0.31 1.73,-0.75 2.41,-1.31c0.69,-0.56 1.23,-1.22 1.61,-1.97c0.39,-0.75 0.58,-1.54 0.58,-2.38l0,-12.79c0,-0.42 0.19,-0.79 0.58,-1.1c0.38,-0.32 0.83,-0.47 1.35,-0.47c0.51,0 0.95,0.15 1.32,0.47c0.36,0.31 0.54,0.68 0.54,1.1l0,12.79c0,0.84 0.21,1.63 0.62,2.38c0.4,0.75 0.94,1.41 1.6,1.97c0.67,0.56 1.46,1 2.38,1.31c0.92,0.31 1.9,0.47 2.93,0.47c1.03,0 2,-0.16 2.92,-0.47c0.93,-0.31 1.73,-0.75 2.42,-1.31c0.68,-0.56 1.22,-1.22 1.6,-1.97c0.39,-0.75 0.58,-1.54 0.58,-2.38l0,-12.79c0,-0.42 0.2,-0.79 0.58,-1.1c0.39,-0.32 0.84,-0.47 1.35,-0.47z" class="fil4"/>
  <path fill-rule="nonzero" fill="#000000" d="m215.86,105.6c0.52,0 0.96,0.15 1.32,0.47c0.37,0.31 0.55,0.68 0.55,1.1l0,12.79c0,1.26 -0.3,2.44 -0.9,3.56c-0.6,1.12 -1.42,2.1 -2.45,2.94c-1.02,0.84 -2.23,1.5 -3.6,1.99c-1.37,0.49 -2.83,0.73 -4.37,0.73c-1.93,0 -3.72,-0.36 -5.37,-1.1c-1.65,-0.73 -2.99,-1.74 -4.02,-3.04c-1.07,1.3 -2.43,2.31 -4.08,3.04c-1.65,0.74 -3.44,1.1 -5.37,1.1c-1.55,0 -3,-0.24 -4.38,-0.73c-1.37,-0.49 -2.57,-1.15 -3.6,-1.99c-1.03,-0.84 -1.84,-1.82 -2.44,-2.94c-0.6,-1.12 -0.9,-2.3 -0.9,-3.56l0,-12.79c0,-0.42 0.19,-0.79 0.58,-1.1c0.38,-0.32 0.83,-0.47 1.35,-0.47c0.51,0 0.95,0.15 1.32,0.47c0.36,0.31 0.54,0.68 0.54,1.1l0,12.79c0,0.84 0.21,1.63 0.61,2.38c0.41,0.75 0.95,1.41 1.61,1.97c0.67,0.56 1.46,1 2.38,1.31c0.92,0.31 1.9,0.47 2.93,0.47c1.03,0 2,-0.16 2.92,-0.47c0.93,-0.31 1.73,-0.75 2.41,-1.31c0.69,-0.56 1.23,-1.22 1.61,-1.97c0.39,-0.75 0.58,-1.54 0.58,-2.38l0,-12.79c0,-0.42 0.19,-0.79 0.58,-1.1c0.39,-0.32 0.84,-0.47 1.35,-0.47c0.52,0 0.95,0.15 1.32,0.47c0.36,0.31 0.55,0.68 0.55,1.1l0,12.79c0,0.84 0.2,1.63 0.61,2.38c0.4,0.75 0.94,1.41 1.6,1.97c0.67,0.56 1.46,1 2.38,1.31c0.93,0.31 1.9,0.47 2.93,0.47c1.03,0 2,-0.16 2.93,-0.47c0.92,-0.31 1.72,-0.75 2.41,-1.31c0.68,-0.56 1.22,-1.22 1.61,-1.97c0.38,-0.75 0.57,-1.54 0.57,-2.38l0,-12.79c0,-0.42 0.2,-0.79 0.58,-1.1c0.39,-0.32 0.84,-0.47 1.35,-0.47z" class="fil4" id="1"/>
  <path fill-rule="nonzero" fill="#000000" d="m261.4,105.6c0.51,0 0.95,0.15 1.31,0.47c0.37,0.31 0.55,0.68 0.55,1.1l0,12.79c0,1.26 -0.3,2.44 -0.9,3.56c-0.6,1.12 -1.41,2.1 -2.44,2.94c-1.03,0.84 -2.23,1.5 -3.6,1.99c-1.38,0.49 -2.83,0.73 -4.38,0.73c-1.93,0 -3.72,-0.36 -5.37,-1.1c-1.65,-0.73 -2.99,-1.74 -4.02,-3.04c-1.07,1.3 -2.43,2.31 -4.08,3.04c-1.65,0.74 -3.44,1.1 -5.37,1.1c-1.54,0 -3,-0.24 -4.37,-0.73c-1.38,-0.49 -2.58,-1.15 -3.61,-1.99c-1.02,-0.84 -1.84,-1.82 -2.44,-2.94c-0.6,-1.12 -0.9,-2.3 -0.9,-3.56l0,-12.79c0,-0.42 0.19,-0.79 0.58,-1.1c0.38,-0.32 0.84,-0.47 1.35,-0.47c0.51,0 0.95,0.15 1.32,0.47c0.36,0.31 0.55,0.68 0.55,1.1l0,12.79c0,0.84 0.2,1.63 0.61,2.38c0.4,0.75 0.94,1.41 1.6,1.97c0.67,0.56 1.46,1 2.38,1.31c0.92,0.31 1.9,0.47 2.93,0.47c1.03,0 2,-0.16 2.93,-0.47c0.92,-0.31 1.72,-0.75 2.41,-1.31c0.68,-0.56 1.22,-1.22 1.6,-1.97c0.39,-0.75 0.58,-1.54 0.58,-2.38l0,-12.79c0,-0.42 0.2,-0.79 0.58,-1.1c0.39,-0.32 0.84,-0.47 1.35,-0.47c0.52,0 0.96,0.15 1.32,0.47c0.37,0.31 0.55,0.68 0.55,1.1l0,12.79c0,0.84 0.2,1.63 0.61,2.38c0.41,0.75 0.94,1.41 1.61,1.97c0.66,0.56 1.45,1 2.38,1.31c0.92,0.31 1.89,0.47 2.92,0.47c1.03,0 2.01,-0.16 2.93,-0.47c0.92,-0.31 1.72,-0.75 2.41,-1.31c0.69,-0.56 1.22,-1.22 1.61,-1.97c0.38,-0.75 0.58,-1.54 0.58,-2.38l0,-12.79c0,-0.42 0.19,-0.79 0.57,-1.1c0.39,-0.32 0.84,-0.47 1.36,-0.47z" class="fil4" id="2"/>
  <path fill-rule="nonzero" fill="#000000" d="m268.79,125.51c0.52,0 0.97,0.15 1.35,0.45c0.39,0.3 0.58,0.66 0.58,1.07l0,0.58c0,0.46 -0.19,0.83 -0.58,1.13c-0.38,0.3 -0.83,0.44 -1.35,0.44c-0.51,0 -0.95,-0.14 -1.32,-0.44c-0.36,-0.3 -0.54,-0.67 -0.54,-1.13l0,-0.58c0,-0.41 0.18,-0.77 0.54,-1.07c0.37,-0.3 0.81,-0.45 1.32,-0.45z" class="fil4" id="3"/>
  <path fill-rule="nonzero" fill="#000000" d="m301.98,105.6c0.51,0 0.95,0.14 1.31,0.44c0.37,0.3 0.55,0.66 0.55,1.08l0,10.27c0,1.64 -0.37,3.17 -1.12,4.59c-0.76,1.41 -1.8,2.66 -3.12,3.74c-1.33,1.09 -2.88,1.93 -4.63,2.55c-1.76,0.61 -3.63,0.91 -5.6,0.91c-2.01,0 -3.89,-0.3 -5.63,-0.91c-1.73,-0.62 -3.25,-1.46 -4.56,-2.55c-1.31,-1.08 -2.34,-2.33 -3.09,-3.74c-0.75,-1.42 -1.12,-2.95 -1.12,-4.59l0,-10.27c0,-0.42 0.18,-0.78 0.54,-1.08c0.37,-0.3 0.81,-0.44 1.32,-0.44c0.51,0 0.95,0.14 1.32,0.44c0.36,0.3 0.55,0.66 0.55,1.08l0,10.27c0,1.19 0.27,2.32 0.83,3.38c0.56,1.07 1.32,1.99 2.28,2.78c0.97,0.79 2.1,1.41 3.41,1.86c1.31,0.45 2.69,0.68 4.15,0.68c1.46,0 2.84,-0.23 4.15,-0.68c1.31,-0.45 2.44,-1.07 3.41,-1.86c0.96,-0.79 1.72,-1.71 2.28,-2.78c0.56,-1.06 0.84,-2.19 0.84,-3.38l0,-10.27c0,-0.42 0.19,-0.78 0.58,-1.08c0.38,-0.3 0.83,-0.44 1.35,-0.44z" class="fil4" id="4"/>
  <path fill-rule="nonzero" fill="#000000" d="m310.08,129.18c-0.56,0 -1.02,-0.15 -1.38,-0.47c-0.37,-0.31 -0.55,-0.68 -0.55,-1.1l0,-10.22c0,-1.61 0.37,-3.13 1.12,-4.56c0.75,-1.43 1.79,-2.69 3.12,-3.77c1.33,-1.09 2.87,-1.94 4.6,-2.55c1.74,-0.61 3.61,-0.91 5.63,-0.91c1.97,0 3.84,0.3 5.59,0.91c1.76,0.61 3.31,1.46 4.63,2.55c1.33,1.08 2.37,2.34 3.12,3.77c0.75,1.43 1.13,2.95 1.13,4.56l0,10.22c0,0.42 -0.18,0.79 -0.55,1.1c-0.36,0.32 -0.82,0.47 -1.38,0.47c-0.52,0 -0.95,-0.15 -1.32,-0.47c-0.36,-0.31 -0.55,-0.68 -0.55,-1.1l0,-10.22c0,-1.19 -0.27,-2.32 -0.83,-3.38c-0.56,-1.07 -1.32,-1.99 -2.28,-2.78c-0.97,-0.79 -2.11,-1.41 -3.41,-1.86c-1.31,-0.45 -2.69,-0.68 -4.15,-0.68c-1.5,0 -2.89,0.23 -4.18,0.68c-1.29,0.45 -2.41,1.07 -3.38,1.86c-0.96,0.79 -1.72,1.71 -2.28,2.78c-0.56,1.06 -0.84,2.19 -0.84,3.38l0,10.22c0,0.42 -0.18,0.79 -0.54,1.1c-0.37,0.32 -0.81,0.47 -1.32,0.47z" class="fil4" id="5"/>
  <path fill-rule="nonzero" fill="#000000" d="m361.85,127.77c-1.03,0.45 -2.11,0.8 -3.25,1.05c-1.14,0.24 -2.3,0.36 -3.5,0.36c-2.02,0 -3.89,-0.3 -5.63,-0.91c-1.74,-0.62 -3.27,-1.46 -4.6,-2.55c-1.33,-1.08 -2.37,-2.33 -3.12,-3.74c-0.75,-1.42 -1.12,-2.95 -1.12,-4.59c0,-1.61 0.37,-3.13 1.12,-4.56c0.75,-1.43 1.79,-2.69 3.12,-3.77c1.33,-1.09 2.86,-1.94 4.6,-2.55c1.74,-0.61 3.61,-0.91 5.63,-0.91c1.97,0 3.83,0.3 5.59,0.91c1.76,0.61 3.3,1.46 4.63,2.55c1.33,1.08 2.37,2.34 3.12,3.77c0.75,1.43 1.13,2.95 1.13,4.56l0,10.22c0,0.42 -0.19,0.79 -0.55,1.1c-0.37,0.32 -0.83,0.47 -1.38,0.47c-0.52,0 -0.96,-0.15 -1.32,-0.47c-0.37,-0.31 -0.55,-0.68 -0.55,-1.1l0,-2.3c-1.07,0.97 -2.38,1.79 -3.92,2.46zm-17.43,-10.38c0,1.19 0.28,2.32 0.84,3.38c0.55,1.07 1.32,1.99 2.28,2.78c0.96,0.79 2.1,1.41 3.41,1.86c1.31,0.45 2.69,0.68 4.15,0.68c1.45,0 2.84,-0.23 4.14,-0.68c1.31,-0.45 2.45,-1.07 3.41,-1.86c0.97,-0.79 1.73,-1.71 2.29,-2.78c0.55,-1.06 0.83,-2.19 0.83,-3.38c0,-1.19 -0.28,-2.32 -0.83,-3.38c-0.56,-1.07 -1.32,-1.99 -2.29,-2.78c-0.96,-0.79 -2.1,-1.41 -3.41,-1.86c-1.3,-0.45 -2.69,-0.68 -4.14,-0.68c-1.46,0 -2.84,0.23 -4.15,0.68c-1.31,0.45 -2.45,1.07 -3.41,1.86c-0.96,0.79 -1.73,1.71 -2.28,2.78c-0.56,1.06 -0.84,2.19 -0.84,3.38z" class="fil4" id="6"/>
  <path fill-rule="nonzero" fill="#000000" d="m382.75,109.47c-1.93,0.7 -3.46,1.76 -4.6,3.18c-1.14,1.41 -1.7,2.99 -1.7,4.74c0,1.75 0.56,3.33 1.7,4.74c1.14,1.42 2.67,2.48 4.6,3.18c1.41,0.52 2.89,0.78 4.44,0.78c2.65,0 4.99,-0.73 7.01,-2.2c0.43,-0.24 0.85,-0.37 1.28,-0.37c0.52,0 0.99,0.18 1.42,0.53c0.34,0.31 0.49,0.69 0.45,1.12c-0.05,0.44 -0.26,0.8 -0.65,1.08c-1.37,0.94 -2.87,1.68 -4.5,2.2c-1.67,0.49 -3.34,0.73 -5.01,0.73c-2.02,0 -4.01,-0.35 -5.98,-1.04c-2.66,-0.98 -4.74,-2.43 -6.24,-4.35c-1.5,-1.93 -2.25,-4.06 -2.25,-6.4c0,-2.38 0.75,-4.52 2.25,-6.42c1.5,-1.91 3.58,-3.35 6.24,-4.33c1.97,-0.69 3.96,-1.04 5.98,-1.04c1.67,0 3.34,0.24 5.01,0.73c1.63,0.52 3.13,1.26 4.5,2.2c0.35,0.25 0.56,0.61 0.65,1.1c0,0.46 -0.15,0.82 -0.45,1.1c-0.43,0.35 -0.9,0.53 -1.42,0.53c-0.51,0 -0.94,-0.14 -1.28,-0.42c-0.99,-0.7 -2.08,-1.23 -3.28,-1.6c-1.2,-0.37 -2.45,-0.55 -3.73,-0.55c-1.55,0 -3.03,0.26 -4.44,0.78z" class="fil4" id="7"/>
  <path fill-rule="nonzero" fill="#000000" d="m415.35,129.18c-2.01,0 -3.89,-0.3 -5.62,-0.91c-1.74,-0.62 -3.27,-1.45 -4.6,-2.52c-1.33,-1.07 -2.37,-2.31 -3.12,-3.72c-0.75,-1.42 -1.13,-2.95 -1.13,-4.59c0,-1.61 0.38,-3.13 1.13,-4.56c0.75,-1.43 1.79,-2.69 3.12,-3.77c1.33,-1.09 2.86,-1.93 4.6,-2.54c1.73,-0.62 3.61,-0.92 5.62,-0.92c1.98,0 3.84,0.3 5.6,0.92c1.76,0.61 3.3,1.45 4.63,2.54c1.33,1.08 2.37,2.34 3.12,3.77c0.75,1.43 1.12,2.95 1.12,4.56c0,1.64 -0.37,3.17 -1.12,4.59c-0.75,1.41 -1.79,2.65 -3.12,3.72c-1.33,1.07 -2.87,1.9 -4.63,2.52c-1.76,0.61 -3.62,0.91 -5.6,0.91zm0,-20.44c-1.45,0 -2.84,0.23 -4.14,0.68c-1.31,0.46 -2.45,1.08 -3.41,1.86c-0.97,0.79 -1.73,1.72 -2.29,2.78c-0.55,1.07 -0.83,2.19 -0.83,3.38c0,1.19 0.28,2.32 0.83,3.38c0.56,1.07 1.32,2 2.29,2.78c0.96,0.79 2.1,1.41 3.41,1.86c1.3,0.46 2.69,0.68 4.14,0.68c1.46,0 2.84,-0.22 4.15,-0.68c1.31,-0.45 2.45,-1.07 3.41,-1.86c0.97,-0.78 1.73,-1.71 2.28,-2.78c0.56,-1.06 0.84,-2.19 0.84,-3.38c0,-1.19 -0.28,-2.31 -0.84,-3.38c-0.55,-1.06 -1.31,-1.99 -2.28,-2.78c-0.96,-0.78 -2.1,-1.4 -3.41,-1.86c-1.31,-0.45 -2.69,-0.68 -4.15,-0.68z" class="fil4" id="8"/>
  <path fill-rule="nonzero" fill="#000000" d="m435.48,129.18c-0.51,0 -0.96,-0.14 -1.35,-0.44c-0.38,-0.3 -0.58,-0.66 -0.58,-1.08l0,-12.79c0,-1.25 0.3,-2.44 0.9,-3.56c0.6,-1.12 1.42,-2.1 2.45,-2.94c1.03,-0.83 2.23,-1.5 3.6,-1.99c1.37,-0.49 2.83,-0.73 4.37,-0.73c1.93,0 3.72,0.37 5.37,1.1c1.65,0.73 3.01,1.75 4.09,3.04c1.02,-1.29 2.37,-2.31 4.01,-3.04c1.66,-0.73 3.45,-1.1 5.38,-1.1c1.54,0 3,0.24 4.37,0.73c1.37,0.49 2.57,1.16 3.6,1.99c1.03,0.84 1.84,1.82 2.44,2.94c0.6,1.12 0.9,2.31 0.9,3.56l0,12.79c0,0.42 -0.18,0.78 -0.54,1.08c-0.37,0.3 -0.81,0.44 -1.32,0.44c-0.52,0 -0.97,-0.14 -1.35,-0.44c-0.39,-0.3 -0.58,-0.66 -0.58,-1.08l0,-12.79c0,-0.83 -0.19,-1.63 -0.58,-2.38c-0.38,-0.75 -0.92,-1.41 -1.61,-1.97c-0.68,-0.56 -1.49,-0.99 -2.41,-1.31c-0.92,-0.31 -1.9,-0.47 -2.92,-0.47c-1.03,0 -2.01,0.16 -2.93,0.47c-0.92,0.32 -1.72,0.75 -2.38,1.31c-0.66,0.56 -1.2,1.22 -1.61,1.97c-0.41,0.75 -0.61,1.55 -0.61,2.38l0,12.79c0,0.42 -0.18,0.78 -0.55,1.08c-0.36,0.3 -0.8,0.44 -1.31,0.44c-0.52,0 -0.97,-0.14 -1.35,-0.44c-0.39,-0.3 -0.58,-0.66 -0.58,-1.08l0,-12.79c0,-0.83 -0.2,-1.63 -0.58,-2.38c-0.39,-0.75 -0.92,-1.41 -1.61,-1.97c-0.69,-0.56 -1.49,-0.99 -2.41,-1.31c-0.92,-0.31 -1.9,-0.47 -2.93,-0.47c-1.03,0 -2,0.16 -2.92,0.47c-0.93,0.32 -1.72,0.75 -2.38,1.31c-0.67,0.56 -1.2,1.22 -1.61,1.97c-0.41,0.75 -0.61,1.55 -0.61,2.38l0,12.79c0,0.42 -0.18,0.78 -0.55,1.08c-0.36,0.3 -0.8,0.44 -1.32,0.44z" class="fil4" id="9"/>
  <path fill-rule="nonzero" fill="#000000" d="m507.83,117.39c0,1.64 -0.37,3.17 -1.12,4.59c-0.75,1.41 -1.79,2.66 -3.12,3.74c-1.33,1.09 -2.87,1.93 -4.63,2.55c-1.76,0.61 -3.62,0.91 -5.6,0.91c-2.4,0 -4.65,-0.45 -6.75,-1.36c-1.41,-0.66 -2.72,-1.5 -3.92,-2.51l0,12.47c0,0.42 -0.19,0.79 -0.55,1.1c-0.36,0.32 -0.8,0.47 -1.32,0.47c-0.51,0 -0.96,-0.15 -1.35,-0.47c-0.38,-0.31 -0.58,-0.68 -0.58,-1.1l0,-20.39c0,-1.61 0.38,-3.13 1.13,-4.56c0.75,-1.43 1.79,-2.69 3.12,-3.77c1.33,-1.09 2.86,-1.94 4.6,-2.55c1.73,-0.61 3.61,-0.91 5.62,-0.91c1.98,0 3.84,0.3 5.6,0.91c1.76,0.61 3.3,1.46 4.63,2.55c1.33,1.08 2.37,2.34 3.12,3.77c0.75,1.43 1.12,2.95 1.12,4.56zm-25.14,0c0,1.22 0.28,2.36 0.83,3.41c0.56,1.05 1.32,1.96 2.29,2.75c0.96,0.79 2.1,1.41 3.4,1.86c1.31,0.45 2.7,0.68 4.15,0.68c1.46,0 2.84,-0.23 4.15,-0.68c1.31,-0.45 2.44,-1.07 3.41,-1.86c0.96,-0.79 1.72,-1.7 2.28,-2.75c0.56,-1.05 0.84,-2.19 0.84,-3.41c0,-1.19 -0.28,-2.32 -0.84,-3.38c-0.56,-1.07 -1.32,-1.99 -2.28,-2.78c-0.97,-0.79 -2.1,-1.41 -3.41,-1.86c-1.31,-0.45 -2.69,-0.68 -4.15,-0.68c-1.45,0 -2.84,0.23 -4.15,0.68c-1.3,0.45 -2.44,1.07 -3.4,1.86c-0.97,0.79 -1.73,1.71 -2.29,2.78c-0.55,1.06 -0.83,2.19 -0.83,3.38z" class="fil4" id="10"/>
  <path fill-rule="nonzero" fill="#000000" d="m514.2,129.18c-0.52,0 -0.97,-0.14 -1.35,-0.44c-0.39,-0.3 -0.58,-0.66 -0.58,-1.08l0,-12.79c0,-1.25 0.3,-2.44 0.9,-3.56c0.6,-1.12 1.41,-2.1 2.44,-2.94c1.03,-0.83 2.23,-1.5 3.6,-1.99c1.38,-0.49 2.83,-0.73 4.38,-0.73l3.15,0c0.51,0 0.96,0.15 1.35,0.44c0.39,0.3 0.58,0.66 0.58,1.08c0,0.42 -0.19,0.78 -0.58,1.07c-0.39,0.3 -0.84,0.45 -1.35,0.45l-3.15,0c-1.03,0 -2.01,0.16 -2.93,0.5c-0.92,0.33 -1.71,0.77 -2.38,1.33c-0.66,0.56 -1.2,1.22 -1.61,1.97c-0.4,0.75 -0.61,1.55 -0.61,2.38l0,12.79c0,0.42 -0.18,0.78 -0.54,1.08c-0.37,0.3 -0.81,0.44 -1.32,0.44z" class="fil4" id="11"/>
  <path fill-rule="nonzero" fill="#000000" d="m552.78,127.77c-1.02,0.45 -2.11,0.8 -3.24,1.05c-1.14,0.24 -2.31,0.36 -3.51,0.36c-2.01,0 -3.89,-0.3 -5.63,-0.91c-1.73,-0.62 -3.26,-1.46 -4.59,-2.55c-1.33,-1.08 -2.37,-2.33 -3.12,-3.74c-0.75,-1.42 -1.13,-2.95 -1.13,-4.59c0,-1.61 0.38,-3.13 1.13,-4.56c0.75,-1.43 1.79,-2.69 3.12,-3.77c1.33,-1.09 2.86,-1.94 4.59,-2.55c1.74,-0.61 3.62,-0.91 5.63,-0.91c1.97,0 3.84,0.3 5.6,0.91c1.76,0.61 3.3,1.46 4.63,2.55c1.33,1.08 2.37,2.34 3.12,3.77c0.75,1.43 1.12,2.95 1.12,4.56l0,10.22c0,0.42 -0.18,0.79 -0.55,1.1c-0.36,0.32 -0.82,0.47 -1.38,0.47c-0.51,0 -0.95,-0.15 -1.32,-0.47c-0.36,-0.31 -0.54,-0.68 -0.54,-1.1l0,-2.3c-1.07,0.97 -2.38,1.79 -3.93,2.46zm-17.42,-10.38c0,1.19 0.28,2.32 0.83,3.38c0.56,1.07 1.32,1.99 2.29,2.78c0.96,0.79 2.1,1.41 3.4,1.86c1.31,0.45 2.69,0.68 4.15,0.68c1.46,0 2.84,-0.23 4.15,-0.68c1.31,-0.45 2.44,-1.07 3.41,-1.86c0.96,-0.79 1.72,-1.71 2.28,-2.78c0.56,-1.06 0.84,-2.19 0.84,-3.38c0,-1.19 -0.28,-2.32 -0.84,-3.38c-0.56,-1.07 -1.32,-1.99 -2.28,-2.78c-0.97,-0.79 -2.1,-1.41 -3.41,-1.86c-1.31,-0.45 -2.69,-0.68 -4.15,-0.68c-1.46,0 -2.84,0.23 -4.15,0.68c-1.3,0.45 -2.44,1.07 -3.4,1.86c-0.97,0.79 -1.73,1.71 -2.29,2.78c-0.55,1.06 -0.83,2.19 -0.83,3.38z" class="fil4" id="12"/>
  <path fill-rule="nonzero" fill="#000000" d="m572.08,108.74c-1.2,0 -2.23,0.34 -3.09,1.02c-0.86,0.68 -1.29,1.53 -1.29,2.55c0,1.01 0.43,1.86 1.29,2.54c0.86,0.68 1.89,1.02 3.09,1.02l8.17,0c1.11,0 2.16,0.17 3.15,0.52c0.98,0.35 1.85,0.83 2.6,1.45c0.75,0.61 1.34,1.31 1.77,2.12c0.43,0.8 0.64,1.66 0.64,2.57c0,0.91 -0.21,1.77 -0.64,2.59c-0.43,0.82 -1.02,1.53 -1.77,2.12c-0.75,0.6 -1.62,1.07 -2.6,1.42c-0.99,0.35 -2.04,0.52 -3.15,0.52l-14.41,0c-0.56,0 -1.02,-0.14 -1.38,-0.44c-0.37,-0.3 -0.55,-0.66 -0.55,-1.08c0,-0.42 0.18,-0.77 0.55,-1.07c0.36,-0.3 0.82,-0.45 1.38,-0.45l14.41,0c1.2,0 2.22,-0.35 3.08,-1.04c0.86,-0.7 1.29,-1.56 1.29,-2.57c0,-0.98 -0.43,-1.82 -1.29,-2.52c-0.86,-0.7 -1.88,-1.05 -3.08,-1.05l-8.17,0c-1.12,0 -2.18,-0.17 -3.19,-0.52c-1,-0.35 -1.87,-0.82 -2.6,-1.42c-0.73,-0.59 -1.31,-1.3 -1.74,-2.12c-0.43,-0.82 -0.64,-1.69 -0.64,-2.59c0,-0.91 0.21,-1.77 0.64,-2.57c0.43,-0.81 1.01,-1.51 1.74,-2.13c0.73,-0.61 1.6,-1.09 2.6,-1.44c1.01,-0.35 2.07,-0.52 3.19,-0.52l14.4,0c0.56,0 1.02,0.15 1.39,0.44c0.36,0.3 0.54,0.66 0.54,1.08c0,0.45 -0.18,0.83 -0.54,1.13c-0.37,0.29 -0.83,0.44 -1.39,0.44l-14.4,0z" class="fil4" id="13"/>
  <path fill-rule="nonzero" fill="#000000" d="m593.88,125.51c0.51,0 0.96,0.15 1.35,0.45c0.39,0.3 0.58,0.66 0.58,1.07l0,0.58c0,0.46 -0.19,0.83 -0.58,1.13c-0.39,0.3 -0.84,0.44 -1.35,0.44c-0.52,0 -0.96,-0.14 -1.32,-0.44c-0.36,-0.3 -0.55,-0.67 -0.55,-1.13l0,-0.58c0,-0.41 0.19,-0.77 0.55,-1.07c0.36,-0.3 0.8,-0.45 1.32,-0.45z" class="fil4" id="14"/>
  <path fill-rule="nonzero" fill="#000000" d="m609.57,109.47c-1.93,0.7 -3.46,1.76 -4.6,3.18c-1.13,1.41 -1.7,2.99 -1.7,4.74c0,1.75 0.57,3.33 1.7,4.74c1.14,1.42 2.67,2.48 4.6,3.18c1.41,0.52 2.89,0.78 4.44,0.78c2.66,0 4.99,-0.73 7.01,-2.2c0.43,-0.24 0.86,-0.37 1.28,-0.37c0.52,0 0.99,0.18 1.42,0.53c0.34,0.31 0.49,0.69 0.45,1.12c-0.04,0.44 -0.26,0.8 -0.64,1.08c-1.38,0.94 -2.88,1.68 -4.51,2.2c-1.67,0.49 -3.34,0.73 -5.01,0.73c-2.02,0 -4.01,-0.35 -5.98,-1.04c-2.66,-0.98 -4.74,-2.43 -6.24,-4.35c-1.5,-1.93 -2.25,-4.06 -2.25,-6.4c0,-2.38 0.75,-4.52 2.25,-6.42c1.5,-1.91 3.58,-3.35 6.24,-4.33c1.97,-0.69 3.96,-1.04 5.98,-1.04c1.67,0 3.34,0.24 5.01,0.73c1.63,0.52 3.13,1.26 4.51,2.2c0.34,0.25 0.55,0.61 0.64,1.1c0,0.46 -0.15,0.82 -0.45,1.1c-0.43,0.35 -0.9,0.53 -1.42,0.53c-0.51,0 -0.94,-0.14 -1.28,-0.42c-0.99,-0.7 -2.08,-1.23 -3.28,-1.6c-1.2,-0.37 -2.45,-0.55 -3.73,-0.55c-1.55,0 -3.03,0.26 -4.44,0.78z" class="fil4" id="15"/>
  <path fill-rule="nonzero" fill="#000000" d="m642.18,129.18c-2.02,0 -3.9,-0.3 -5.63,-0.91c-1.74,-0.62 -3.27,-1.45 -4.6,-2.52c-1.33,-1.07 -2.37,-2.31 -3.12,-3.72c-0.75,-1.42 -1.12,-2.95 -1.12,-4.59c0,-1.61 0.37,-3.13 1.12,-4.56c0.75,-1.43 1.79,-2.69 3.12,-3.77c1.33,-1.09 2.86,-1.93 4.6,-2.54c1.73,-0.62 3.61,-0.92 5.63,-0.92c1.97,0 3.83,0.3 5.59,0.92c1.76,0.61 3.3,1.45 4.63,2.54c1.33,1.08 2.37,2.34 3.12,3.77c0.75,1.43 1.13,2.95 1.13,4.56c0,1.64 -0.38,3.17 -1.13,4.59c-0.75,1.41 -1.79,2.65 -3.12,3.72c-1.33,1.07 -2.87,1.9 -4.63,2.52c-1.76,0.61 -3.62,0.91 -5.59,0.91zm0,-20.44c-1.46,0 -2.84,0.23 -4.15,0.68c-1.31,0.46 -2.45,1.08 -3.41,1.86c-0.97,0.79 -1.73,1.72 -2.28,2.78c-0.56,1.07 -0.84,2.19 -0.84,3.38c0,1.19 0.28,2.32 0.84,3.38c0.55,1.07 1.31,2 2.28,2.78c0.96,0.79 2.1,1.41 3.41,1.86c1.31,0.46 2.69,0.68 4.15,0.68c1.45,0 2.84,-0.22 4.14,-0.68c1.31,-0.45 2.45,-1.07 3.41,-1.86c0.97,-0.78 1.73,-1.71 2.29,-2.78c0.55,-1.06 0.83,-2.19 0.83,-3.38c0,-1.19 -0.28,-2.31 -0.83,-3.38c-0.56,-1.06 -1.32,-1.99 -2.29,-2.78c-0.96,-0.78 -2.1,-1.4 -3.41,-1.86c-1.3,-0.45 -2.69,-0.68 -4.14,-0.68z" class="fil4" id="16"/>
  <path fill-rule="nonzero" fill="#000000" d="m662.3,129.18c-0.51,0 -0.96,-0.14 -1.35,-0.44c-0.38,-0.3 -0.57,-0.66 -0.57,-1.08l0,-12.79c0,-1.25 0.3,-2.44 0.9,-3.56c0.6,-1.12 1.41,-2.1 2.44,-2.94c1.03,-0.83 2.23,-1.5 3.6,-1.99c1.37,-0.49 2.83,-0.73 4.37,-0.73c1.93,0 3.72,0.37 5.37,1.1c1.65,0.73 3.02,1.75 4.09,3.04c1.03,-1.29 2.37,-2.31 4.02,-3.04c1.65,-0.73 3.44,-1.1 5.37,-1.1c1.54,0 3,0.24 4.37,0.73c1.37,0.49 2.57,1.16 3.6,1.99c1.03,0.84 1.85,1.82 2.44,2.94c0.61,1.12 0.91,2.31 0.91,3.56l0,12.79c0,0.42 -0.19,0.78 -0.55,1.08c-0.37,0.3 -0.8,0.44 -1.32,0.44c-0.51,0 -0.96,-0.14 -1.35,-0.44c-0.39,-0.3 -0.58,-0.66 -0.58,-1.08l0,-12.79c0,-0.83 -0.19,-1.63 -0.58,-2.38c-0.38,-0.75 -0.92,-1.41 -1.61,-1.97c-0.68,-0.56 -1.49,-0.99 -2.41,-1.31c-0.92,-0.31 -1.89,-0.47 -2.92,-0.47c-1.03,0 -2.01,0.16 -2.93,0.47c-0.92,0.32 -1.71,0.75 -2.38,1.31c-0.66,0.56 -1.2,1.22 -1.61,1.97c-0.4,0.75 -0.61,1.55 -0.61,2.38l0,12.79c0,0.42 -0.18,0.78 -0.54,1.08c-0.37,0.3 -0.81,0.44 -1.32,0.44c-0.52,0 -0.97,-0.14 -1.35,-0.44c-0.39,-0.3 -0.58,-0.66 -0.58,-1.08l0,-12.79c0,-0.83 -0.19,-1.63 -0.58,-2.38c-0.39,-0.75 -0.92,-1.41 -1.61,-1.97c-0.68,-0.56 -1.49,-0.99 -2.41,-1.31c-0.92,-0.31 -1.9,-0.47 -2.93,-0.47c-1.03,0 -2,0.16 -2.92,0.47c-0.92,0.32 -1.72,0.75 -2.38,1.31c-0.67,0.56 -1.2,1.22 -1.61,1.97c-0.41,0.75 -0.61,1.55 -0.61,2.38l0,12.79c0,0.42 -0.18,0.78 -0.55,1.08c-0.36,0.3 -0.8,0.44 -1.32,0.44z" class="fil4" id="17"/>
  <path fill-rule="nonzero" fill="#000000" d="m707.26,125.51c0.51,0 0.96,0.15 1.35,0.45c0.38,0.3 0.58,0.66 0.58,1.07l0,0.58c0,0.46 -0.2,0.83 -0.58,1.13c-0.39,0.3 -0.84,0.44 -1.35,0.44c-0.52,0 -0.96,-0.14 -1.32,-0.44c-0.37,-0.3 -0.55,-0.67 -0.55,-1.13l0,-0.58c0,-0.41 0.18,-0.77 0.55,-1.07c0.36,-0.3 0.8,-0.45 1.32,-0.45z" class="fil4" id="18"/>
  <path fill-rule="nonzero" fill="#000000" d="m727.64,105.6c1.98,0 3.84,0.3 5.6,0.91c1.76,0.61 3.3,1.46 4.63,2.55c1.33,1.08 2.37,2.34 3.12,3.77c0.75,1.43 1.12,2.95 1.12,4.56c0,1.64 -0.37,3.17 -1.12,4.59c-0.75,1.41 -1.79,2.66 -3.12,3.74c-1.33,1.09 -2.87,1.93 -4.63,2.55c-1.76,0.61 -3.62,0.91 -5.6,0.91c-2.01,0 -3.89,-0.3 -5.62,-0.91c-1.74,-0.62 -3.27,-1.46 -4.6,-2.55c-1.33,-1.08 -2.37,-2.33 -3.12,-3.74c-0.75,-1.42 -1.13,-2.95 -1.13,-4.59l0,-23.01c0,-0.46 0.2,-0.83 0.58,-1.13c0.39,-0.3 0.84,-0.44 1.35,-0.44c0.52,0 0.96,0.14 1.32,0.44c0.37,0.3 0.55,0.67 0.55,1.13l0,15.09c1.2,-1.04 2.51,-1.86 3.92,-2.46c1.03,-0.45 2.12,-0.8 3.28,-1.05c1.16,-0.24 2.32,-0.36 3.47,-0.36zm0,20.49c1.46,0 2.84,-0.23 4.15,-0.68c1.31,-0.45 2.45,-1.07 3.41,-1.86c0.97,-0.79 1.73,-1.7 2.28,-2.75c0.56,-1.05 0.84,-2.19 0.84,-3.41c0,-1.19 -0.28,-2.32 -0.84,-3.38c-0.55,-1.07 -1.31,-1.99 -2.28,-2.78c-0.96,-0.79 -2.1,-1.41 -3.41,-1.86c-1.31,-0.45 -2.69,-0.68 -4.15,-0.68c-1.45,0 -2.84,0.23 -4.14,0.68c-1.31,0.45 -2.45,1.07 -3.41,1.86c-0.97,0.79 -1.73,1.71 -2.29,2.78c-0.55,1.06 -0.83,2.19 -0.83,3.38c0,1.22 0.28,2.36 0.83,3.41c0.56,1.05 1.32,1.96 2.29,2.75c0.96,0.79 2.1,1.41 3.41,1.86c1.3,0.45 2.69,0.68 4.14,0.68z" class="fil4" id="19"/>
  <path fill-rule="nonzero" fill="#000000" d="m748.03,129.18c-0.51,0 -0.96,-0.14 -1.35,-0.44c-0.39,-0.3 -0.58,-0.66 -0.58,-1.08l0,-12.79c0,-1.25 0.3,-2.44 0.9,-3.56c0.6,-1.12 1.42,-2.1 2.45,-2.94c1.02,-0.83 2.22,-1.5 3.6,-1.99c1.37,-0.49 2.83,-0.73 4.37,-0.73l3.15,0c0.51,0 0.97,0.15 1.35,0.44c0.39,0.3 0.58,0.66 0.58,1.08c0,0.42 -0.19,0.78 -0.58,1.07c-0.38,0.3 -0.84,0.45 -1.35,0.45l-3.15,0c-1.03,0 -2.01,0.16 -2.93,0.5c-0.92,0.33 -1.71,0.77 -2.38,1.33c-0.66,0.56 -1.2,1.22 -1.6,1.97c-0.41,0.75 -0.61,1.55 -0.61,2.38l0,12.79c0,0.42 -0.19,0.78 -0.55,1.08c-0.37,0.3 -0.81,0.44 -1.32,0.44z" class="fil4" id="20"/>
  <path fill-rule="nonzero" fill="#000000" stroke-miterlimit="22.9256" stroke-width="0.38" d="m170.33,105.6c0.52,0 0.96,0.15 1.32,0.47c0.36,0.31 0.55,0.68 0.55,1.1l0,12.79c0,1.26 -0.3,2.44 -0.9,3.56c-0.6,1.12 -1.42,2.1 -2.45,2.94c-1.03,0.84 -2.23,1.5 -3.6,1.99c-1.37,0.49 -2.83,0.73 -4.37,0.73c-1.93,0 -3.72,-0.36 -5.37,-1.1c-1.65,-0.73 -2.99,-1.74 -4.02,-3.04c-1.07,1.3 -2.43,2.31 -4.08,3.04c-1.66,0.74 -3.45,1.1 -5.37,1.1c-1.55,0 -3.01,-0.24 -4.38,-0.73c-1.37,-0.49 -2.57,-1.15 -3.6,-1.99c-1.03,-0.84 -1.84,-1.82 -2.44,-2.94c-0.6,-1.12 -0.9,-2.3 -0.9,-3.56l0,-12.79c0,-0.42 0.19,-0.79 0.58,-1.1c0.38,-0.32 0.83,-0.47 1.35,-0.47c0.51,0 0.95,0.15 1.31,0.47c0.37,0.31 0.55,0.68 0.55,1.1l0,12.79c0,0.84 0.2,1.63 0.61,2.38c0.41,0.75 0.95,1.41 1.61,1.97c0.66,0.56 1.46,1 2.38,1.31c0.92,0.31 1.9,0.47 2.93,0.47c1.02,0 2,-0.16 2.92,-0.47c0.92,-0.31 1.73,-0.75 2.41,-1.31c0.69,-0.56 1.23,-1.22 1.61,-1.97c0.39,-0.75 0.58,-1.54 0.58,-2.38l0,-12.79c0,-0.42 0.19,-0.79 0.58,-1.1c0.38,-0.32 0.83,-0.47 1.35,-0.47c0.51,0 0.95,0.15 1.32,0.47c0.36,0.31 0.54,0.68 0.54,1.1l0,12.79c0,0.84 0.21,1.63 0.62,2.38c0.4,0.75 0.94,1.41 1.6,1.97c0.67,0.56 1.46,1 2.38,1.31c0.92,0.31 1.9,0.47 2.93,0.47c1.03,0 2,-0.16 2.92,-0.47c0.93,-0.31 1.73,-0.75 2.42,-1.31c0.68,-0.56 1.22,-1.22 1.6,-1.97c0.39,-0.75 0.58,-1.54 0.58,-2.38l0,-12.79c0,-0.42 0.2,-0.79 0.58,-1.1c0.39,-0.32 0.84,-0.47 1.35,-0.47z" class="fil3 str2" id="21"/>
  <path fill-rule="nonzero" fill="#000000" stroke-miterlimit="22.9256" stroke-width="0.38" d="m215.86,105.6c0.52,0 0.96,0.15 1.32,0.47c0.37,0.31 0.55,0.68 0.55,1.1l0,12.79c0,1.26 -0.3,2.44 -0.9,3.56c-0.6,1.12 -1.42,2.1 -2.45,2.94c-1.02,0.84 -2.23,1.5 -3.6,1.99c-1.37,0.49 -2.83,0.73 -4.37,0.73c-1.93,0 -3.72,-0.36 -5.37,-1.1c-1.65,-0.73 -2.99,-1.74 -4.02,-3.04c-1.07,1.3 -2.43,2.31 -4.08,3.04c-1.65,0.74 -3.44,1.1 -5.37,1.1c-1.55,0 -3,-0.24 -4.38,-0.73c-1.37,-0.49 -2.57,-1.15 -3.6,-1.99c-1.03,-0.84 -1.84,-1.82 -2.44,-2.94c-0.6,-1.12 -0.9,-2.3 -0.9,-3.56l0,-12.79c0,-0.42 0.19,-0.79 0.58,-1.1c0.38,-0.32 0.83,-0.47 1.35,-0.47c0.51,0 0.95,0.15 1.32,0.47c0.36,0.31 0.54,0.68 0.54,1.1l0,12.79c0,0.84 0.21,1.63 0.61,2.38c0.41,0.75 0.95,1.41 1.61,1.97c0.67,0.56 1.46,1 2.38,1.31c0.92,0.31 1.9,0.47 2.93,0.47c1.03,0 2,-0.16 2.92,-0.47c0.93,-0.31 1.73,-0.75 2.41,-1.31c0.69,-0.56 1.23,-1.22 1.61,-1.97c0.39,-0.75 0.58,-1.54 0.58,-2.38l0,-12.79c0,-0.42 0.19,-0.79 0.58,-1.1c0.39,-0.32 0.84,-0.47 1.35,-0.47c0.52,0 0.95,0.15 1.32,0.47c0.36,0.31 0.55,0.68 0.55,1.1l0,12.79c0,0.84 0.2,1.63 0.61,2.38c0.4,0.75 0.94,1.41 1.6,1.97c0.67,0.56 1.46,1 2.38,1.31c0.93,0.31 1.9,0.47 2.93,0.47c1.03,0 2,-0.16 2.93,-0.47c0.92,-0.31 1.72,-0.75 2.41,-1.31c0.68,-0.56 1.22,-1.22 1.61,-1.97c0.38,-0.75 0.57,-1.54 0.57,-2.38l0,-12.79c0,-0.42 0.2,-0.79 0.58,-1.1c0.39,-0.32 0.84,-0.47 1.35,-0.47z" class="fil3 str2" id="22"/>
  <path fill-rule="nonzero" fill="#000000" stroke-miterlimit="22.9256" stroke-width="0.38" d="m261.4,105.6c0.51,0 0.95,0.15 1.31,0.47c0.37,0.31 0.55,0.68 0.55,1.1l0,12.79c0,1.26 -0.3,2.44 -0.9,3.56c-0.6,1.12 -1.41,2.1 -2.44,2.94c-1.03,0.84 -2.23,1.5 -3.6,1.99c-1.38,0.49 -2.83,0.73 -4.38,0.73c-1.93,0 -3.72,-0.36 -5.37,-1.1c-1.65,-0.73 -2.99,-1.74 -4.02,-3.04c-1.07,1.3 -2.43,2.31 -4.08,3.04c-1.65,0.74 -3.44,1.1 -5.37,1.1c-1.54,0 -3,-0.24 -4.37,-0.73c-1.38,-0.49 -2.58,-1.15 -3.61,-1.99c-1.02,-0.84 -1.84,-1.82 -2.44,-2.94c-0.6,-1.12 -0.9,-2.3 -0.9,-3.56l0,-12.79c0,-0.42 0.19,-0.79 0.58,-1.1c0.38,-0.32 0.84,-0.47 1.35,-0.47c0.51,0 0.95,0.15 1.32,0.47c0.36,0.31 0.55,0.68 0.55,1.1l0,12.79c0,0.84 0.2,1.63 0.61,2.38c0.4,0.75 0.94,1.41 1.6,1.97c0.67,0.56 1.46,1 2.38,1.31c0.92,0.31 1.9,0.47 2.93,0.47c1.03,0 2,-0.16 2.93,-0.47c0.92,-0.31 1.72,-0.75 2.41,-1.31c0.68,-0.56 1.22,-1.22 1.6,-1.97c0.39,-0.75 0.58,-1.54 0.58,-2.38l0,-12.79c0,-0.42 0.2,-0.79 0.58,-1.1c0.39,-0.32 0.84,-0.47 1.35,-0.47c0.52,0 0.96,0.15 1.32,0.47c0.37,0.31 0.55,0.68 0.55,1.1l0,12.79c0,0.84 0.2,1.63 0.61,2.38c0.41,0.75 0.94,1.41 1.61,1.97c0.66,0.56 1.45,1 2.38,1.31c0.92,0.31 1.89,0.47 2.92,0.47c1.03,0 2.01,-0.16 2.93,-0.47c0.92,-0.31 1.72,-0.75 2.41,-1.31c0.69,-0.56 1.22,-1.22 1.61,-1.97c0.38,-0.75 0.58,-1.54 0.58,-2.38l0,-12.79c0,-0.42 0.19,-0.79 0.57,-1.1c0.39,-0.32 0.84,-0.47 1.36,-0.47z" class="fil3 str2" id="23"/>
  <path fill-rule="nonzero" fill="#000000" stroke-miterlimit="22.9256" stroke-width="0.38" d="m268.79,125.51c0.52,0 0.97,0.15 1.35,0.45c0.39,0.3 0.58,0.66 0.58,1.07l0,0.58c0,0.46 -0.19,0.83 -0.58,1.13c-0.38,0.3 -0.83,0.44 -1.35,0.44c-0.51,0 -0.95,-0.14 -1.32,-0.44c-0.36,-0.3 -0.54,-0.67 -0.54,-1.13l0,-0.58c0,-0.41 0.18,-0.77 0.54,-1.07c0.37,-0.3 0.81,-0.45 1.32,-0.45z" class="fil3 str2" id="24"/>
  <path fill-rule="nonzero" fill="#000000" stroke-miterlimit="22.9256" stroke-width="0.38" d="m301.98,105.6c0.51,0 0.95,0.14 1.31,0.44c0.37,0.3 0.55,0.66 0.55,1.08l0,10.27c0,1.64 -0.37,3.17 -1.12,4.59c-0.76,1.41 -1.8,2.66 -3.12,3.74c-1.33,1.09 -2.88,1.93 -4.63,2.55c-1.76,0.61 -3.63,0.91 -5.6,0.91c-2.01,0 -3.89,-0.3 -5.63,-0.91c-1.73,-0.62 -3.25,-1.46 -4.56,-2.55c-1.31,-1.08 -2.34,-2.33 -3.09,-3.74c-0.75,-1.42 -1.12,-2.95 -1.12,-4.59l0,-10.27c0,-0.42 0.18,-0.78 0.54,-1.08c0.37,-0.3 0.81,-0.44 1.32,-0.44c0.51,0 0.95,0.14 1.32,0.44c0.36,0.3 0.55,0.66 0.55,1.08l0,10.27c0,1.19 0.27,2.32 0.83,3.38c0.56,1.07 1.32,1.99 2.28,2.78c0.97,0.79 2.1,1.41 3.41,1.86c1.31,0.45 2.69,0.68 4.15,0.68c1.46,0 2.84,-0.23 4.15,-0.68c1.31,-0.45 2.44,-1.07 3.41,-1.86c0.96,-0.79 1.72,-1.71 2.28,-2.78c0.56,-1.06 0.84,-2.19 0.84,-3.38l0,-10.27c0,-0.42 0.19,-0.78 0.58,-1.08c0.38,-0.3 0.83,-0.44 1.35,-0.44z" class="fil3 str2" id="25"/>
  <path fill-rule="nonzero" fill="#000000" stroke-miterlimit="22.9256" stroke-width="0.38" d="m310.08,129.18c-0.56,0 -1.02,-0.15 -1.38,-0.47c-0.37,-0.31 -0.55,-0.68 -0.55,-1.1l0,-10.22c0,-1.61 0.37,-3.13 1.12,-4.56c0.75,-1.43 1.79,-2.69 3.12,-3.77c1.33,-1.09 2.87,-1.94 4.6,-2.55c1.74,-0.61 3.61,-0.91 5.63,-0.91c1.97,0 3.84,0.3 5.59,0.91c1.76,0.61 3.31,1.46 4.63,2.55c1.33,1.08 2.37,2.34 3.12,3.77c0.75,1.43 1.13,2.95 1.13,4.56l0,10.22c0,0.42 -0.18,0.79 -0.55,1.1c-0.36,0.32 -0.82,0.47 -1.38,0.47c-0.52,0 -0.95,-0.15 -1.32,-0.47c-0.36,-0.31 -0.55,-0.68 -0.55,-1.1l0,-10.22c0,-1.19 -0.27,-2.32 -0.83,-3.38c-0.56,-1.07 -1.32,-1.99 -2.28,-2.78c-0.97,-0.79 -2.11,-1.41 -3.41,-1.86c-1.31,-0.45 -2.69,-0.68 -4.15,-0.68c-1.5,0 -2.89,0.23 -4.18,0.68c-1.29,0.45 -2.41,1.07 -3.38,1.86c-0.96,0.79 -1.72,1.71 -2.28,2.78c-0.56,1.06 -0.84,2.19 -0.84,3.38l0,10.22c0,0.42 -0.18,0.79 -0.54,1.1c-0.37,0.32 -0.81,0.47 -1.32,0.47z" class="fil3 str2" id="26"/>
  <path fill-rule="nonzero" fill="#000000" stroke-miterlimit="22.9256" stroke-width="0.38" d="m361.85,127.77c-1.03,0.45 -2.11,0.8 -3.25,1.05c-1.14,0.24 -2.3,0.36 -3.5,0.36c-2.02,0 -3.89,-0.3 -5.63,-0.91c-1.74,-0.62 -3.27,-1.46 -4.6,-2.55c-1.33,-1.08 -2.37,-2.33 -3.12,-3.74c-0.75,-1.42 -1.12,-2.95 -1.12,-4.59c0,-1.61 0.37,-3.13 1.12,-4.56c0.75,-1.43 1.79,-2.69 3.12,-3.77c1.33,-1.09 2.86,-1.94 4.6,-2.55c1.74,-0.61 3.61,-0.91 5.63,-0.91c1.97,0 3.83,0.3 5.59,0.91c1.76,0.61 3.3,1.46 4.63,2.55c1.33,1.08 2.37,2.34 3.12,3.77c0.75,1.43 1.13,2.95 1.13,4.56l0,10.22c0,0.42 -0.19,0.79 -0.55,1.1c-0.37,0.32 -0.83,0.47 -1.38,0.47c-0.52,0 -0.96,-0.15 -1.32,-0.47c-0.37,-0.31 -0.55,-0.68 -0.55,-1.1l0,-2.3c-1.07,0.97 -2.38,1.79 -3.92,2.46zm-17.43,-10.38c0,1.19 0.28,2.32 0.84,3.38c0.55,1.07 1.32,1.99 2.28,2.78c0.96,0.79 2.1,1.41 3.41,1.86c1.31,0.45 2.69,0.68 4.15,0.68c1.45,0 2.84,-0.23 4.14,-0.68c1.31,-0.45 2.45,-1.07 3.41,-1.86c0.97,-0.79 1.73,-1.71 2.29,-2.78c0.55,-1.06 0.83,-2.19 0.83,-3.38c0,-1.19 -0.28,-2.32 -0.83,-3.38c-0.56,-1.07 -1.32,-1.99 -2.29,-2.78c-0.96,-0.79 -2.1,-1.41 -3.41,-1.86c-1.3,-0.45 -2.69,-0.68 -4.14,-0.68c-1.46,0 -2.84,0.23 -4.15,0.68c-1.31,0.45 -2.45,1.07 -3.41,1.86c-0.96,0.79 -1.73,1.71 -2.28,2.78c-0.56,1.06 -0.84,2.19 -0.84,3.38z" class="fil3 str2" id="27"/>
  <path fill-rule="nonzero" fill="#000000" stroke-miterlimit="22.9256" stroke-width="0.38" d="m382.75,109.47c-1.93,0.7 -3.46,1.76 -4.6,3.18c-1.14,1.41 -1.7,2.99 -1.7,4.74c0,1.75 0.56,3.33 1.7,4.74c1.14,1.42 2.67,2.48 4.6,3.18c1.41,0.52 2.89,0.78 4.44,0.78c2.65,0 4.99,-0.73 7.01,-2.2c0.43,-0.24 0.85,-0.37 1.28,-0.37c0.52,0 0.99,0.18 1.42,0.53c0.34,0.31 0.49,0.69 0.45,1.12c-0.05,0.44 -0.26,0.8 -0.65,1.08c-1.37,0.94 -2.87,1.68 -4.5,2.2c-1.67,0.49 -3.34,0.73 -5.01,0.73c-2.02,0 -4.01,-0.35 -5.98,-1.04c-2.66,-0.98 -4.74,-2.43 -6.24,-4.35c-1.5,-1.93 -2.25,-4.06 -2.25,-6.4c0,-2.38 0.75,-4.52 2.25,-6.42c1.5,-1.91 3.58,-3.35 6.24,-4.33c1.97,-0.69 3.96,-1.04 5.98,-1.04c1.67,0 3.34,0.24 5.01,0.73c1.63,0.52 3.13,1.26 4.5,2.2c0.35,0.25 0.56,0.61 0.65,1.1c0,0.46 -0.15,0.82 -0.45,1.1c-0.43,0.35 -0.9,0.53 -1.42,0.53c-0.51,0 -0.94,-0.14 -1.28,-0.42c-0.99,-0.7 -2.08,-1.23 -3.28,-1.6c-1.2,-0.37 -2.45,-0.55 -3.73,-0.55c-1.55,0 -3.03,0.26 -4.44,0.78z" class="fil3 str2" id="28"/>
  <path fill-rule="nonzero" fill="#000000" stroke-miterlimit="22.9256" stroke-width="0.38" d="m415.35,129.18c-2.01,0 -3.89,-0.3 -5.62,-0.91c-1.74,-0.62 -3.27,-1.45 -4.6,-2.52c-1.33,-1.07 -2.37,-2.31 -3.12,-3.72c-0.75,-1.42 -1.13,-2.95 -1.13,-4.59c0,-1.61 0.38,-3.13 1.13,-4.56c0.75,-1.43 1.79,-2.69 3.12,-3.77c1.33,-1.09 2.86,-1.93 4.6,-2.54c1.73,-0.62 3.61,-0.92 5.62,-0.92c1.98,0 3.84,0.3 5.6,0.92c1.76,0.61 3.3,1.45 4.63,2.54c1.33,1.08 2.37,2.34 3.12,3.77c0.75,1.43 1.12,2.95 1.12,4.56c0,1.64 -0.37,3.17 -1.12,4.59c-0.75,1.41 -1.79,2.65 -3.12,3.72c-1.33,1.07 -2.87,1.9 -4.63,2.52c-1.76,0.61 -3.62,0.91 -5.6,0.91zm0,-20.44c-1.45,0 -2.84,0.23 -4.14,0.68c-1.31,0.46 -2.45,1.08 -3.41,1.86c-0.97,0.79 -1.73,1.72 -2.29,2.78c-0.55,1.07 -0.83,2.19 -0.83,3.38c0,1.19 0.28,2.32 0.83,3.38c0.56,1.07 1.32,2 2.29,2.78c0.96,0.79 2.1,1.41 3.41,1.86c1.3,0.46 2.69,0.68 4.14,0.68c1.46,0 2.84,-0.22 4.15,-0.68c1.31,-0.45 2.45,-1.07 3.41,-1.86c0.97,-0.78 1.73,-1.71 2.28,-2.78c0.56,-1.06 0.84,-2.19 0.84,-3.38c0,-1.19 -0.28,-2.31 -0.84,-3.38c-0.55,-1.06 -1.31,-1.99 -2.28,-2.78c-0.96,-0.78 -2.1,-1.4 -3.41,-1.86c-1.31,-0.45 -2.69,-0.68 -4.15,-0.68z" class="fil3 str2" id="29"/>
  <path fill-rule="nonzero" fill="#000000" stroke-miterlimit="22.9256" stroke-width="0.38" d="m435.48,129.18c-0.51,0 -0.96,-0.14 -1.35,-0.44c-0.38,-0.3 -0.58,-0.66 -0.58,-1.08l0,-12.79c0,-1.25 0.3,-2.44 0.9,-3.56c0.6,-1.12 1.42,-2.1 2.45,-2.94c1.03,-0.83 2.23,-1.5 3.6,-1.99c1.37,-0.49 2.83,-0.73 4.37,-0.73c1.93,0 3.72,0.37 5.37,1.1c1.65,0.73 3.01,1.75 4.09,3.04c1.02,-1.29 2.37,-2.31 4.01,-3.04c1.66,-0.73 3.45,-1.1 5.38,-1.1c1.54,0 3,0.24 4.37,0.73c1.37,0.49 2.57,1.16 3.6,1.99c1.03,0.84 1.84,1.82 2.44,2.94c0.6,1.12 0.9,2.31 0.9,3.56l0,12.79c0,0.42 -0.18,0.78 -0.54,1.08c-0.37,0.3 -0.81,0.44 -1.32,0.44c-0.52,0 -0.97,-0.14 -1.35,-0.44c-0.39,-0.3 -0.58,-0.66 -0.58,-1.08l0,-12.79c0,-0.83 -0.19,-1.63 -0.58,-2.38c-0.38,-0.75 -0.92,-1.41 -1.61,-1.97c-0.68,-0.56 -1.49,-0.99 -2.41,-1.31c-0.92,-0.31 -1.9,-0.47 -2.92,-0.47c-1.03,0 -2.01,0.16 -2.93,0.47c-0.92,0.32 -1.72,0.75 -2.38,1.31c-0.66,0.56 -1.2,1.22 -1.61,1.97c-0.41,0.75 -0.61,1.55 -0.61,2.38l0,12.79c0,0.42 -0.18,0.78 -0.55,1.08c-0.36,0.3 -0.8,0.44 -1.31,0.44c-0.52,0 -0.97,-0.14 -1.35,-0.44c-0.39,-0.3 -0.58,-0.66 -0.58,-1.08l0,-12.79c0,-0.83 -0.2,-1.63 -0.58,-2.38c-0.39,-0.75 -0.92,-1.41 -1.61,-1.97c-0.69,-0.56 -1.49,-0.99 -2.41,-1.31c-0.92,-0.31 -1.9,-0.47 -2.93,-0.47c-1.03,0 -2,0.16 -2.92,0.47c-0.93,0.32 -1.72,0.75 -2.38,1.31c-0.67,0.56 -1.2,1.22 -1.61,1.97c-0.41,0.75 -0.61,1.55 -0.61,2.38l0,12.79c0,0.42 -0.18,0.78 -0.55,1.08c-0.36,0.3 -0.8,0.44 -1.32,0.44z" class="fil3 str2" id="30"/>
  <path fill-rule="nonzero" fill="#000000" stroke-miterlimit="22.9256" stroke-width="0.38" d="m507.83,117.39c0,1.64 -0.37,3.17 -1.12,4.59c-0.75,1.41 -1.79,2.66 -3.12,3.74c-1.33,1.09 -2.87,1.93 -4.63,2.55c-1.76,0.61 -3.62,0.91 -5.6,0.91c-2.4,0 -4.65,-0.45 -6.75,-1.36c-1.41,-0.66 -2.72,-1.5 -3.92,-2.51l0,12.47c0,0.42 -0.19,0.79 -0.55,1.1c-0.36,0.32 -0.8,0.47 -1.32,0.47c-0.51,0 -0.96,-0.15 -1.35,-0.47c-0.38,-0.31 -0.58,-0.68 -0.58,-1.1l0,-20.39c0,-1.61 0.38,-3.13 1.13,-4.56c0.75,-1.43 1.79,-2.69 3.12,-3.77c1.33,-1.09 2.86,-1.94 4.6,-2.55c1.73,-0.61 3.61,-0.91 5.62,-0.91c1.98,0 3.84,0.3 5.6,0.91c1.76,0.61 3.3,1.46 4.63,2.55c1.33,1.08 2.37,2.34 3.12,3.77c0.75,1.43 1.12,2.95 1.12,4.56zm-25.14,0c0,1.22 0.28,2.36 0.83,3.41c0.56,1.05 1.32,1.96 2.29,2.75c0.96,0.79 2.1,1.41 3.4,1.86c1.31,0.45 2.7,0.68 4.15,0.68c1.46,0 2.84,-0.23 4.15,-0.68c1.31,-0.45 2.44,-1.07 3.41,-1.86c0.96,-0.79 1.72,-1.7 2.28,-2.75c0.56,-1.05 0.84,-2.19 0.84,-3.41c0,-1.19 -0.28,-2.32 -0.84,-3.38c-0.56,-1.07 -1.32,-1.99 -2.28,-2.78c-0.97,-0.79 -2.1,-1.41 -3.41,-1.86c-1.31,-0.45 -2.69,-0.68 -4.15,-0.68c-1.45,0 -2.84,0.23 -4.15,0.68c-1.3,0.45 -2.44,1.07 -3.4,1.86c-0.97,0.79 -1.73,1.71 -2.29,2.78c-0.55,1.06 -0.83,2.19 -0.83,3.38z" class="fil3 str2" id="31"/>
  <path fill-rule="nonzero" fill="#000000" stroke-miterlimit="22.9256" stroke-width="0.38" d="m514.2,129.18c-0.52,0 -0.97,-0.14 -1.35,-0.44c-0.39,-0.3 -0.58,-0.66 -0.58,-1.08l0,-12.79c0,-1.25 0.3,-2.44 0.9,-3.56c0.6,-1.12 1.41,-2.1 2.44,-2.94c1.03,-0.83 2.23,-1.5 3.6,-1.99c1.38,-0.49 2.83,-0.73 4.38,-0.73l3.15,0c0.51,0 0.96,0.15 1.35,0.44c0.39,0.3 0.58,0.66 0.58,1.08c0,0.42 -0.19,0.78 -0.58,1.07c-0.39,0.3 -0.84,0.45 -1.35,0.45l-3.15,0c-1.03,0 -2.01,0.16 -2.93,0.5c-0.92,0.33 -1.71,0.77 -2.38,1.33c-0.66,0.56 -1.2,1.22 -1.61,1.97c-0.4,0.75 -0.61,1.55 -0.61,2.38l0,12.79c0,0.42 -0.18,0.78 -0.54,1.08c-0.37,0.3 -0.81,0.44 -1.32,0.44z" class="fil3 str2" id="32"/>
  <path fill-rule="nonzero" fill="#000000" stroke-miterlimit="22.9256" stroke-width="0.38" d="m552.78,127.77c-1.02,0.45 -2.11,0.8 -3.24,1.05c-1.14,0.24 -2.31,0.36 -3.51,0.36c-2.01,0 -3.89,-0.3 -5.63,-0.91c-1.73,-0.62 -3.26,-1.46 -4.59,-2.55c-1.33,-1.08 -2.37,-2.33 -3.12,-3.74c-0.75,-1.42 -1.13,-2.95 -1.13,-4.59c0,-1.61 0.38,-3.13 1.13,-4.56c0.75,-1.43 1.79,-2.69 3.12,-3.77c1.33,-1.09 2.86,-1.94 4.59,-2.55c1.74,-0.61 3.62,-0.91 5.63,-0.91c1.97,0 3.84,0.3 5.6,0.91c1.76,0.61 3.3,1.46 4.63,2.55c1.33,1.08 2.37,2.34 3.12,3.77c0.75,1.43 1.12,2.95 1.12,4.56l0,10.22c0,0.42 -0.18,0.79 -0.55,1.1c-0.36,0.32 -0.82,0.47 -1.38,0.47c-0.51,0 -0.95,-0.15 -1.32,-0.47c-0.36,-0.31 -0.54,-0.68 -0.54,-1.1l0,-2.3c-1.07,0.97 -2.38,1.79 -3.93,2.46zm-17.42,-10.38c0,1.19 0.28,2.32 0.83,3.38c0.56,1.07 1.32,1.99 2.29,2.78c0.96,0.79 2.1,1.41 3.4,1.86c1.31,0.45 2.69,0.68 4.15,0.68c1.46,0 2.84,-0.23 4.15,-0.68c1.31,-0.45 2.44,-1.07 3.41,-1.86c0.96,-0.79 1.72,-1.71 2.28,-2.78c0.56,-1.06 0.84,-2.19 0.84,-3.38c0,-1.19 -0.28,-2.32 -0.84,-3.38c-0.56,-1.07 -1.32,-1.99 -2.28,-2.78c-0.97,-0.79 -2.1,-1.41 -3.41,-1.86c-1.31,-0.45 -2.69,-0.68 -4.15,-0.68c-1.46,0 -2.84,0.23 -4.15,0.68c-1.3,0.45 -2.44,1.07 -3.4,1.86c-0.97,0.79 -1.73,1.71 -2.29,2.78c-0.55,1.06 -0.83,2.19 -0.83,3.38z" class="fil3 str2" id="33"/>
  <path fill-rule="nonzero" fill="#000000" stroke-miterlimit="22.9256" stroke-width="0.38" d="m572.08,108.74c-1.2,0 -2.23,0.34 -3.09,1.02c-0.86,0.68 -1.29,1.53 -1.29,2.55c0,1.01 0.43,1.86 1.29,2.54c0.86,0.68 1.89,1.02 3.09,1.02l8.17,0c1.11,0 2.16,0.17 3.15,0.52c0.98,0.35 1.85,0.83 2.6,1.45c0.75,0.61 1.34,1.31 1.77,2.12c0.43,0.8 0.64,1.66 0.64,2.57c0,0.91 -0.21,1.77 -0.64,2.59c-0.43,0.82 -1.02,1.53 -1.77,2.12c-0.75,0.6 -1.62,1.07 -2.6,1.42c-0.99,0.35 -2.04,0.52 -3.15,0.52l-14.41,0c-0.56,0 -1.02,-0.14 -1.38,-0.44c-0.37,-0.3 -0.55,-0.66 -0.55,-1.08c0,-0.42 0.18,-0.77 0.55,-1.07c0.36,-0.3 0.82,-0.45 1.38,-0.45l14.41,0c1.2,0 2.22,-0.35 3.08,-1.04c0.86,-0.7 1.29,-1.56 1.29,-2.57c0,-0.98 -0.43,-1.82 -1.29,-2.52c-0.86,-0.7 -1.88,-1.05 -3.08,-1.05l-8.17,0c-1.12,0 -2.18,-0.17 -3.19,-0.52c-1,-0.35 -1.87,-0.82 -2.6,-1.42c-0.73,-0.59 -1.31,-1.3 -1.74,-2.12c-0.43,-0.82 -0.64,-1.69 -0.64,-2.59c0,-0.91 0.21,-1.77 0.64,-2.57c0.43,-0.81 1.01,-1.51 1.74,-2.13c0.73,-0.61 1.6,-1.09 2.6,-1.44c1.01,-0.35 2.07,-0.52 3.19,-0.52l14.4,0c0.56,0 1.02,0.15 1.39,0.44c0.36,0.3 0.54,0.66 0.54,1.08c0,0.45 -0.18,0.83 -0.54,1.13c-0.37,0.29 -0.83,0.44 -1.39,0.44l-14.4,0z" class="fil3 str2" id="34"/>
  <path fill-rule="nonzero" fill="#000000" stroke-miterlimit="22.9256" stroke-width="0.38" d="m593.88,125.51c0.51,0 0.96,0.15 1.35,0.45c0.39,0.3 0.58,0.66 0.58,1.07l0,0.58c0,0.46 -0.19,0.83 -0.58,1.13c-0.39,0.3 -0.84,0.44 -1.35,0.44c-0.52,0 -0.96,-0.14 -1.32,-0.44c-0.36,-0.3 -0.55,-0.67 -0.55,-1.13l0,-0.58c0,-0.41 0.19,-0.77 0.55,-1.07c0.36,-0.3 0.8,-0.45 1.32,-0.45z" class="fil3 str2" id="35"/>
  <path fill-rule="nonzero" fill="#000000" stroke-miterlimit="22.9256" stroke-width="0.38" d="m609.57,109.47c-1.93,0.7 -3.46,1.76 -4.6,3.18c-1.13,1.41 -1.7,2.99 -1.7,4.74c0,1.75 0.57,3.33 1.7,4.74c1.14,1.42 2.67,2.48 4.6,3.18c1.41,0.52 2.89,0.78 4.44,0.78c2.66,0 4.99,-0.73 7.01,-2.2c0.43,-0.24 0.86,-0.37 1.28,-0.37c0.52,0 0.99,0.18 1.42,0.53c0.34,0.31 0.49,0.69 0.45,1.12c-0.04,0.44 -0.26,0.8 -0.64,1.08c-1.38,0.94 -2.88,1.68 -4.51,2.2c-1.67,0.49 -3.34,0.73 -5.01,0.73c-2.02,0 -4.01,-0.35 -5.98,-1.04c-2.66,-0.98 -4.74,-2.43 -6.24,-4.35c-1.5,-1.93 -2.25,-4.06 -2.25,-6.4c0,-2.38 0.75,-4.52 2.25,-6.42c1.5,-1.91 3.58,-3.35 6.24,-4.33c1.97,-0.69 3.96,-1.04 5.98,-1.04c1.67,0 3.34,0.24 5.01,0.73c1.63,0.52 3.13,1.26 4.51,2.2c0.34,0.25 0.55,0.61 0.64,1.1c0,0.46 -0.15,0.82 -0.45,1.1c-0.43,0.35 -0.9,0.53 -1.42,0.53c-0.51,0 -0.94,-0.14 -1.28,-0.42c-0.99,-0.7 -2.08,-1.23 -3.28,-1.6c-1.2,-0.37 -2.45,-0.55 -3.73,-0.55c-1.55,0 -3.03,0.26 -4.44,0.78z" class="fil3 str2" id="36"/>
  <path fill-rule="nonzero" fill="#000000" stroke-miterlimit="22.9256" stroke-width="0.38" d="m642.18,129.18c-2.02,0 -3.9,-0.3 -5.63,-0.91c-1.74,-0.62 -3.27,-1.45 -4.6,-2.52c-1.33,-1.07 -2.37,-2.31 -3.12,-3.72c-0.75,-1.42 -1.12,-2.95 -1.12,-4.59c0,-1.61 0.37,-3.13 1.12,-4.56c0.75,-1.43 1.79,-2.69 3.12,-3.77c1.33,-1.09 2.86,-1.93 4.6,-2.54c1.73,-0.62 3.61,-0.92 5.63,-0.92c1.97,0 3.83,0.3 5.59,0.92c1.76,0.61 3.3,1.45 4.63,2.54c1.33,1.08 2.37,2.34 3.12,3.77c0.75,1.43 1.13,2.95 1.13,4.56c0,1.64 -0.38,3.17 -1.13,4.59c-0.75,1.41 -1.79,2.65 -3.12,3.72c-1.33,1.07 -2.87,1.9 -4.63,2.52c-1.76,0.61 -3.62,0.91 -5.59,0.91zm0,-20.44c-1.46,0 -2.84,0.23 -4.15,0.68c-1.31,0.46 -2.45,1.08 -3.41,1.86c-0.97,0.79 -1.73,1.72 -2.28,2.78c-0.56,1.07 -0.84,2.19 -0.84,3.38c0,1.19 0.28,2.32 0.84,3.38c0.55,1.07 1.31,2 2.28,2.78c0.96,0.79 2.1,1.41 3.41,1.86c1.31,0.46 2.69,0.68 4.15,0.68c1.45,0 2.84,-0.22 4.14,-0.68c1.31,-0.45 2.45,-1.07 3.41,-1.86c0.97,-0.78 1.73,-1.71 2.29,-2.78c0.55,-1.06 0.83,-2.19 0.83,-3.38c0,-1.19 -0.28,-2.31 -0.83,-3.38c-0.56,-1.06 -1.32,-1.99 -2.29,-2.78c-0.96,-0.78 -2.1,-1.4 -3.41,-1.86c-1.3,-0.45 -2.69,-0.68 -4.14,-0.68z" class="fil3 str2" id="37"/>
  <path fill-rule="nonzero" fill="#000000" stroke-miterlimit="22.9256" stroke-width="0.38" d="m662.3,129.18c-0.51,0 -0.96,-0.14 -1.35,-0.44c-0.38,-0.3 -0.57,-0.66 -0.57,-1.08l0,-12.79c0,-1.25 0.3,-2.44 0.9,-3.56c0.6,-1.12 1.41,-2.1 2.44,-2.94c1.03,-0.83 2.23,-1.5 3.6,-1.99c1.37,-0.49 2.83,-0.73 4.37,-0.73c1.93,0 3.72,0.37 5.37,1.1c1.65,0.73 3.02,1.75 4.09,3.04c1.03,-1.29 2.37,-2.31 4.02,-3.04c1.65,-0.73 3.44,-1.1 5.37,-1.1c1.54,0 3,0.24 4.37,0.73c1.37,0.49 2.57,1.16 3.6,1.99c1.03,0.84 1.85,1.82 2.44,2.94c0.61,1.12 0.91,2.31 0.91,3.56l0,12.79c0,0.42 -0.19,0.78 -0.55,1.08c-0.37,0.3 -0.8,0.44 -1.32,0.44c-0.51,0 -0.96,-0.14 -1.35,-0.44c-0.39,-0.3 -0.58,-0.66 -0.58,-1.08l0,-12.79c0,-0.83 -0.19,-1.63 -0.58,-2.38c-0.38,-0.75 -0.92,-1.41 -1.61,-1.97c-0.68,-0.56 -1.49,-0.99 -2.41,-1.31c-0.92,-0.31 -1.89,-0.47 -2.92,-0.47c-1.03,0 -2.01,0.16 -2.93,0.47c-0.92,0.32 -1.71,0.75 -2.38,1.31c-0.66,0.56 -1.2,1.22 -1.61,1.97c-0.4,0.75 -0.61,1.55 -0.61,2.38l0,12.79c0,0.42 -0.18,0.78 -0.54,1.08c-0.37,0.3 -0.81,0.44 -1.32,0.44c-0.52,0 -0.97,-0.14 -1.35,-0.44c-0.39,-0.3 -0.58,-0.66 -0.58,-1.08l0,-12.79c0,-0.83 -0.19,-1.63 -0.58,-2.38c-0.39,-0.75 -0.92,-1.41 -1.61,-1.97c-0.68,-0.56 -1.49,-0.99 -2.41,-1.31c-0.92,-0.31 -1.9,-0.47 -2.93,-0.47c-1.03,0 -2,0.16 -2.92,0.47c-0.92,0.32 -1.72,0.75 -2.38,1.31c-0.67,0.56 -1.2,1.22 -1.61,1.97c-0.41,0.75 -0.61,1.55 -0.61,2.38l0,12.79c0,0.42 -0.18,0.78 -0.55,1.08c-0.36,0.3 -0.8,0.44 -1.32,0.44z" class="fil3 str2" id="38"/>
  <path fill-rule="nonzero" fill="#000000" stroke-miterlimit="22.9256" stroke-width="0.38" d="m707.26,125.51c0.51,0 0.96,0.15 1.35,0.45c0.38,0.3 0.58,0.66 0.58,1.07l0,0.58c0,0.46 -0.2,0.83 -0.58,1.13c-0.39,0.3 -0.84,0.44 -1.35,0.44c-0.52,0 -0.96,-0.14 -1.32,-0.44c-0.37,-0.3 -0.55,-0.67 -0.55,-1.13l0,-0.58c0,-0.41 0.18,-0.77 0.55,-1.07c0.36,-0.3 0.8,-0.45 1.32,-0.45z" class="fil3 str2" id="39"/>
  <path fill-rule="nonzero" fill="#000000" stroke-miterlimit="22.9256" stroke-width="0.38" d="m727.64,105.6c1.98,0 3.84,0.3 5.6,0.91c1.76,0.61 3.3,1.46 4.63,2.55c1.33,1.08 2.37,2.34 3.12,3.77c0.75,1.43 1.12,2.95 1.12,4.56c0,1.64 -0.37,3.17 -1.12,4.59c-0.75,1.41 -1.79,2.66 -3.12,3.74c-1.33,1.09 -2.87,1.93 -4.63,2.55c-1.76,0.61 -3.62,0.91 -5.6,0.91c-2.01,0 -3.89,-0.3 -5.62,-0.91c-1.74,-0.62 -3.27,-1.46 -4.6,-2.55c-1.33,-1.08 -2.37,-2.33 -3.12,-3.74c-0.75,-1.42 -1.13,-2.95 -1.13,-4.59l0,-23.01c0,-0.46 0.2,-0.83 0.58,-1.13c0.39,-0.3 0.84,-0.44 1.35,-0.44c0.52,0 0.96,0.14 1.32,0.44c0.37,0.3 0.55,0.67 0.55,1.13l0,15.09c1.2,-1.04 2.51,-1.86 3.92,-2.46c1.03,-0.45 2.12,-0.8 3.28,-1.05c1.16,-0.24 2.32,-0.36 3.47,-0.36zm0,20.49c1.46,0 2.84,-0.23 4.15,-0.68c1.31,-0.45 2.45,-1.07 3.41,-1.86c0.97,-0.79 1.73,-1.7 2.28,-2.75c0.56,-1.05 0.84,-2.19 0.84,-3.41c0,-1.19 -0.28,-2.32 -0.84,-3.38c-0.55,-1.07 -1.31,-1.99 -2.28,-2.78c-0.96,-0.79 -2.1,-1.41 -3.41,-1.86c-1.31,-0.45 -2.69,-0.68 -4.15,-0.68c-1.45,0 -2.84,0.23 -4.14,0.68c-1.31,0.45 -2.45,1.07 -3.41,1.86c-0.97,0.79 -1.73,1.71 -2.29,2.78c-0.55,1.06 -0.83,2.19 -0.83,3.38c0,1.22 0.28,2.36 0.83,3.41c0.56,1.05 1.32,1.96 2.29,2.75c0.96,0.79 2.1,1.41 3.41,1.86c1.3,0.45 2.69,0.68 4.14,0.68z" class="fil3 str2" id="40"/>
  <path fill-rule="nonzero" fill="#000000" stroke-miterlimit="22.9256" stroke-width="0.38" d="m748.03,129.18c-0.51,0 -0.96,-0.14 -1.35,-0.44c-0.39,-0.3 -0.58,-0.66 -0.58,-1.08l0,-12.79c0,-1.25 0.3,-2.44 0.9,-3.56c0.6,-1.12 1.42,-2.1 2.45,-2.94c1.02,-0.83 2.22,-1.5 3.6,-1.99c1.37,-0.49 2.83,-0.73 4.37,-0.73l3.15,0c0.51,0 0.97,0.15 1.35,0.44c0.39,0.3 0.58,0.66 0.58,1.08c0,0.42 -0.19,0.78 -0.58,1.07c-0.38,0.3 -0.84,0.45 -1.35,0.45l-3.15,0c-1.03,0 -2.01,0.16 -2.93,0.5c-0.92,0.33 -1.71,0.77 -2.38,1.33c-0.66,0.56 -1.2,1.22 -1.6,1.97c-0.41,0.75 -0.61,1.55 -0.61,2.38l0,12.79c0,0.42 -0.19,0.78 -0.55,1.08c-0.37,0.3 -0.81,0.44 -1.32,0.44z" class="fil3 str2" id="41"/>
 </g>
</svg>