<?xml version="1.0" encoding="UTF-8"?>
<!DOCTYPE svg PUBLIC "-//W3C//DTD SVG 1.1//EN" "http://www.w3.org/Graphics/SVG/1.1/DTD/svg11.dtd">
<!-- Creator: CorelDRAW 2020 (64 Bit Versão de avaliação) -->
<svg xmlns="http://www.w3.org/2000/svg" xml:space="preserve" width="1696px" height="359px" version="1.1" style="shape-rendering:geometricPrecision; text-rendering:geometricPrecision; image-rendering:optimizeQuality; fill-rule:evenodd; clip-rule:evenodd"
viewBox="0 0 763.76 161.85"
 xmlns:xlink="http://www.w3.org/1999/xlink"
 xmlns:xodm="http://www.corel.com/coreldraw/odm/2003">
 <defs>
  <style type="text/css">
   <![CDATA[
    .str2 {stroke:white;stroke-width:0.38;stroke-miterlimit:22.9256}
    .str1 {stroke:white;stroke-width:1.88;stroke-miterlimit:22.9256}
    .str0 {stroke:white;stroke-width:4.13;stroke-linecap:round;stroke-linejoin:bevel;stroke-miterlimit:22.9256}
    .fil1 {fill:none}
    .fil3 {fill:none;fill-rule:nonzero}
    .fil0 {fill:white}
    .fil4 {fill:white;fill-rule:nonzero}
    .fil2 {fill:white;fill-rule:nonzero}
   ]]>
  </style>
 </defs>
 <g id="Camada_x0020_1">
  <metadata id="CorelCorpID_0Corel-Layer"/>
  <g id="_2328330980544">
   <g>
    <path class="fil0" d="M95.23 161.84c-9.87,0.01 -19.74,0 -29.6,0 -2.26,0 -3.21,-1.4 -3.7,-3.28 -0.29,-1.16 -0.22,-3.46 -0.22,-3.46 0,0 0.02,-4.26 0.02,-4.26 0,-1.68 1.27,-4.17 2.63,-4.94 0,0 0,-6.77 0,-6.77 0,0 -1.51,-2.88 -3.28,-5.2 -3.03,-3.95 -8.21,-15.08 -7,-19.45 1.45,-5.22 6.04,-10.86 8.18,-14.32 0,0 0,-8.62 0,-8.62 -0.04,-4.5 -0.03,-8.98 0,-13.49 0,0 0,-5.25 0,-5.25 0,0 0,-1.37 0,-1.7 0,-6.22 9.09,-10.01 13.02,-2.04 0.34,0.68 0.4,1.77 0.39,2.66 0,0 0,1.47 0,1.47 0,0 0,21.94 0,21.94 0,0 2.73,-1.99 5.36,-1.15 1.42,0.45 2.72,1.65 3.78,3.27 2.99,-1.85 6.97,-1.91 9.66,2.16 2.86,-1.31 5.56,-1.21 7.45,-0.29 2.84,1.39 3.77,3.67 3.82,6.61 0.02,1.52 0,3.24 0,4.98 -0.01,7.05 -0.06,14.12 0.05,21.16 0.04,3.1 -1.01,5.42 -4.31,7.39 0,0 0,6.78 0,6.78 1.36,0.77 3.17,3.25 3.17,4.93 0,0 0.01,4.26 0.01,4.26 0,0 0.08,2.31 -0.22,3.46 -0.41,1.57 -0.86,2.08 -2.4,2.8 -0.77,0.35 -2.14,0.35 -3.47,0.35 -1.27,0 -2.52,0 -3.34,0zm-28.2 -11.35l31.78 0c0.29,0 0.53,0.24 0.53,0.53l0 6.8c0,0.29 -0.24,0.53 -0.53,0.53l-31.78 0c-0.29,0 -0.53,-0.24 -0.53,-0.53l0 -6.8c0,-0.29 0.24,-0.53 0.53,-0.53zm34.36 -16.66c0.3,-0.48 0.76,-1.16 0.74,-2.27 -0.02,-0.84 -0.02,-5.35 -0.02,-5.35 0,0 0,-2.11 0,-3.31 -0.03,-6.12 0,-12.68 0,-18.81 0,-2.98 -6.75,-3.65 -6.9,-0.08 -0.04,0.89 0,2.51 -0.2,3.68 -0.41,2.49 -3.27,3.23 -3.44,0.29 -0.09,-1.65 -0.08,-3.91 -0.06,-5.57 0,-0.46 -0.04,-0.89 -0.23,-1.27 -0.96,-1.91 -3.75,-2.55 -5.1,-0.43 -0.73,1.15 0.03,5.17 -1.13,6.37 -1.28,1.33 -2.66,0.01 -2.88,-1.53 -0.26,-1.87 0.18,-4.75 -0.27,-6.87 -0.55,-2.66 -5.91,-2.76 -5.91,0.36 0,0.58 0,3.19 0,3.19 0,4.3 -3.9,4.06 -3.83,-0.09 0.02,-0.84 -0.01,-2.5 0,-3.58 0,0 0,-15.2 0,-15.2 0,0 0,-10.12 0,-12.6 -0.01,-3.17 -6.24,-2.78 -6.24,-0.1 0,1.71 0,6.91 0,6.91 0,0 0,27 0,27 0,0 0,8.71 0,11.05 0,1.96 -2.51,2.95 -2.97,0.13 -0.15,-0.9 -0.16,-2.02 -0.18,-2.65 -0.06,-2.17 -0.12,-7.14 -0.12,-7.14 -2.6,2.66 -6.61,8.03 -5.22,12.42 1.88,5.91 2.84,8.56 6.43,13.77 0.88,1.29 1.73,2.36 2.31,2.78 0.87,0.62 1.89,0.99 3.06,0.89 0.48,-0.04 0.92,-0.04 1.32,0.02 2.72,0.38 3.98,5.41 -1.6,5.05 0,0 0.04,5.94 0.04,5.94 9.11,0 19.05,0.04 28.16,0.05 0,0 0.04,-5.93 0.04,-5.93 -0.63,0.04 -0.12,0.01 -0.59,-0.07 -3.55,-0.62 -2.48,-4.43 -0.29,-4.38 0.77,0.02 0.52,0.09 1.25,0.07 1.77,-0.06 2.9,-1.24 3.83,-2.74z"/>
    <path class="fil1 str0" d="M85.07 87.48c4.51,-1.72 8.63,-6.29 8.63,-10.84l0 -63.43c0,-5.12 -6.17,-11.15 -11.4,-11.15l-68.4 0c-3.65,0 -7,2.67 -9.09,5.26 -2.23,2.78 -2.75,6.68 -2.75,11.46l0 53.14c0,4.71 0.8,8.55 3,11.22 1.81,2.2 5.86,5.07 9.72,5.07l38.11 0"/>
    <path class="fil0" d="M37.83 62.38c4.05,0 7.33,3.29 7.33,7.33 0,4.05 -3.28,7.34 -7.33,7.34 -4.05,0 -7.33,-3.29 -7.33,-7.34 0,-4.04 3.28,-7.33 7.33,-7.33zm0 4.78c1.41,0 2.55,1.15 2.55,2.55 0,1.41 -1.14,2.56 -2.55,2.56 -1.41,0 -2.55,-1.15 -2.55,-2.56 0,-1.4 1.14,-2.55 2.55,-2.55z"/>
    <path class="fil0" d="M68.12 42.68c-2.87,0.37 -28.39,3.36 -28.39,3.36 0,0 -4.8,-20.26 -4.8,-20.26 0,0 38.14,0 38.14,0 0,0 0.29,11.52 0.33,13.92 0.01,0.77 -0.21,1.27 -0.85,1.78 -0.87,0.68 -3.34,1.06 -4.43,1.2zm-39.21 -20.51c0.02,0.09 0.04,0.18 0.07,0.27 1.56,6.66 4.76,20.23 4.76,20.23 0,0 1.4,5.94 2.08,8.81 0.9,3.82 2.84,5.67 5.01,6.55 1.66,0.68 3.49,0.76 6.97,0.76 0,0 9.58,-0.02 9.58,-0.02 0,0 3.5,-0.01 4.34,-0.01 0.95,0.01 2.81,-0.19 3.47,-0.99 0.87,-1.04 0.29,-2.92 -1.1,-3.55 -0.81,-0.36 -1.95,-0.29 -2.74,-0.3 -1.24,-0.01 -2.79,0.01 -2.79,0.01 0,0 -4.45,0 -8.74,0.02 -1.73,0 -3.61,0 -5.03,0.01 -1.18,0 -2.36,0 -3.15,-1.11 -0.45,-0.62 -0.68,-1.49 -0.84,-2.28 9.05,-1.08 27.13,-3.25 27.16,-3.25 1.98,-0.26 4.66,-0.66 6.08,-1.28 1.35,-0.58 2.64,-1.77 3.27,-2.64 0.95,-1.33 0.96,-3.1 1.01,-5.44 0.06,-3.02 -0.18,-12.82 -0.41,-14.88 -0.13,-1.23 -1.68,-1.76 -3,-1.79 -0.74,-0.01 -6.67,0 -13.86,0.01 -11.9,0.02 -27.14,0.07 -27.14,0.07 0,0 -0.61,-3 -2.17,-5.14 -0.23,-0.31 -0.66,-0.74 -1.13,-1.13 -2.46,-2.09 -8.51,-2.24 -11.36,-1.38 -2.27,0.68 -2.45,3.39 -0.33,3.97 0.8,0.22 2.34,0.14 3.08,0.11 1.79,-0.08 3.46,-0.37 4.93,0.28 1.04,0.46 1.48,1.94 1.72,2.99 0.13,0.59 0.25,1.04 0.26,1.1z"/>
   </g>
   <g>
    <path class="fil2" d="M178.89 25.35l0 22.12c0,5.46 -2.23,10.22 -6.69,14.1 -4.46,3.89 -9.72,5.87 -15.79,5.87 -6.15,0 -11.5,-1.98 -15.87,-5.87 -4.37,-3.88 -6.6,-8.64 -6.6,-14.1l0 -22.12 -3.21 0 0 22.12c0,6.26 2.49,11.65 7.49,16.09 5.08,4.44 11.15,6.65 18.19,6.65 6.96,0 12.94,-2.21 18.02,-6.65 5.09,-4.44 7.58,-9.83 7.58,-16.09l0 -22.12 -3.12 0z"/>
    <path id="1" class="fil2" d="M247.93 47.31c0,-6.26 -2.59,-11.58 -7.67,-16.01 -5.09,-4.52 -11.15,-6.74 -18.2,-6.74 -7.04,0 -13.11,2.22 -18.19,6.74 -5.09,4.43 -7.59,9.75 -7.59,16.01l0 22.11 3.3 0 0 -22.11c0,-5.47 2.23,-10.15 6.69,-14.03 4.46,-3.97 9.73,-5.95 15.79,-5.95 6.16,0 11.42,1.98 15.88,5.95 4.46,3.88 6.69,8.56 6.69,14.03l0 22.11 3.3 0 0 -22.11z"/>
    <path id="2" class="fil2" d="M294.84 65.93c-2.85,1.03 -5.79,1.59 -8.74,1.59 -6.42,0 -11.77,-1.98 -16.14,-6.02 -4.28,-4.05 -6.42,-8.72 -6.42,-14.03 0,-5.71 2.23,-10.47 6.78,-14.27 4.54,-3.89 9.81,-5.79 15.78,-5.79 5.98,0 11.15,1.9 15.7,5.71 4.55,3.8 6.87,8.4 6.87,13.79l0 22.51 3.12 0 0 -21.95c0,-6.58 -2.59,-11.97 -7.76,-16.33 -5.08,-4.36 -11.06,-6.5 -17.93,-6.5 -7.22,0 -13.29,2.3 -18.28,6.81 -4.91,4.52 -7.4,9.83 -7.4,16.02 0,6.5 2.58,11.96 7.76,16.32 5.17,4.36 11.14,6.5 17.92,6.5 3.48,0 6.78,-0.63 9.99,-1.82l-1.25 -2.54z"/>
    <path id="3" class="fil2" d="M397.69 60.78c-4.38,4.44 -9.99,6.66 -16.68,6.66 -6.16,0 -11.51,-1.98 -15.88,-5.87 -4.37,-3.88 -6.51,-8.56 -6.51,-14.03 0,-5.39 2.23,-10.06 6.6,-13.95 4.37,-3.96 9.63,-5.94 15.79,-5.94 5.97,0 11.59,2.22 16.76,6.74l2.32 -1.83c-4.37,-4.83 -11.86,-7.69 -19.08,-7.69 -7.05,0 -13.03,2.22 -18.02,6.66 -5,4.44 -7.49,9.75 -7.49,16.01 0,6.19 2.49,11.5 7.49,16.02 5.08,4.44 11.06,6.65 18.02,6.65 7.04,0 13.38,-2.53 18.99,-7.53l-2.31 -1.9z"/>
    <path id="4" class="fil2" d="M461.99 47.39c0,-6.19 -2.49,-11.5 -7.58,-16.02 -4.99,-4.51 -10.97,-6.73 -18.01,-6.73 -7.05,0 -13.12,2.22 -18.11,6.73 -5,4.44 -7.49,9.75 -7.49,16.02 0,6.26 2.49,11.57 7.49,16.09 5.08,4.44 11.06,6.66 18.11,6.66 7.04,0 13.02,-2.22 18.01,-6.66 5.09,-4.52 7.58,-9.83 7.58,-16.09zm-3.12 0c0,5.47 -2.23,10.22 -6.6,14.11 -4.37,3.88 -9.72,5.86 -15.87,5.86 -6.16,0 -11.51,-1.98 -15.88,-5.86 -4.37,-3.89 -6.6,-8.64 -6.6,-14.11 0,-5.39 2.23,-10.07 6.6,-14.03 4.46,-3.97 9.72,-5.95 15.88,-5.95 6.15,0 11.41,1.98 15.78,5.95 4.46,3.96 6.69,8.64 6.69,14.03z"/>
    <path id="5" class="fil2" d="M540.4 39.7c0,-4.12 -1.79,-7.69 -5.27,-10.62 -3.47,-2.94 -7.49,-4.44 -12.04,-4.44 -6.51,0 -12.57,3.25 -15.52,8.24 -2.94,-5.07 -9.09,-8.24 -15.52,-8.24 -4.72,0 -8.92,1.5 -12.39,4.44 -3.48,2.93 -5.18,6.5 -5.18,10.62l0 29.72 3.3 0 0 -29.09c0,-3.49 1.43,-6.5 4.19,-9.03 2.77,-2.62 6.16,-3.89 10.08,-3.89 6.34,0 11.78,3.65 13.83,9.28l0 32.73 3.3 0 0 -32.73c1.87,-5.47 7.58,-9.28 13.91,-9.28 4.02,0 7.32,1.27 9.99,3.81 2.68,2.53 4.02,5.54 4.02,9.11l0 29.09 3.3 0 0 -29.72z"/>
    <path id="6" class="fil2" d="M606.13 47.47c0,-6.11 -2.49,-11.42 -7.4,-15.94 -4.91,-4.59 -11.06,-6.89 -18.28,-6.89 -6.78,0 -12.76,2.22 -18.02,6.58 -5.17,4.36 -7.76,9.75 -7.76,16.25l0 39.71 3.21 0 0 -40.27c0,-5.31 2.23,-9.83 6.69,-13.71 4.55,-3.89 9.81,-5.79 15.88,-5.79 5.97,0 11.23,1.9 15.69,5.79 4.55,3.88 6.78,8.64 6.78,14.27 0,5.31 -2.14,9.98 -6.42,14.03 -4.19,4.04 -9.54,6.02 -16.05,6.02 -3.04,0 -5.98,-0.56 -8.83,-1.59l-1.25 2.54c3.3,1.19 6.6,1.82 10.08,1.82 6.69,0 12.66,-2.14 17.83,-6.5 5.27,-4.36 7.85,-9.82 7.85,-16.32z"/>
    <path id="7" class="fil2" d="M644.22 24.56c-6.69,0 -12.67,2.14 -17.84,6.5 -5.17,4.28 -7.76,9.75 -7.76,16.33l0 22.03 3.12 0 0 -22.03c0,-5.47 2.23,-10.23 6.6,-14.11 4.37,-3.97 9.73,-5.95 15.88,-5.95l0 -2.77z"/>
    <path id="8" class="fil2" d="M684.89 65.93c-2.85,1.03 -5.8,1.59 -8.74,1.59 -6.42,0 -11.77,-1.98 -16.14,-6.02 -4.28,-4.05 -6.43,-8.72 -6.43,-14.03 0,-5.71 2.23,-10.47 6.78,-14.27 4.55,-3.89 9.82,-5.79 15.79,-5.79 5.98,0 11.15,1.9 15.7,5.71 4.55,3.8 6.87,8.4 6.87,13.79l0 22.51 3.12 0 0 -21.95c0,-6.58 -2.59,-11.97 -7.76,-16.33 -5.08,-4.36 -11.06,-6.5 -17.93,-6.5 -7.22,0 -13.29,2.3 -18.28,6.81 -4.91,4.52 -7.41,9.83 -7.41,16.02 0,6.5 2.59,11.96 7.76,16.32 5.18,4.36 11.15,6.5 17.93,6.5 3.48,0 6.78,-0.63 9.99,-1.82l-1.25 -2.54z"/>
    <path id="9" class="fil2" d="M718.52 38.27c1.69,-3.17 4.46,-5.79 8.11,-7.77 3.66,-2.06 7.59,-3.09 11.69,-3.09 7.05,0 14.18,3.01 18.73,9.04l2.68 -1.59c-4.64,-6.34 -12.76,-10.22 -21.41,-10.22 -5.62,0 -10.53,1.42 -14.81,4.2 -4.19,2.77 -7.31,6.34 -9.18,10.7l44.06 17.12c-3.66,6.1 -10.79,10.78 -20.07,10.78 -4.55,0 -8.74,-1.11 -12.58,-3.33 -3.83,-2.22 -6.6,-5.15 -8.29,-8.88l-2.95 0.95c2.41,5.39 7.05,9.52 11.78,11.42 4.9,1.82 8.83,2.61 12.04,2.61 5.44,0 10.26,-1.34 14.63,-4.12 4.37,-2.77 7.49,-6.34 9.54,-10.86l-43.97 -16.96z"/>
    <path id="10" class="fil3 str1" d="M178.89 25.35l0 22.12c0,5.46 -2.23,10.22 -6.69,14.1 -4.46,3.89 -9.72,5.87 -15.79,5.87 -6.15,0 -11.5,-1.98 -15.87,-5.87 -4.37,-3.88 -6.6,-8.64 -6.6,-14.1l0 -22.12 -3.21 0 0 22.12c0,6.26 2.49,11.65 7.49,16.09 5.08,4.44 11.15,6.65 18.19,6.65 6.96,0 12.94,-2.21 18.02,-6.65 5.09,-4.44 7.58,-9.83 7.58,-16.09l0 -22.12 -3.12 0z"/>
    <path id="11" class="fil3 str1" d="M247.93 47.31c0,-6.26 -2.59,-11.58 -7.67,-16.01 -5.09,-4.52 -11.15,-6.74 -18.2,-6.74 -7.04,0 -13.11,2.22 -18.19,6.74 -5.09,4.43 -7.59,9.75 -7.59,16.01l0 22.11 3.3 0 0 -22.11c0,-5.47 2.23,-10.15 6.69,-14.03 4.46,-3.97 9.73,-5.95 15.79,-5.95 6.16,0 11.42,1.98 15.88,5.95 4.46,3.88 6.69,8.56 6.69,14.03l0 22.11 3.3 0 0 -22.11z"/>
    <path id="12" class="fil3 str1" d="M294.84 65.93c-2.85,1.03 -5.79,1.59 -8.74,1.59 -6.42,0 -11.77,-1.98 -16.14,-6.02 -4.28,-4.05 -6.42,-8.72 -6.42,-14.03 0,-5.71 2.23,-10.47 6.78,-14.27 4.54,-3.89 9.81,-5.79 15.78,-5.79 5.98,0 11.15,1.9 15.7,5.71 4.55,3.8 6.87,8.4 6.87,13.79l0 22.51 3.12 0 0 -21.95c0,-6.58 -2.59,-11.97 -7.76,-16.33 -5.08,-4.36 -11.06,-6.5 -17.93,-6.5 -7.22,0 -13.29,2.3 -18.28,6.81 -4.91,4.52 -7.4,9.83 -7.4,16.02 0,6.5 2.58,11.96 7.76,16.32 5.17,4.36 11.14,6.5 17.92,6.5 3.48,0 6.78,-0.63 9.99,-1.82l-1.25 -2.54z"/>
    <path id="13" class="fil3 str1" d="M397.69 60.78c-4.38,4.44 -9.99,6.66 -16.68,6.66 -6.16,0 -11.51,-1.98 -15.88,-5.87 -4.37,-3.88 -6.51,-8.56 -6.51,-14.03 0,-5.39 2.23,-10.06 6.6,-13.95 4.37,-3.96 9.63,-5.94 15.79,-5.94 5.97,0 11.59,2.22 16.76,6.74l2.32 -1.83c-4.37,-4.83 -11.86,-7.69 -19.08,-7.69 -7.05,0 -13.03,2.22 -18.02,6.66 -5,4.44 -7.49,9.75 -7.49,16.01 0,6.19 2.49,11.5 7.49,16.02 5.08,4.44 11.06,6.65 18.02,6.65 7.04,0 13.38,-2.53 18.99,-7.53l-2.31 -1.9z"/>
    <path id="14" class="fil3 str1" d="M461.99 47.39c0,-6.19 -2.49,-11.5 -7.58,-16.02 -4.99,-4.51 -10.97,-6.73 -18.01,-6.73 -7.05,0 -13.12,2.22 -18.11,6.73 -5,4.44 -7.49,9.75 -7.49,16.02 0,6.26 2.49,11.57 7.49,16.09 5.08,4.44 11.06,6.66 18.11,6.66 7.04,0 13.02,-2.22 18.01,-6.66 5.09,-4.52 7.58,-9.83 7.58,-16.09zm-3.12 0c0,5.47 -2.23,10.22 -6.6,14.11 -4.37,3.88 -9.72,5.86 -15.87,5.86 -6.16,0 -11.51,-1.98 -15.88,-5.86 -4.37,-3.89 -6.6,-8.64 -6.6,-14.11 0,-5.39 2.23,-10.07 6.6,-14.03 4.46,-3.97 9.72,-5.95 15.88,-5.95 6.15,0 11.41,1.98 15.78,5.95 4.46,3.96 6.69,8.64 6.69,14.03z"/>
    <path id="15" class="fil3 str1" d="M540.4 39.7c0,-4.12 -1.79,-7.69 -5.27,-10.62 -3.47,-2.94 -7.49,-4.44 -12.04,-4.44 -6.51,0 -12.57,3.25 -15.52,8.24 -2.94,-5.07 -9.09,-8.24 -15.52,-8.24 -4.72,0 -8.92,1.5 -12.39,4.44 -3.48,2.93 -5.18,6.5 -5.18,10.62l0 29.72 3.3 0 0 -29.09c0,-3.49 1.43,-6.5 4.19,-9.03 2.77,-2.62 6.16,-3.89 10.08,-3.89 6.34,0 11.78,3.65 13.83,9.28l0 32.73 3.3 0 0 -32.73c1.87,-5.47 7.58,-9.28 13.91,-9.28 4.02,0 7.32,1.27 9.99,3.81 2.68,2.53 4.02,5.54 4.02,9.11l0 29.09 3.3 0 0 -29.72z"/>
    <path id="16" class="fil3 str1" d="M606.13 47.47c0,-6.11 -2.49,-11.42 -7.4,-15.94 -4.91,-4.59 -11.06,-6.89 -18.28,-6.89 -6.78,0 -12.76,2.22 -18.02,6.58 -5.17,4.36 -7.76,9.75 -7.76,16.25l0 39.71 3.21 0 0 -40.27c0,-5.31 2.23,-9.83 6.69,-13.71 4.55,-3.89 9.81,-5.79 15.88,-5.79 5.97,0 11.23,1.9 15.69,5.79 4.55,3.88 6.78,8.64 6.78,14.27 0,5.31 -2.14,9.98 -6.42,14.03 -4.19,4.04 -9.54,6.02 -16.05,6.02 -3.04,0 -5.98,-0.56 -8.83,-1.59l-1.25 2.54c3.3,1.19 6.6,1.82 10.08,1.82 6.69,0 12.66,-2.14 17.83,-6.5 5.27,-4.36 7.85,-9.82 7.85,-16.32z"/>
    <path id="17" class="fil3 str1" d="M644.22 24.56c-6.69,0 -12.67,2.14 -17.84,6.5 -5.17,4.28 -7.76,9.75 -7.76,16.33l0 22.03 3.12 0 0 -22.03c0,-5.47 2.23,-10.23 6.6,-14.11 4.37,-3.97 9.73,-5.95 15.88,-5.95l0 -2.77z"/>
    <path id="18" class="fil3 str1" d="M684.89 65.93c-2.85,1.03 -5.8,1.59 -8.74,1.59 -6.42,0 -11.77,-1.98 -16.14,-6.02 -4.28,-4.05 -6.43,-8.72 -6.43,-14.03 0,-5.71 2.23,-10.47 6.78,-14.27 4.55,-3.89 9.82,-5.79 15.79,-5.79 5.98,0 11.15,1.9 15.7,5.71 4.55,3.8 6.87,8.4 6.87,13.79l0 22.51 3.12 0 0 -21.95c0,-6.58 -2.59,-11.97 -7.76,-16.33 -5.08,-4.36 -11.06,-6.5 -17.93,-6.5 -7.22,0 -13.29,2.3 -18.28,6.81 -4.91,4.52 -7.41,9.83 -7.41,16.02 0,6.5 2.59,11.96 7.76,16.32 5.18,4.36 11.15,6.5 17.93,6.5 3.48,0 6.78,-0.63 9.99,-1.82l-1.25 -2.54z"/>
    <path id="19" class="fil3 str1" d="M718.52 38.27c1.69,-3.17 4.46,-5.79 8.11,-7.77 3.66,-2.06 7.59,-3.09 11.69,-3.09 7.05,0 14.18,3.01 18.73,9.04l2.68 -1.59c-4.64,-6.34 -12.76,-10.22 -21.41,-10.22 -5.62,0 -10.53,1.42 -14.81,4.2 -4.19,2.77 -7.31,6.34 -9.18,10.7l44.06 17.12c-3.66,6.1 -10.79,10.78 -20.07,10.78 -4.55,0 -8.74,-1.11 -12.58,-3.33 -3.83,-2.22 -6.6,-5.15 -8.29,-8.88l-2.95 0.95c2.41,5.39 7.05,9.52 11.78,11.42 4.9,1.82 8.83,2.61 12.04,2.61 5.44,0 10.26,-1.34 14.63,-4.12 4.37,-2.77 7.49,-6.34 9.54,-10.86l-43.97 -16.96z"/>
    <path class="fil4" d="M170.33 105.6c0.52,0 0.96,0.15 1.32,0.47 0.36,0.31 0.55,0.68 0.55,1.1l0 12.79c0,1.26 -0.3,2.44 -0.9,3.56 -0.6,1.12 -1.42,2.1 -2.45,2.94 -1.03,0.84 -2.23,1.5 -3.6,1.99 -1.37,0.49 -2.83,0.73 -4.37,0.73 -1.93,0 -3.72,-0.36 -5.37,-1.1 -1.65,-0.73 -2.99,-1.74 -4.02,-3.04 -1.07,1.3 -2.43,2.31 -4.08,3.04 -1.66,0.74 -3.45,1.1 -5.37,1.1 -1.55,0 -3.01,-0.24 -4.38,-0.73 -1.37,-0.49 -2.57,-1.15 -3.6,-1.99 -1.03,-0.84 -1.84,-1.82 -2.44,-2.94 -0.6,-1.12 -0.9,-2.3 -0.9,-3.56l0 -12.79c0,-0.42 0.19,-0.79 0.58,-1.1 0.38,-0.32 0.83,-0.47 1.35,-0.47 0.51,0 0.95,0.15 1.31,0.47 0.37,0.31 0.55,0.68 0.55,1.1l0 12.79c0,0.84 0.2,1.63 0.61,2.38 0.41,0.75 0.95,1.41 1.61,1.97 0.66,0.56 1.46,1 2.38,1.31 0.92,0.31 1.9,0.47 2.93,0.47 1.02,0 2,-0.16 2.92,-0.47 0.92,-0.31 1.73,-0.75 2.41,-1.31 0.69,-0.56 1.23,-1.22 1.61,-1.97 0.39,-0.75 0.58,-1.54 0.58,-2.38l0 -12.79c0,-0.42 0.19,-0.79 0.58,-1.1 0.38,-0.32 0.83,-0.47 1.35,-0.47 0.51,0 0.95,0.15 1.32,0.47 0.36,0.31 0.54,0.68 0.54,1.1l0 12.79c0,0.84 0.21,1.63 0.62,2.38 0.4,0.75 0.94,1.41 1.6,1.97 0.67,0.56 1.46,1 2.38,1.31 0.92,0.31 1.9,0.47 2.93,0.47 1.03,0 2,-0.16 2.92,-0.47 0.93,-0.31 1.73,-0.75 2.42,-1.31 0.68,-0.56 1.22,-1.22 1.6,-1.97 0.39,-0.75 0.58,-1.54 0.58,-2.38l0 -12.79c0,-0.42 0.2,-0.79 0.58,-1.1 0.39,-0.32 0.84,-0.47 1.35,-0.47z"/>
    <path id="1" class="fil4" d="M215.86 105.6c0.52,0 0.96,0.15 1.32,0.47 0.37,0.31 0.55,0.68 0.55,1.1l0 12.79c0,1.26 -0.3,2.44 -0.9,3.56 -0.6,1.12 -1.42,2.1 -2.45,2.94 -1.02,0.84 -2.23,1.5 -3.6,1.99 -1.37,0.49 -2.83,0.73 -4.37,0.73 -1.93,0 -3.72,-0.36 -5.37,-1.1 -1.65,-0.73 -2.99,-1.74 -4.02,-3.04 -1.07,1.3 -2.43,2.31 -4.08,3.04 -1.65,0.74 -3.44,1.1 -5.37,1.1 -1.55,0 -3,-0.24 -4.38,-0.73 -1.37,-0.49 -2.57,-1.15 -3.6,-1.99 -1.03,-0.84 -1.84,-1.82 -2.44,-2.94 -0.6,-1.12 -0.9,-2.3 -0.9,-3.56l0 -12.79c0,-0.42 0.19,-0.79 0.58,-1.1 0.38,-0.32 0.83,-0.47 1.35,-0.47 0.51,0 0.95,0.15 1.32,0.47 0.36,0.31 0.54,0.68 0.54,1.1l0 12.79c0,0.84 0.21,1.63 0.61,2.38 0.41,0.75 0.95,1.41 1.61,1.97 0.67,0.56 1.46,1 2.38,1.31 0.92,0.31 1.9,0.47 2.93,0.47 1.03,0 2,-0.16 2.92,-0.47 0.93,-0.31 1.73,-0.75 2.41,-1.31 0.69,-0.56 1.23,-1.22 1.61,-1.97 0.39,-0.75 0.58,-1.54 0.58,-2.38l0 -12.79c0,-0.42 0.19,-0.79 0.58,-1.1 0.39,-0.32 0.84,-0.47 1.35,-0.47 0.52,0 0.95,0.15 1.32,0.47 0.36,0.31 0.55,0.68 0.55,1.1l0 12.79c0,0.84 0.2,1.63 0.61,2.38 0.4,0.75 0.94,1.41 1.6,1.97 0.67,0.56 1.46,1 2.38,1.31 0.93,0.31 1.9,0.47 2.93,0.47 1.03,0 2,-0.16 2.93,-0.47 0.92,-0.31 1.72,-0.75 2.41,-1.31 0.68,-0.56 1.22,-1.22 1.61,-1.97 0.38,-0.75 0.57,-1.54 0.57,-2.38l0 -12.79c0,-0.42 0.2,-0.79 0.58,-1.1 0.39,-0.32 0.84,-0.47 1.35,-0.47z"/>
    <path id="2" class="fil4" d="M261.4 105.6c0.51,0 0.95,0.15 1.31,0.47 0.37,0.31 0.55,0.68 0.55,1.1l0 12.79c0,1.26 -0.3,2.44 -0.9,3.56 -0.6,1.12 -1.41,2.1 -2.44,2.94 -1.03,0.84 -2.23,1.5 -3.6,1.99 -1.38,0.49 -2.83,0.73 -4.38,0.73 -1.93,0 -3.72,-0.36 -5.37,-1.1 -1.65,-0.73 -2.99,-1.74 -4.02,-3.04 -1.07,1.3 -2.43,2.31 -4.08,3.04 -1.65,0.74 -3.44,1.1 -5.37,1.1 -1.54,0 -3,-0.24 -4.37,-0.73 -1.38,-0.49 -2.58,-1.15 -3.61,-1.99 -1.02,-0.84 -1.84,-1.82 -2.44,-2.94 -0.6,-1.12 -0.9,-2.3 -0.9,-3.56l0 -12.79c0,-0.42 0.19,-0.79 0.58,-1.1 0.38,-0.32 0.84,-0.47 1.35,-0.47 0.51,0 0.95,0.15 1.32,0.47 0.36,0.31 0.55,0.68 0.55,1.1l0 12.79c0,0.84 0.2,1.63 0.61,2.38 0.4,0.75 0.94,1.41 1.6,1.97 0.67,0.56 1.46,1 2.38,1.31 0.92,0.31 1.9,0.47 2.93,0.47 1.03,0 2,-0.16 2.93,-0.47 0.92,-0.31 1.72,-0.75 2.41,-1.31 0.68,-0.56 1.22,-1.22 1.6,-1.97 0.39,-0.75 0.58,-1.54 0.58,-2.38l0 -12.79c0,-0.42 0.2,-0.79 0.58,-1.1 0.39,-0.32 0.84,-0.47 1.35,-0.47 0.52,0 0.96,0.15 1.32,0.47 0.37,0.31 0.55,0.68 0.55,1.1l0 12.79c0,0.84 0.2,1.63 0.61,2.38 0.41,0.75 0.94,1.41 1.61,1.97 0.66,0.56 1.45,1 2.38,1.31 0.92,0.31 1.89,0.47 2.92,0.47 1.03,0 2.01,-0.16 2.93,-0.47 0.92,-0.31 1.72,-0.75 2.41,-1.31 0.69,-0.56 1.22,-1.22 1.61,-1.97 0.38,-0.75 0.58,-1.54 0.58,-2.38l0 -12.79c0,-0.42 0.19,-0.79 0.57,-1.1 0.39,-0.32 0.84,-0.47 1.36,-0.47z"/>
    <path id="3" class="fil4" d="M268.79 125.51c0.52,0 0.97,0.15 1.35,0.45 0.39,0.3 0.58,0.66 0.58,1.07l0 0.58c0,0.46 -0.19,0.83 -0.58,1.13 -0.38,0.3 -0.83,0.44 -1.35,0.44 -0.51,0 -0.95,-0.14 -1.32,-0.44 -0.36,-0.3 -0.54,-0.67 -0.54,-1.13l0 -0.58c0,-0.41 0.18,-0.77 0.54,-1.07 0.37,-0.3 0.81,-0.45 1.32,-0.45z"/>
    <path id="4" class="fil4" d="M301.98 105.6c0.51,0 0.95,0.14 1.31,0.44 0.37,0.3 0.55,0.66 0.55,1.08l0 10.27c0,1.64 -0.37,3.17 -1.12,4.59 -0.76,1.41 -1.8,2.66 -3.12,3.74 -1.33,1.09 -2.88,1.93 -4.63,2.55 -1.76,0.61 -3.63,0.91 -5.6,0.91 -2.01,0 -3.89,-0.3 -5.63,-0.91 -1.73,-0.62 -3.25,-1.46 -4.56,-2.55 -1.31,-1.08 -2.34,-2.33 -3.09,-3.74 -0.75,-1.42 -1.12,-2.95 -1.12,-4.59l0 -10.27c0,-0.42 0.18,-0.78 0.54,-1.08 0.37,-0.3 0.81,-0.44 1.32,-0.44 0.51,0 0.95,0.14 1.32,0.44 0.36,0.3 0.55,0.66 0.55,1.08l0 10.27c0,1.19 0.27,2.32 0.83,3.38 0.56,1.07 1.32,1.99 2.28,2.78 0.97,0.79 2.1,1.41 3.41,1.86 1.31,0.45 2.69,0.68 4.15,0.68 1.46,0 2.84,-0.23 4.15,-0.68 1.31,-0.45 2.44,-1.07 3.41,-1.86 0.96,-0.79 1.72,-1.71 2.28,-2.78 0.56,-1.06 0.84,-2.19 0.84,-3.38l0 -10.27c0,-0.42 0.19,-0.78 0.58,-1.08 0.38,-0.3 0.83,-0.44 1.35,-0.44z"/>
    <path id="5" class="fil4" d="M310.08 129.18c-0.56,0 -1.02,-0.15 -1.38,-0.47 -0.37,-0.31 -0.55,-0.68 -0.55,-1.1l0 -10.22c0,-1.61 0.37,-3.13 1.12,-4.56 0.75,-1.43 1.79,-2.69 3.12,-3.77 1.33,-1.09 2.87,-1.94 4.6,-2.55 1.74,-0.61 3.61,-0.91 5.63,-0.91 1.97,0 3.84,0.3 5.59,0.91 1.76,0.61 3.31,1.46 4.63,2.55 1.33,1.08 2.37,2.34 3.12,3.77 0.75,1.43 1.13,2.95 1.13,4.56l0 10.22c0,0.42 -0.18,0.79 -0.55,1.1 -0.36,0.32 -0.82,0.47 -1.38,0.47 -0.52,0 -0.95,-0.15 -1.32,-0.47 -0.36,-0.31 -0.55,-0.68 -0.55,-1.1l0 -10.22c0,-1.19 -0.27,-2.32 -0.83,-3.38 -0.56,-1.07 -1.32,-1.99 -2.28,-2.78 -0.97,-0.79 -2.11,-1.41 -3.41,-1.86 -1.31,-0.45 -2.69,-0.68 -4.15,-0.68 -1.5,0 -2.89,0.23 -4.18,0.68 -1.29,0.45 -2.41,1.07 -3.38,1.86 -0.96,0.79 -1.72,1.71 -2.28,2.78 -0.56,1.06 -0.84,2.19 -0.84,3.38l0 10.22c0,0.42 -0.18,0.79 -0.54,1.1 -0.37,0.32 -0.81,0.47 -1.32,0.47z"/>
    <path id="6" class="fil4" d="M361.85 127.77c-1.03,0.45 -2.11,0.8 -3.25,1.05 -1.14,0.24 -2.3,0.36 -3.5,0.36 -2.02,0 -3.89,-0.3 -5.63,-0.91 -1.74,-0.62 -3.27,-1.46 -4.6,-2.55 -1.33,-1.08 -2.37,-2.33 -3.12,-3.74 -0.75,-1.42 -1.12,-2.95 -1.12,-4.59 0,-1.61 0.37,-3.13 1.12,-4.56 0.75,-1.43 1.79,-2.69 3.12,-3.77 1.33,-1.09 2.86,-1.94 4.6,-2.55 1.74,-0.61 3.61,-0.91 5.63,-0.91 1.97,0 3.83,0.3 5.59,0.91 1.76,0.61 3.3,1.46 4.63,2.55 1.33,1.08 2.37,2.34 3.12,3.77 0.75,1.43 1.13,2.95 1.13,4.56l0 10.22c0,0.42 -0.19,0.79 -0.55,1.1 -0.37,0.32 -0.83,0.47 -1.38,0.47 -0.52,0 -0.96,-0.15 -1.32,-0.47 -0.37,-0.31 -0.55,-0.68 -0.55,-1.1l0 -2.3c-1.07,0.97 -2.38,1.79 -3.92,2.46zm-17.43 -10.38c0,1.19 0.28,2.32 0.84,3.38 0.55,1.07 1.32,1.99 2.28,2.78 0.96,0.79 2.1,1.41 3.41,1.86 1.31,0.45 2.69,0.68 4.15,0.68 1.45,0 2.84,-0.23 4.14,-0.68 1.31,-0.45 2.45,-1.07 3.41,-1.86 0.97,-0.79 1.73,-1.71 2.29,-2.78 0.55,-1.06 0.83,-2.19 0.83,-3.38 0,-1.19 -0.28,-2.32 -0.83,-3.38 -0.56,-1.07 -1.32,-1.99 -2.29,-2.78 -0.96,-0.79 -2.1,-1.41 -3.41,-1.86 -1.3,-0.45 -2.69,-0.68 -4.14,-0.68 -1.46,0 -2.84,0.23 -4.15,0.68 -1.31,0.45 -2.45,1.07 -3.41,1.86 -0.96,0.79 -1.73,1.71 -2.28,2.78 -0.56,1.06 -0.84,2.19 -0.84,3.38z"/>
    <path id="7" class="fil4" d="M382.75 109.47c-1.93,0.7 -3.46,1.76 -4.6,3.18 -1.14,1.41 -1.7,2.99 -1.7,4.74 0,1.75 0.56,3.33 1.7,4.74 1.14,1.42 2.67,2.48 4.6,3.18 1.41,0.52 2.89,0.78 4.44,0.78 2.65,0 4.99,-0.73 7.01,-2.2 0.43,-0.24 0.85,-0.37 1.28,-0.37 0.52,0 0.99,0.18 1.42,0.53 0.34,0.31 0.49,0.69 0.45,1.12 -0.05,0.44 -0.26,0.8 -0.65,1.08 -1.37,0.94 -2.87,1.68 -4.5,2.2 -1.67,0.49 -3.34,0.73 -5.01,0.73 -2.02,0 -4.01,-0.35 -5.98,-1.04 -2.66,-0.98 -4.74,-2.43 -6.24,-4.35 -1.5,-1.93 -2.25,-4.06 -2.25,-6.4 0,-2.38 0.75,-4.52 2.25,-6.42 1.5,-1.91 3.58,-3.35 6.24,-4.33 1.97,-0.69 3.96,-1.04 5.98,-1.04 1.67,0 3.34,0.24 5.01,0.73 1.63,0.52 3.13,1.26 4.5,2.2 0.35,0.25 0.56,0.61 0.65,1.1 0,0.46 -0.15,0.82 -0.45,1.1 -0.43,0.35 -0.9,0.53 -1.42,0.53 -0.51,0 -0.94,-0.14 -1.28,-0.42 -0.99,-0.7 -2.08,-1.23 -3.28,-1.6 -1.2,-0.37 -2.45,-0.55 -3.73,-0.55 -1.55,0 -3.03,0.26 -4.44,0.78z"/>
    <path id="8" class="fil4" d="M415.35 129.18c-2.01,0 -3.89,-0.3 -5.62,-0.91 -1.74,-0.62 -3.27,-1.45 -4.6,-2.52 -1.33,-1.07 -2.37,-2.31 -3.12,-3.72 -0.75,-1.42 -1.13,-2.95 -1.13,-4.59 0,-1.61 0.38,-3.13 1.13,-4.56 0.75,-1.43 1.79,-2.69 3.12,-3.77 1.33,-1.09 2.86,-1.93 4.6,-2.54 1.73,-0.62 3.61,-0.92 5.62,-0.92 1.98,0 3.84,0.3 5.6,0.92 1.76,0.61 3.3,1.45 4.63,2.54 1.33,1.08 2.37,2.34 3.12,3.77 0.75,1.43 1.12,2.95 1.12,4.56 0,1.64 -0.37,3.17 -1.12,4.59 -0.75,1.41 -1.79,2.65 -3.12,3.72 -1.33,1.07 -2.87,1.9 -4.63,2.52 -1.76,0.61 -3.62,0.91 -5.6,0.91zm0 -20.44c-1.45,0 -2.84,0.23 -4.14,0.68 -1.31,0.46 -2.45,1.08 -3.41,1.86 -0.97,0.79 -1.73,1.72 -2.29,2.78 -0.55,1.07 -0.83,2.19 -0.83,3.38 0,1.19 0.28,2.32 0.83,3.38 0.56,1.07 1.32,2 2.29,2.78 0.96,0.79 2.1,1.41 3.41,1.86 1.3,0.46 2.69,0.68 4.14,0.68 1.46,0 2.84,-0.22 4.15,-0.68 1.31,-0.45 2.45,-1.07 3.41,-1.86 0.97,-0.78 1.73,-1.71 2.28,-2.78 0.56,-1.06 0.84,-2.19 0.84,-3.38 0,-1.19 -0.28,-2.31 -0.84,-3.38 -0.55,-1.06 -1.31,-1.99 -2.28,-2.78 -0.96,-0.78 -2.1,-1.4 -3.41,-1.86 -1.31,-0.45 -2.69,-0.68 -4.15,-0.68z"/>
    <path id="9" class="fil4" d="M435.48 129.18c-0.51,0 -0.96,-0.14 -1.35,-0.44 -0.38,-0.3 -0.58,-0.66 -0.58,-1.08l0 -12.79c0,-1.25 0.3,-2.44 0.9,-3.56 0.6,-1.12 1.42,-2.1 2.45,-2.94 1.03,-0.83 2.23,-1.5 3.6,-1.99 1.37,-0.49 2.83,-0.73 4.37,-0.73 1.93,0 3.72,0.37 5.37,1.1 1.65,0.73 3.01,1.75 4.09,3.04 1.02,-1.29 2.37,-2.31 4.01,-3.04 1.66,-0.73 3.45,-1.1 5.38,-1.1 1.54,0 3,0.24 4.37,0.73 1.37,0.49 2.57,1.16 3.6,1.99 1.03,0.84 1.84,1.82 2.44,2.94 0.6,1.12 0.9,2.31 0.9,3.56l0 12.79c0,0.42 -0.18,0.78 -0.54,1.08 -0.37,0.3 -0.81,0.44 -1.32,0.44 -0.52,0 -0.97,-0.14 -1.35,-0.44 -0.39,-0.3 -0.58,-0.66 -0.58,-1.08l0 -12.79c0,-0.83 -0.19,-1.63 -0.58,-2.38 -0.38,-0.75 -0.92,-1.41 -1.61,-1.97 -0.68,-0.56 -1.49,-0.99 -2.41,-1.31 -0.92,-0.31 -1.9,-0.47 -2.92,-0.47 -1.03,0 -2.01,0.16 -2.93,0.47 -0.92,0.32 -1.72,0.75 -2.38,1.31 -0.66,0.56 -1.2,1.22 -1.61,1.97 -0.41,0.75 -0.61,1.55 -0.61,2.38l0 12.79c0,0.42 -0.18,0.78 -0.55,1.08 -0.36,0.3 -0.8,0.44 -1.31,0.44 -0.52,0 -0.97,-0.14 -1.35,-0.44 -0.39,-0.3 -0.58,-0.66 -0.58,-1.08l0 -12.79c0,-0.83 -0.2,-1.63 -0.58,-2.38 -0.39,-0.75 -0.92,-1.41 -1.61,-1.97 -0.69,-0.56 -1.49,-0.99 -2.41,-1.31 -0.92,-0.31 -1.9,-0.47 -2.93,-0.47 -1.03,0 -2,0.16 -2.92,0.47 -0.93,0.32 -1.72,0.75 -2.38,1.31 -0.67,0.56 -1.2,1.22 -1.61,1.97 -0.41,0.75 -0.61,1.55 -0.61,2.38l0 12.79c0,0.42 -0.18,0.78 -0.55,1.08 -0.36,0.3 -0.8,0.44 -1.32,0.44z"/>
    <path id="10" class="fil4" d="M507.83 117.39c0,1.64 -0.37,3.17 -1.12,4.59 -0.75,1.41 -1.79,2.66 -3.12,3.74 -1.33,1.09 -2.87,1.93 -4.63,2.55 -1.76,0.61 -3.62,0.91 -5.6,0.91 -2.4,0 -4.65,-0.45 -6.75,-1.36 -1.41,-0.66 -2.72,-1.5 -3.92,-2.51l0 12.47c0,0.42 -0.19,0.79 -0.55,1.1 -0.36,0.32 -0.8,0.47 -1.32,0.47 -0.51,0 -0.96,-0.15 -1.35,-0.47 -0.38,-0.31 -0.58,-0.68 -0.58,-1.1l0 -20.39c0,-1.61 0.38,-3.13 1.13,-4.56 0.75,-1.43 1.79,-2.69 3.12,-3.77 1.33,-1.09 2.86,-1.94 4.6,-2.55 1.73,-0.61 3.61,-0.91 5.62,-0.91 1.98,0 3.84,0.3 5.6,0.91 1.76,0.61 3.3,1.46 4.63,2.55 1.33,1.08 2.37,2.34 3.12,3.77 0.75,1.43 1.12,2.95 1.12,4.56zm-25.14 0c0,1.22 0.28,2.36 0.83,3.41 0.56,1.05 1.32,1.96 2.29,2.75 0.96,0.79 2.1,1.41 3.4,1.86 1.31,0.45 2.7,0.68 4.15,0.68 1.46,0 2.84,-0.23 4.15,-0.68 1.31,-0.45 2.44,-1.07 3.41,-1.86 0.96,-0.79 1.72,-1.7 2.28,-2.75 0.56,-1.05 0.84,-2.19 0.84,-3.41 0,-1.19 -0.28,-2.32 -0.84,-3.38 -0.56,-1.07 -1.32,-1.99 -2.28,-2.78 -0.97,-0.79 -2.1,-1.41 -3.41,-1.86 -1.31,-0.45 -2.69,-0.68 -4.15,-0.68 -1.45,0 -2.84,0.23 -4.15,0.68 -1.3,0.45 -2.44,1.07 -3.4,1.86 -0.97,0.79 -1.73,1.71 -2.29,2.78 -0.55,1.06 -0.83,2.19 -0.83,3.38z"/>
    <path id="11" class="fil4" d="M514.2 129.18c-0.52,0 -0.97,-0.14 -1.35,-0.44 -0.39,-0.3 -0.58,-0.66 -0.58,-1.08l0 -12.79c0,-1.25 0.3,-2.44 0.9,-3.56 0.6,-1.12 1.41,-2.1 2.44,-2.94 1.03,-0.83 2.23,-1.5 3.6,-1.99 1.38,-0.49 2.83,-0.73 4.38,-0.73l3.15 0c0.51,0 0.96,0.15 1.35,0.44 0.39,0.3 0.58,0.66 0.58,1.08 0,0.42 -0.19,0.78 -0.58,1.07 -0.39,0.3 -0.84,0.45 -1.35,0.45l-3.15 0c-1.03,0 -2.01,0.16 -2.93,0.5 -0.92,0.33 -1.71,0.77 -2.38,1.33 -0.66,0.56 -1.2,1.22 -1.61,1.97 -0.4,0.75 -0.61,1.55 -0.61,2.38l0 12.79c0,0.42 -0.18,0.78 -0.54,1.08 -0.37,0.3 -0.81,0.44 -1.32,0.44z"/>
    <path id="12" class="fil4" d="M552.78 127.77c-1.02,0.45 -2.11,0.8 -3.24,1.05 -1.14,0.24 -2.31,0.36 -3.51,0.36 -2.01,0 -3.89,-0.3 -5.63,-0.91 -1.73,-0.62 -3.26,-1.46 -4.59,-2.55 -1.33,-1.08 -2.37,-2.33 -3.12,-3.74 -0.75,-1.42 -1.13,-2.95 -1.13,-4.59 0,-1.61 0.38,-3.13 1.13,-4.56 0.75,-1.43 1.79,-2.69 3.12,-3.77 1.33,-1.09 2.86,-1.94 4.59,-2.55 1.74,-0.61 3.62,-0.91 5.63,-0.91 1.97,0 3.84,0.3 5.6,0.91 1.76,0.61 3.3,1.46 4.63,2.55 1.33,1.08 2.37,2.34 3.12,3.77 0.75,1.43 1.12,2.95 1.12,4.56l0 10.22c0,0.42 -0.18,0.79 -0.55,1.1 -0.36,0.32 -0.82,0.47 -1.38,0.47 -0.51,0 -0.95,-0.15 -1.32,-0.47 -0.36,-0.31 -0.54,-0.68 -0.54,-1.1l0 -2.3c-1.07,0.97 -2.38,1.79 -3.93,2.46zm-17.42 -10.38c0,1.19 0.28,2.32 0.83,3.38 0.56,1.07 1.32,1.99 2.29,2.78 0.96,0.79 2.1,1.41 3.4,1.86 1.31,0.45 2.69,0.68 4.15,0.68 1.46,0 2.84,-0.23 4.15,-0.68 1.31,-0.45 2.44,-1.07 3.41,-1.86 0.96,-0.79 1.72,-1.71 2.28,-2.78 0.56,-1.06 0.84,-2.19 0.84,-3.38 0,-1.19 -0.28,-2.32 -0.84,-3.38 -0.56,-1.07 -1.32,-1.99 -2.28,-2.78 -0.97,-0.79 -2.1,-1.41 -3.41,-1.86 -1.31,-0.45 -2.69,-0.68 -4.15,-0.68 -1.46,0 -2.84,0.23 -4.15,0.68 -1.3,0.45 -2.44,1.07 -3.4,1.86 -0.97,0.79 -1.73,1.71 -2.29,2.78 -0.55,1.06 -0.83,2.19 -0.83,3.38z"/>
    <path id="13" class="fil4" d="M572.08 108.74c-1.2,0 -2.23,0.34 -3.09,1.02 -0.86,0.68 -1.29,1.53 -1.29,2.55 0,1.01 0.43,1.86 1.29,2.54 0.86,0.68 1.89,1.02 3.09,1.02l8.17 0c1.11,0 2.16,0.17 3.15,0.52 0.98,0.35 1.85,0.83 2.6,1.45 0.75,0.61 1.34,1.31 1.77,2.12 0.43,0.8 0.64,1.66 0.64,2.57 0,0.91 -0.21,1.77 -0.64,2.59 -0.43,0.82 -1.02,1.53 -1.77,2.12 -0.75,0.6 -1.62,1.07 -2.6,1.42 -0.99,0.35 -2.04,0.52 -3.15,0.52l-14.41 0c-0.56,0 -1.02,-0.14 -1.38,-0.44 -0.37,-0.3 -0.55,-0.66 -0.55,-1.08 0,-0.42 0.18,-0.77 0.55,-1.07 0.36,-0.3 0.82,-0.45 1.38,-0.45l14.41 0c1.2,0 2.22,-0.35 3.08,-1.04 0.86,-0.7 1.29,-1.56 1.29,-2.57 0,-0.98 -0.43,-1.82 -1.29,-2.52 -0.86,-0.7 -1.88,-1.05 -3.08,-1.05l-8.17 0c-1.12,0 -2.18,-0.17 -3.19,-0.52 -1,-0.35 -1.87,-0.82 -2.6,-1.42 -0.73,-0.59 -1.31,-1.3 -1.74,-2.12 -0.43,-0.82 -0.64,-1.69 -0.64,-2.59 0,-0.91 0.21,-1.77 0.64,-2.57 0.43,-0.81 1.01,-1.51 1.74,-2.13 0.73,-0.61 1.6,-1.09 2.6,-1.44 1.01,-0.35 2.07,-0.52 3.19,-0.52l14.4 0c0.56,0 1.02,0.15 1.39,0.44 0.36,0.3 0.54,0.66 0.54,1.08 0,0.45 -0.18,0.83 -0.54,1.13 -0.37,0.29 -0.83,0.44 -1.39,0.44l-14.4 0z"/>
    <path id="14" class="fil4" d="M593.88 125.51c0.51,0 0.96,0.15 1.35,0.45 0.39,0.3 0.58,0.66 0.58,1.07l0 0.58c0,0.46 -0.19,0.83 -0.58,1.13 -0.39,0.3 -0.84,0.44 -1.35,0.44 -0.52,0 -0.96,-0.14 -1.32,-0.44 -0.36,-0.3 -0.55,-0.67 -0.55,-1.13l0 -0.58c0,-0.41 0.19,-0.77 0.55,-1.07 0.36,-0.3 0.8,-0.45 1.32,-0.45z"/>
    <path id="15" class="fil4" d="M609.57 109.47c-1.93,0.7 -3.46,1.76 -4.6,3.18 -1.13,1.41 -1.7,2.99 -1.7,4.74 0,1.75 0.57,3.33 1.7,4.74 1.14,1.42 2.67,2.48 4.6,3.18 1.41,0.52 2.89,0.78 4.44,0.78 2.66,0 4.99,-0.73 7.01,-2.2 0.43,-0.24 0.86,-0.37 1.28,-0.37 0.52,0 0.99,0.18 1.42,0.53 0.34,0.31 0.49,0.69 0.45,1.12 -0.04,0.44 -0.26,0.8 -0.64,1.08 -1.38,0.94 -2.88,1.68 -4.51,2.2 -1.67,0.49 -3.34,0.73 -5.01,0.73 -2.02,0 -4.01,-0.35 -5.98,-1.04 -2.66,-0.98 -4.74,-2.43 -6.24,-4.35 -1.5,-1.93 -2.25,-4.06 -2.25,-6.4 0,-2.38 0.75,-4.52 2.25,-6.42 1.5,-1.91 3.58,-3.35 6.24,-4.33 1.97,-0.69 3.96,-1.04 5.98,-1.04 1.67,0 3.34,0.24 5.01,0.73 1.63,0.52 3.13,1.26 4.51,2.2 0.34,0.25 0.55,0.61 0.64,1.1 0,0.46 -0.15,0.82 -0.45,1.1 -0.43,0.35 -0.9,0.53 -1.42,0.53 -0.51,0 -0.94,-0.14 -1.28,-0.42 -0.99,-0.7 -2.08,-1.23 -3.28,-1.6 -1.2,-0.37 -2.45,-0.55 -3.73,-0.55 -1.55,0 -3.03,0.26 -4.44,0.78z"/>
    <path id="16" class="fil4" d="M642.18 129.18c-2.02,0 -3.9,-0.3 -5.63,-0.91 -1.74,-0.62 -3.27,-1.45 -4.6,-2.52 -1.33,-1.07 -2.37,-2.31 -3.12,-3.72 -0.75,-1.42 -1.12,-2.95 -1.12,-4.59 0,-1.61 0.37,-3.13 1.12,-4.56 0.75,-1.43 1.79,-2.69 3.12,-3.77 1.33,-1.09 2.86,-1.93 4.6,-2.54 1.73,-0.62 3.61,-0.92 5.63,-0.92 1.97,0 3.83,0.3 5.59,0.92 1.76,0.61 3.3,1.45 4.63,2.54 1.33,1.08 2.37,2.34 3.12,3.77 0.75,1.43 1.13,2.95 1.13,4.56 0,1.64 -0.38,3.17 -1.13,4.59 -0.75,1.41 -1.79,2.65 -3.12,3.72 -1.33,1.07 -2.87,1.9 -4.63,2.52 -1.76,0.61 -3.62,0.91 -5.59,0.91zm0 -20.44c-1.46,0 -2.84,0.23 -4.15,0.68 -1.31,0.46 -2.45,1.08 -3.41,1.86 -0.97,0.79 -1.73,1.72 -2.28,2.78 -0.56,1.07 -0.84,2.19 -0.84,3.38 0,1.19 0.28,2.32 0.84,3.38 0.55,1.07 1.31,2 2.28,2.78 0.96,0.79 2.1,1.41 3.41,1.86 1.31,0.46 2.69,0.68 4.15,0.68 1.45,0 2.84,-0.22 4.14,-0.68 1.31,-0.45 2.45,-1.07 3.41,-1.86 0.97,-0.78 1.73,-1.71 2.29,-2.78 0.55,-1.06 0.83,-2.19 0.83,-3.38 0,-1.19 -0.28,-2.31 -0.83,-3.38 -0.56,-1.06 -1.32,-1.99 -2.29,-2.78 -0.96,-0.78 -2.1,-1.4 -3.41,-1.86 -1.3,-0.45 -2.69,-0.68 -4.14,-0.68z"/>
    <path id="17" class="fil4" d="M662.3 129.18c-0.51,0 -0.96,-0.14 -1.35,-0.44 -0.38,-0.3 -0.57,-0.66 -0.57,-1.08l0 -12.79c0,-1.25 0.3,-2.44 0.9,-3.56 0.6,-1.12 1.41,-2.1 2.44,-2.94 1.03,-0.83 2.23,-1.5 3.6,-1.99 1.37,-0.49 2.83,-0.73 4.37,-0.73 1.93,0 3.72,0.37 5.37,1.1 1.65,0.73 3.02,1.75 4.09,3.04 1.03,-1.29 2.37,-2.31 4.02,-3.04 1.65,-0.73 3.44,-1.1 5.37,-1.1 1.54,0 3,0.24 4.37,0.73 1.37,0.49 2.57,1.16 3.6,1.99 1.03,0.84 1.85,1.82 2.44,2.94 0.61,1.12 0.91,2.31 0.91,3.56l0 12.79c0,0.42 -0.19,0.78 -0.55,1.08 -0.37,0.3 -0.8,0.44 -1.32,0.44 -0.51,0 -0.96,-0.14 -1.35,-0.44 -0.39,-0.3 -0.58,-0.66 -0.58,-1.08l0 -12.79c0,-0.83 -0.19,-1.63 -0.58,-2.38 -0.38,-0.75 -0.92,-1.41 -1.61,-1.97 -0.68,-0.56 -1.49,-0.99 -2.41,-1.31 -0.92,-0.31 -1.89,-0.47 -2.92,-0.47 -1.03,0 -2.01,0.16 -2.93,0.47 -0.92,0.32 -1.71,0.75 -2.38,1.31 -0.66,0.56 -1.2,1.22 -1.61,1.97 -0.4,0.75 -0.61,1.55 -0.61,2.38l0 12.79c0,0.42 -0.18,0.78 -0.54,1.08 -0.37,0.3 -0.81,0.44 -1.32,0.44 -0.52,0 -0.97,-0.14 -1.35,-0.44 -0.39,-0.3 -0.58,-0.66 -0.58,-1.08l0 -12.79c0,-0.83 -0.19,-1.63 -0.58,-2.38 -0.39,-0.75 -0.92,-1.41 -1.61,-1.97 -0.68,-0.56 -1.49,-0.99 -2.41,-1.31 -0.92,-0.31 -1.9,-0.47 -2.93,-0.47 -1.03,0 -2,0.16 -2.92,0.47 -0.92,0.32 -1.72,0.75 -2.38,1.31 -0.67,0.56 -1.2,1.22 -1.61,1.97 -0.41,0.75 -0.61,1.55 -0.61,2.38l0 12.79c0,0.42 -0.18,0.78 -0.55,1.08 -0.36,0.3 -0.8,0.44 -1.32,0.44z"/>
    <path id="18" class="fil4" d="M707.26 125.51c0.51,0 0.96,0.15 1.35,0.45 0.38,0.3 0.58,0.66 0.58,1.07l0 0.58c0,0.46 -0.2,0.83 -0.58,1.13 -0.39,0.3 -0.84,0.44 -1.35,0.44 -0.52,0 -0.96,-0.14 -1.32,-0.44 -0.37,-0.3 -0.55,-0.67 -0.55,-1.13l0 -0.58c0,-0.41 0.18,-0.77 0.55,-1.07 0.36,-0.3 0.8,-0.45 1.32,-0.45z"/>
    <path id="19" class="fil4" d="M727.64 105.6c1.98,0 3.84,0.3 5.6,0.91 1.76,0.61 3.3,1.46 4.63,2.55 1.33,1.08 2.37,2.34 3.12,3.77 0.75,1.43 1.12,2.95 1.12,4.56 0,1.64 -0.37,3.17 -1.12,4.59 -0.75,1.41 -1.79,2.66 -3.12,3.74 -1.33,1.09 -2.87,1.93 -4.63,2.55 -1.76,0.61 -3.62,0.91 -5.6,0.91 -2.01,0 -3.89,-0.3 -5.62,-0.91 -1.74,-0.62 -3.27,-1.46 -4.6,-2.55 -1.33,-1.08 -2.37,-2.33 -3.12,-3.74 -0.75,-1.42 -1.13,-2.95 -1.13,-4.59l0 -23.01c0,-0.46 0.2,-0.83 0.58,-1.13 0.39,-0.3 0.84,-0.44 1.35,-0.44 0.52,0 0.96,0.14 1.32,0.44 0.37,0.3 0.55,0.67 0.55,1.13l0 15.09c1.2,-1.04 2.51,-1.86 3.92,-2.46 1.03,-0.45 2.12,-0.8 3.28,-1.05 1.16,-0.24 2.32,-0.36 3.47,-0.36zm0 20.49c1.46,0 2.84,-0.23 4.15,-0.68 1.31,-0.45 2.45,-1.07 3.41,-1.86 0.97,-0.79 1.73,-1.7 2.28,-2.75 0.56,-1.05 0.84,-2.19 0.84,-3.41 0,-1.19 -0.28,-2.32 -0.84,-3.38 -0.55,-1.07 -1.31,-1.99 -2.28,-2.78 -0.96,-0.79 -2.1,-1.41 -3.41,-1.86 -1.31,-0.45 -2.69,-0.68 -4.15,-0.68 -1.45,0 -2.84,0.23 -4.14,0.68 -1.31,0.45 -2.45,1.07 -3.41,1.86 -0.97,0.79 -1.73,1.71 -2.29,2.78 -0.55,1.06 -0.83,2.19 -0.83,3.38 0,1.22 0.28,2.36 0.83,3.41 0.56,1.05 1.32,1.96 2.29,2.75 0.96,0.79 2.1,1.41 3.41,1.86 1.3,0.45 2.69,0.68 4.14,0.68z"/>
    <path id="20" class="fil4" d="M748.03 129.18c-0.51,0 -0.96,-0.14 -1.35,-0.44 -0.39,-0.3 -0.58,-0.66 -0.58,-1.08l0 -12.79c0,-1.25 0.3,-2.44 0.9,-3.56 0.6,-1.12 1.42,-2.1 2.45,-2.94 1.02,-0.83 2.22,-1.5 3.6,-1.99 1.37,-0.49 2.83,-0.73 4.37,-0.73l3.15 0c0.51,0 0.97,0.15 1.35,0.44 0.39,0.3 0.58,0.66 0.58,1.08 0,0.42 -0.19,0.78 -0.58,1.07 -0.38,0.3 -0.84,0.45 -1.35,0.45l-3.15 0c-1.03,0 -2.01,0.16 -2.93,0.5 -0.92,0.33 -1.71,0.77 -2.38,1.33 -0.66,0.56 -1.2,1.22 -1.6,1.97 -0.41,0.75 -0.61,1.55 -0.61,2.38l0 12.79c0,0.42 -0.19,0.78 -0.55,1.08 -0.37,0.3 -0.81,0.44 -1.32,0.44z"/>
    <path id="21" class="fil3 str2" d="M170.33 105.6c0.52,0 0.96,0.15 1.32,0.47 0.36,0.31 0.55,0.68 0.55,1.1l0 12.79c0,1.26 -0.3,2.44 -0.9,3.56 -0.6,1.12 -1.42,2.1 -2.45,2.94 -1.03,0.84 -2.23,1.5 -3.6,1.99 -1.37,0.49 -2.83,0.73 -4.37,0.73 -1.93,0 -3.72,-0.36 -5.37,-1.1 -1.65,-0.73 -2.99,-1.74 -4.02,-3.04 -1.07,1.3 -2.43,2.31 -4.08,3.04 -1.66,0.74 -3.45,1.1 -5.37,1.1 -1.55,0 -3.01,-0.24 -4.38,-0.73 -1.37,-0.49 -2.57,-1.15 -3.6,-1.99 -1.03,-0.84 -1.84,-1.82 -2.44,-2.94 -0.6,-1.12 -0.9,-2.3 -0.9,-3.56l0 -12.79c0,-0.42 0.19,-0.79 0.58,-1.1 0.38,-0.32 0.83,-0.47 1.35,-0.47 0.51,0 0.95,0.15 1.31,0.47 0.37,0.31 0.55,0.68 0.55,1.1l0 12.79c0,0.84 0.2,1.63 0.61,2.38 0.41,0.75 0.95,1.41 1.61,1.97 0.66,0.56 1.46,1 2.38,1.31 0.92,0.31 1.9,0.47 2.93,0.47 1.02,0 2,-0.16 2.92,-0.47 0.92,-0.31 1.73,-0.75 2.41,-1.31 0.69,-0.56 1.23,-1.22 1.61,-1.97 0.39,-0.75 0.58,-1.54 0.58,-2.38l0 -12.79c0,-0.42 0.19,-0.79 0.58,-1.1 0.38,-0.32 0.83,-0.47 1.35,-0.47 0.51,0 0.95,0.15 1.32,0.47 0.36,0.31 0.54,0.68 0.54,1.1l0 12.79c0,0.84 0.21,1.63 0.62,2.38 0.4,0.75 0.94,1.41 1.6,1.97 0.67,0.56 1.46,1 2.38,1.31 0.92,0.31 1.9,0.47 2.93,0.47 1.03,0 2,-0.16 2.92,-0.47 0.93,-0.31 1.73,-0.75 2.42,-1.31 0.68,-0.56 1.22,-1.22 1.6,-1.97 0.39,-0.75 0.58,-1.54 0.58,-2.38l0 -12.79c0,-0.42 0.2,-0.79 0.58,-1.1 0.39,-0.32 0.84,-0.47 1.35,-0.47z"/>
    <path id="22" class="fil3 str2" d="M215.86 105.6c0.52,0 0.96,0.15 1.32,0.47 0.37,0.31 0.55,0.68 0.55,1.1l0 12.79c0,1.26 -0.3,2.44 -0.9,3.56 -0.6,1.12 -1.42,2.1 -2.45,2.94 -1.02,0.84 -2.23,1.5 -3.6,1.99 -1.37,0.49 -2.83,0.73 -4.37,0.73 -1.93,0 -3.72,-0.36 -5.37,-1.1 -1.65,-0.73 -2.99,-1.74 -4.02,-3.04 -1.07,1.3 -2.43,2.31 -4.08,3.04 -1.65,0.74 -3.44,1.1 -5.37,1.1 -1.55,0 -3,-0.24 -4.38,-0.73 -1.37,-0.49 -2.57,-1.15 -3.6,-1.99 -1.03,-0.84 -1.84,-1.82 -2.44,-2.94 -0.6,-1.12 -0.9,-2.3 -0.9,-3.56l0 -12.79c0,-0.42 0.19,-0.79 0.58,-1.1 0.38,-0.32 0.83,-0.47 1.35,-0.47 0.51,0 0.95,0.15 1.32,0.47 0.36,0.31 0.54,0.68 0.54,1.1l0 12.79c0,0.84 0.21,1.63 0.61,2.38 0.41,0.75 0.95,1.41 1.61,1.97 0.67,0.56 1.46,1 2.38,1.31 0.92,0.31 1.9,0.47 2.93,0.47 1.03,0 2,-0.16 2.92,-0.47 0.93,-0.31 1.73,-0.75 2.41,-1.31 0.69,-0.56 1.23,-1.22 1.61,-1.97 0.39,-0.75 0.58,-1.54 0.58,-2.38l0 -12.79c0,-0.42 0.19,-0.79 0.58,-1.1 0.39,-0.32 0.84,-0.47 1.35,-0.47 0.52,0 0.95,0.15 1.32,0.47 0.36,0.31 0.55,0.68 0.55,1.1l0 12.79c0,0.84 0.2,1.63 0.61,2.38 0.4,0.75 0.94,1.41 1.6,1.97 0.67,0.56 1.46,1 2.38,1.31 0.93,0.31 1.9,0.47 2.93,0.47 1.03,0 2,-0.16 2.93,-0.47 0.92,-0.31 1.72,-0.75 2.41,-1.31 0.68,-0.56 1.22,-1.22 1.61,-1.97 0.38,-0.75 0.57,-1.54 0.57,-2.38l0 -12.79c0,-0.42 0.2,-0.79 0.58,-1.1 0.39,-0.32 0.84,-0.47 1.35,-0.47z"/>
    <path id="23" class="fil3 str2" d="M261.4 105.6c0.51,0 0.95,0.15 1.31,0.47 0.37,0.31 0.55,0.68 0.55,1.1l0 12.79c0,1.26 -0.3,2.44 -0.9,3.56 -0.6,1.12 -1.41,2.1 -2.44,2.94 -1.03,0.84 -2.23,1.5 -3.6,1.99 -1.38,0.49 -2.83,0.73 -4.38,0.73 -1.93,0 -3.72,-0.36 -5.37,-1.1 -1.65,-0.73 -2.99,-1.74 -4.02,-3.04 -1.07,1.3 -2.43,2.31 -4.08,3.04 -1.65,0.74 -3.44,1.1 -5.37,1.1 -1.54,0 -3,-0.24 -4.37,-0.73 -1.38,-0.49 -2.58,-1.15 -3.61,-1.99 -1.02,-0.84 -1.84,-1.82 -2.44,-2.94 -0.6,-1.12 -0.9,-2.3 -0.9,-3.56l0 -12.79c0,-0.42 0.19,-0.79 0.58,-1.1 0.38,-0.32 0.84,-0.47 1.35,-0.47 0.51,0 0.95,0.15 1.32,0.47 0.36,0.31 0.55,0.68 0.55,1.1l0 12.79c0,0.84 0.2,1.63 0.61,2.38 0.4,0.75 0.94,1.41 1.6,1.97 0.67,0.56 1.46,1 2.38,1.31 0.92,0.31 1.9,0.47 2.93,0.47 1.03,0 2,-0.16 2.93,-0.47 0.92,-0.31 1.72,-0.75 2.41,-1.31 0.68,-0.56 1.22,-1.22 1.6,-1.97 0.39,-0.75 0.58,-1.54 0.58,-2.38l0 -12.79c0,-0.42 0.2,-0.79 0.58,-1.1 0.39,-0.32 0.84,-0.47 1.35,-0.47 0.52,0 0.96,0.15 1.32,0.47 0.37,0.31 0.55,0.68 0.55,1.1l0 12.79c0,0.84 0.2,1.63 0.61,2.38 0.41,0.75 0.94,1.41 1.61,1.97 0.66,0.56 1.45,1 2.38,1.31 0.92,0.31 1.89,0.47 2.92,0.47 1.03,0 2.01,-0.16 2.93,-0.47 0.92,-0.31 1.72,-0.75 2.41,-1.31 0.69,-0.56 1.22,-1.22 1.61,-1.97 0.38,-0.75 0.58,-1.54 0.58,-2.38l0 -12.79c0,-0.42 0.19,-0.79 0.57,-1.1 0.39,-0.32 0.84,-0.47 1.36,-0.47z"/>
    <path id="24" class="fil3 str2" d="M268.79 125.51c0.52,0 0.97,0.15 1.35,0.45 0.39,0.3 0.58,0.66 0.58,1.07l0 0.58c0,0.46 -0.19,0.83 -0.58,1.13 -0.38,0.3 -0.83,0.44 -1.35,0.44 -0.51,0 -0.95,-0.14 -1.32,-0.44 -0.36,-0.3 -0.54,-0.67 -0.54,-1.13l0 -0.58c0,-0.41 0.18,-0.77 0.54,-1.07 0.37,-0.3 0.81,-0.45 1.32,-0.45z"/>
    <path id="25" class="fil3 str2" d="M301.98 105.6c0.51,0 0.95,0.14 1.31,0.44 0.37,0.3 0.55,0.66 0.55,1.08l0 10.27c0,1.64 -0.37,3.17 -1.12,4.59 -0.76,1.41 -1.8,2.66 -3.12,3.74 -1.33,1.09 -2.88,1.93 -4.63,2.55 -1.76,0.61 -3.63,0.91 -5.6,0.91 -2.01,0 -3.89,-0.3 -5.63,-0.91 -1.73,-0.62 -3.25,-1.46 -4.56,-2.55 -1.31,-1.08 -2.34,-2.33 -3.09,-3.74 -0.75,-1.42 -1.12,-2.95 -1.12,-4.59l0 -10.27c0,-0.42 0.18,-0.78 0.54,-1.08 0.37,-0.3 0.81,-0.44 1.32,-0.44 0.51,0 0.95,0.14 1.32,0.44 0.36,0.3 0.55,0.66 0.55,1.08l0 10.27c0,1.19 0.27,2.32 0.83,3.38 0.56,1.07 1.32,1.99 2.28,2.78 0.97,0.79 2.1,1.41 3.41,1.86 1.31,0.45 2.69,0.68 4.15,0.68 1.46,0 2.84,-0.23 4.15,-0.68 1.31,-0.45 2.44,-1.07 3.41,-1.86 0.96,-0.79 1.72,-1.71 2.28,-2.78 0.56,-1.06 0.84,-2.19 0.84,-3.38l0 -10.27c0,-0.42 0.19,-0.78 0.58,-1.08 0.38,-0.3 0.83,-0.44 1.35,-0.44z"/>
    <path id="26" class="fil3 str2" d="M310.08 129.18c-0.56,0 -1.02,-0.15 -1.38,-0.47 -0.37,-0.31 -0.55,-0.68 -0.55,-1.1l0 -10.22c0,-1.61 0.37,-3.13 1.12,-4.56 0.75,-1.43 1.79,-2.69 3.12,-3.77 1.33,-1.09 2.87,-1.94 4.6,-2.55 1.74,-0.61 3.61,-0.91 5.63,-0.91 1.97,0 3.84,0.3 5.59,0.91 1.76,0.61 3.31,1.46 4.63,2.55 1.33,1.08 2.37,2.34 3.12,3.77 0.75,1.43 1.13,2.95 1.13,4.56l0 10.22c0,0.42 -0.18,0.79 -0.55,1.1 -0.36,0.32 -0.82,0.47 -1.38,0.47 -0.52,0 -0.95,-0.15 -1.32,-0.47 -0.36,-0.31 -0.55,-0.68 -0.55,-1.1l0 -10.22c0,-1.19 -0.27,-2.32 -0.83,-3.38 -0.56,-1.07 -1.32,-1.99 -2.28,-2.78 -0.97,-0.79 -2.11,-1.41 -3.41,-1.86 -1.31,-0.45 -2.69,-0.68 -4.15,-0.68 -1.5,0 -2.89,0.23 -4.18,0.68 -1.29,0.45 -2.41,1.07 -3.38,1.86 -0.96,0.79 -1.72,1.71 -2.28,2.78 -0.56,1.06 -0.84,2.19 -0.84,3.38l0 10.22c0,0.42 -0.18,0.79 -0.54,1.1 -0.37,0.32 -0.81,0.47 -1.32,0.47z"/>
    <path id="27" class="fil3 str2" d="M361.85 127.77c-1.03,0.45 -2.11,0.8 -3.25,1.05 -1.14,0.24 -2.3,0.36 -3.5,0.36 -2.02,0 -3.89,-0.3 -5.63,-0.91 -1.74,-0.62 -3.27,-1.46 -4.6,-2.55 -1.33,-1.08 -2.37,-2.33 -3.12,-3.74 -0.75,-1.42 -1.12,-2.95 -1.12,-4.59 0,-1.61 0.37,-3.13 1.12,-4.56 0.75,-1.43 1.79,-2.69 3.12,-3.77 1.33,-1.09 2.86,-1.94 4.6,-2.55 1.74,-0.61 3.61,-0.91 5.63,-0.91 1.97,0 3.83,0.3 5.59,0.91 1.76,0.61 3.3,1.46 4.63,2.55 1.33,1.08 2.37,2.34 3.12,3.77 0.75,1.43 1.13,2.95 1.13,4.56l0 10.22c0,0.42 -0.19,0.79 -0.55,1.1 -0.37,0.32 -0.83,0.47 -1.38,0.47 -0.52,0 -0.96,-0.15 -1.32,-0.47 -0.37,-0.31 -0.55,-0.68 -0.55,-1.1l0 -2.3c-1.07,0.97 -2.38,1.79 -3.92,2.46zm-17.43 -10.38c0,1.19 0.28,2.32 0.84,3.38 0.55,1.07 1.32,1.99 2.28,2.78 0.96,0.79 2.1,1.41 3.41,1.86 1.31,0.45 2.69,0.68 4.15,0.68 1.45,0 2.84,-0.23 4.14,-0.68 1.31,-0.45 2.45,-1.07 3.41,-1.86 0.97,-0.79 1.73,-1.71 2.29,-2.78 0.55,-1.06 0.83,-2.19 0.83,-3.38 0,-1.19 -0.28,-2.32 -0.83,-3.38 -0.56,-1.07 -1.32,-1.99 -2.29,-2.78 -0.96,-0.79 -2.1,-1.41 -3.41,-1.86 -1.3,-0.45 -2.69,-0.68 -4.14,-0.68 -1.46,0 -2.84,0.23 -4.15,0.68 -1.31,0.45 -2.45,1.07 -3.41,1.86 -0.96,0.79 -1.73,1.71 -2.28,2.78 -0.56,1.06 -0.84,2.19 -0.84,3.38z"/>
    <path id="28" class="fil3 str2" d="M382.75 109.47c-1.93,0.7 -3.46,1.76 -4.6,3.18 -1.14,1.41 -1.7,2.99 -1.7,4.74 0,1.75 0.56,3.33 1.7,4.74 1.14,1.42 2.67,2.48 4.6,3.18 1.41,0.52 2.89,0.78 4.44,0.78 2.65,0 4.99,-0.73 7.01,-2.2 0.43,-0.24 0.85,-0.37 1.28,-0.37 0.52,0 0.99,0.18 1.42,0.53 0.34,0.31 0.49,0.69 0.45,1.12 -0.05,0.44 -0.26,0.8 -0.65,1.08 -1.37,0.94 -2.87,1.68 -4.5,2.2 -1.67,0.49 -3.34,0.73 -5.01,0.73 -2.02,0 -4.01,-0.35 -5.98,-1.04 -2.66,-0.98 -4.74,-2.43 -6.24,-4.35 -1.5,-1.93 -2.25,-4.06 -2.25,-6.4 0,-2.38 0.75,-4.52 2.25,-6.42 1.5,-1.91 3.58,-3.35 6.24,-4.33 1.97,-0.69 3.96,-1.04 5.98,-1.04 1.67,0 3.34,0.24 5.01,0.73 1.63,0.52 3.13,1.26 4.5,2.2 0.35,0.25 0.56,0.61 0.65,1.1 0,0.46 -0.15,0.82 -0.45,1.1 -0.43,0.35 -0.9,0.53 -1.42,0.53 -0.51,0 -0.94,-0.14 -1.28,-0.42 -0.99,-0.7 -2.08,-1.23 -3.28,-1.6 -1.2,-0.37 -2.45,-0.55 -3.73,-0.55 -1.55,0 -3.03,0.26 -4.44,0.78z"/>
    <path id="29" class="fil3 str2" d="M415.35 129.18c-2.01,0 -3.89,-0.3 -5.62,-0.91 -1.74,-0.62 -3.27,-1.45 -4.6,-2.52 -1.33,-1.07 -2.37,-2.31 -3.12,-3.72 -0.75,-1.42 -1.13,-2.95 -1.13,-4.59 0,-1.61 0.38,-3.13 1.13,-4.56 0.75,-1.43 1.79,-2.69 3.12,-3.77 1.33,-1.09 2.86,-1.93 4.6,-2.54 1.73,-0.62 3.61,-0.92 5.62,-0.92 1.98,0 3.84,0.3 5.6,0.92 1.76,0.61 3.3,1.45 4.63,2.54 1.33,1.08 2.37,2.34 3.12,3.77 0.75,1.43 1.12,2.95 1.12,4.56 0,1.64 -0.37,3.17 -1.12,4.59 -0.75,1.41 -1.79,2.65 -3.12,3.72 -1.33,1.07 -2.87,1.9 -4.63,2.52 -1.76,0.61 -3.62,0.91 -5.6,0.91zm0 -20.44c-1.45,0 -2.84,0.23 -4.14,0.68 -1.31,0.46 -2.45,1.08 -3.41,1.86 -0.97,0.79 -1.73,1.72 -2.29,2.78 -0.55,1.07 -0.83,2.19 -0.83,3.38 0,1.19 0.28,2.32 0.83,3.38 0.56,1.07 1.32,2 2.29,2.78 0.96,0.79 2.1,1.41 3.41,1.86 1.3,0.46 2.69,0.68 4.14,0.68 1.46,0 2.84,-0.22 4.15,-0.68 1.31,-0.45 2.45,-1.07 3.41,-1.86 0.97,-0.78 1.73,-1.71 2.28,-2.78 0.56,-1.06 0.84,-2.19 0.84,-3.38 0,-1.19 -0.28,-2.31 -0.84,-3.38 -0.55,-1.06 -1.31,-1.99 -2.28,-2.78 -0.96,-0.78 -2.1,-1.4 -3.41,-1.86 -1.31,-0.45 -2.69,-0.68 -4.15,-0.68z"/>
    <path id="30" class="fil3 str2" d="M435.48 129.18c-0.51,0 -0.96,-0.14 -1.35,-0.44 -0.38,-0.3 -0.58,-0.66 -0.58,-1.08l0 -12.79c0,-1.25 0.3,-2.44 0.9,-3.56 0.6,-1.12 1.42,-2.1 2.45,-2.94 1.03,-0.83 2.23,-1.5 3.6,-1.99 1.37,-0.49 2.83,-0.73 4.37,-0.73 1.93,0 3.72,0.37 5.37,1.1 1.65,0.73 3.01,1.75 4.09,3.04 1.02,-1.29 2.37,-2.31 4.01,-3.04 1.66,-0.73 3.45,-1.1 5.38,-1.1 1.54,0 3,0.24 4.37,0.73 1.37,0.49 2.57,1.16 3.6,1.99 1.03,0.84 1.84,1.82 2.44,2.94 0.6,1.12 0.9,2.31 0.9,3.56l0 12.79c0,0.42 -0.18,0.78 -0.54,1.08 -0.37,0.3 -0.81,0.44 -1.32,0.44 -0.52,0 -0.97,-0.14 -1.35,-0.44 -0.39,-0.3 -0.58,-0.66 -0.58,-1.08l0 -12.79c0,-0.83 -0.19,-1.63 -0.58,-2.38 -0.38,-0.75 -0.92,-1.41 -1.61,-1.97 -0.68,-0.56 -1.49,-0.99 -2.41,-1.31 -0.92,-0.31 -1.9,-0.47 -2.92,-0.47 -1.03,0 -2.01,0.16 -2.93,0.47 -0.92,0.32 -1.72,0.75 -2.38,1.31 -0.66,0.56 -1.2,1.22 -1.61,1.97 -0.41,0.75 -0.61,1.55 -0.61,2.38l0 12.79c0,0.42 -0.18,0.78 -0.55,1.08 -0.36,0.3 -0.8,0.44 -1.31,0.44 -0.52,0 -0.97,-0.14 -1.35,-0.44 -0.39,-0.3 -0.58,-0.66 -0.58,-1.08l0 -12.79c0,-0.83 -0.2,-1.63 -0.58,-2.38 -0.39,-0.75 -0.92,-1.41 -1.61,-1.97 -0.69,-0.56 -1.49,-0.99 -2.41,-1.31 -0.92,-0.31 -1.9,-0.47 -2.93,-0.47 -1.03,0 -2,0.16 -2.92,0.47 -0.93,0.32 -1.72,0.75 -2.38,1.31 -0.67,0.56 -1.2,1.22 -1.61,1.97 -0.41,0.75 -0.61,1.55 -0.61,2.38l0 12.79c0,0.42 -0.18,0.78 -0.55,1.08 -0.36,0.3 -0.8,0.44 -1.32,0.44z"/>
    <path id="31" class="fil3 str2" d="M507.83 117.39c0,1.64 -0.37,3.17 -1.12,4.59 -0.75,1.41 -1.79,2.66 -3.12,3.74 -1.33,1.09 -2.87,1.93 -4.63,2.55 -1.76,0.61 -3.62,0.91 -5.6,0.91 -2.4,0 -4.65,-0.45 -6.75,-1.36 -1.41,-0.66 -2.72,-1.5 -3.92,-2.51l0 12.47c0,0.42 -0.19,0.79 -0.55,1.1 -0.36,0.32 -0.8,0.47 -1.32,0.47 -0.51,0 -0.96,-0.15 -1.35,-0.47 -0.38,-0.31 -0.58,-0.68 -0.58,-1.1l0 -20.39c0,-1.61 0.38,-3.13 1.13,-4.56 0.75,-1.43 1.79,-2.69 3.12,-3.77 1.33,-1.09 2.86,-1.94 4.6,-2.55 1.73,-0.61 3.61,-0.91 5.62,-0.91 1.98,0 3.84,0.3 5.6,0.91 1.76,0.61 3.3,1.46 4.63,2.55 1.33,1.08 2.37,2.34 3.12,3.77 0.75,1.43 1.12,2.95 1.12,4.56zm-25.14 0c0,1.22 0.28,2.36 0.83,3.41 0.56,1.05 1.32,1.96 2.29,2.75 0.96,0.79 2.1,1.41 3.4,1.86 1.31,0.45 2.7,0.68 4.15,0.68 1.46,0 2.84,-0.23 4.15,-0.68 1.31,-0.45 2.44,-1.07 3.41,-1.86 0.96,-0.79 1.72,-1.7 2.28,-2.75 0.56,-1.05 0.84,-2.19 0.84,-3.41 0,-1.19 -0.28,-2.32 -0.84,-3.38 -0.56,-1.07 -1.32,-1.99 -2.28,-2.78 -0.97,-0.79 -2.1,-1.41 -3.41,-1.86 -1.31,-0.45 -2.69,-0.68 -4.15,-0.68 -1.45,0 -2.84,0.23 -4.15,0.68 -1.3,0.45 -2.44,1.07 -3.4,1.86 -0.97,0.79 -1.73,1.71 -2.29,2.78 -0.55,1.06 -0.83,2.19 -0.83,3.38z"/>
    <path id="32" class="fil3 str2" d="M514.2 129.18c-0.52,0 -0.97,-0.14 -1.35,-0.44 -0.39,-0.3 -0.58,-0.66 -0.58,-1.08l0 -12.79c0,-1.25 0.3,-2.44 0.9,-3.56 0.6,-1.12 1.41,-2.1 2.44,-2.94 1.03,-0.83 2.23,-1.5 3.6,-1.99 1.38,-0.49 2.83,-0.73 4.38,-0.73l3.15 0c0.51,0 0.96,0.15 1.35,0.44 0.39,0.3 0.58,0.66 0.58,1.08 0,0.42 -0.19,0.78 -0.58,1.07 -0.39,0.3 -0.84,0.45 -1.35,0.45l-3.15 0c-1.03,0 -2.01,0.16 -2.93,0.5 -0.92,0.33 -1.71,0.77 -2.38,1.33 -0.66,0.56 -1.2,1.22 -1.61,1.97 -0.4,0.75 -0.61,1.55 -0.61,2.38l0 12.79c0,0.42 -0.18,0.78 -0.54,1.08 -0.37,0.3 -0.81,0.44 -1.32,0.44z"/>
    <path id="33" class="fil3 str2" d="M552.78 127.77c-1.02,0.45 -2.11,0.8 -3.24,1.05 -1.14,0.24 -2.31,0.36 -3.51,0.36 -2.01,0 -3.89,-0.3 -5.63,-0.91 -1.73,-0.62 -3.26,-1.46 -4.59,-2.55 -1.33,-1.08 -2.37,-2.33 -3.12,-3.74 -0.75,-1.42 -1.13,-2.95 -1.13,-4.59 0,-1.61 0.38,-3.13 1.13,-4.56 0.75,-1.43 1.79,-2.69 3.12,-3.77 1.33,-1.09 2.86,-1.94 4.59,-2.55 1.74,-0.61 3.62,-0.91 5.63,-0.91 1.97,0 3.84,0.3 5.6,0.91 1.76,0.61 3.3,1.46 4.63,2.55 1.33,1.08 2.37,2.34 3.12,3.77 0.75,1.43 1.12,2.95 1.12,4.56l0 10.22c0,0.42 -0.18,0.79 -0.55,1.1 -0.36,0.32 -0.82,0.47 -1.38,0.47 -0.51,0 -0.95,-0.15 -1.32,-0.47 -0.36,-0.31 -0.54,-0.68 -0.54,-1.1l0 -2.3c-1.07,0.97 -2.38,1.79 -3.93,2.46zm-17.42 -10.38c0,1.19 0.28,2.32 0.83,3.38 0.56,1.07 1.32,1.99 2.29,2.78 0.96,0.79 2.1,1.41 3.4,1.86 1.31,0.45 2.69,0.68 4.15,0.68 1.46,0 2.84,-0.23 4.15,-0.68 1.31,-0.45 2.44,-1.07 3.41,-1.86 0.96,-0.79 1.72,-1.71 2.28,-2.78 0.56,-1.06 0.84,-2.19 0.84,-3.38 0,-1.19 -0.28,-2.32 -0.84,-3.38 -0.56,-1.07 -1.32,-1.99 -2.28,-2.78 -0.97,-0.79 -2.1,-1.41 -3.41,-1.86 -1.31,-0.45 -2.69,-0.68 -4.15,-0.68 -1.46,0 -2.84,0.23 -4.15,0.68 -1.3,0.45 -2.44,1.07 -3.4,1.86 -0.97,0.79 -1.73,1.71 -2.29,2.78 -0.55,1.06 -0.83,2.19 -0.83,3.38z"/>
    <path id="34" class="fil3 str2" d="M572.08 108.74c-1.2,0 -2.23,0.34 -3.09,1.02 -0.86,0.68 -1.29,1.53 -1.29,2.55 0,1.01 0.43,1.86 1.29,2.54 0.86,0.68 1.89,1.02 3.09,1.02l8.17 0c1.11,0 2.16,0.17 3.15,0.52 0.98,0.35 1.85,0.83 2.6,1.45 0.75,0.61 1.34,1.31 1.77,2.12 0.43,0.8 0.64,1.66 0.64,2.57 0,0.91 -0.21,1.77 -0.64,2.59 -0.43,0.82 -1.02,1.53 -1.77,2.12 -0.75,0.6 -1.62,1.07 -2.6,1.42 -0.99,0.35 -2.04,0.52 -3.15,0.52l-14.41 0c-0.56,0 -1.02,-0.14 -1.38,-0.44 -0.37,-0.3 -0.55,-0.66 -0.55,-1.08 0,-0.42 0.18,-0.77 0.55,-1.07 0.36,-0.3 0.82,-0.45 1.38,-0.45l14.41 0c1.2,0 2.22,-0.35 3.08,-1.04 0.86,-0.7 1.29,-1.56 1.29,-2.57 0,-0.98 -0.43,-1.82 -1.29,-2.52 -0.86,-0.7 -1.88,-1.05 -3.08,-1.05l-8.17 0c-1.12,0 -2.18,-0.17 -3.19,-0.52 -1,-0.35 -1.87,-0.82 -2.6,-1.42 -0.73,-0.59 -1.31,-1.3 -1.74,-2.12 -0.43,-0.82 -0.64,-1.69 -0.64,-2.59 0,-0.91 0.21,-1.77 0.64,-2.57 0.43,-0.81 1.01,-1.51 1.74,-2.13 0.73,-0.61 1.6,-1.09 2.6,-1.44 1.01,-0.35 2.07,-0.52 3.19,-0.52l14.4 0c0.56,0 1.02,0.15 1.39,0.44 0.36,0.3 0.54,0.66 0.54,1.08 0,0.45 -0.18,0.83 -0.54,1.13 -0.37,0.29 -0.83,0.44 -1.39,0.44l-14.4 0z"/>
    <path id="35" class="fil3 str2" d="M593.88 125.51c0.51,0 0.96,0.15 1.35,0.45 0.39,0.3 0.58,0.66 0.58,1.07l0 0.58c0,0.46 -0.19,0.83 -0.58,1.13 -0.39,0.3 -0.84,0.44 -1.35,0.44 -0.52,0 -0.96,-0.14 -1.32,-0.44 -0.36,-0.3 -0.55,-0.67 -0.55,-1.13l0 -0.58c0,-0.41 0.19,-0.77 0.55,-1.07 0.36,-0.3 0.8,-0.45 1.32,-0.45z"/>
    <path id="36" class="fil3 str2" d="M609.57 109.47c-1.93,0.7 -3.46,1.76 -4.6,3.18 -1.13,1.41 -1.7,2.99 -1.7,4.74 0,1.75 0.57,3.33 1.7,4.74 1.14,1.42 2.67,2.48 4.6,3.18 1.41,0.52 2.89,0.78 4.44,0.78 2.66,0 4.99,-0.73 7.01,-2.2 0.43,-0.24 0.86,-0.37 1.28,-0.37 0.52,0 0.99,0.18 1.42,0.53 0.34,0.31 0.49,0.69 0.45,1.12 -0.04,0.44 -0.26,0.8 -0.64,1.08 -1.38,0.94 -2.88,1.68 -4.51,2.2 -1.67,0.49 -3.34,0.73 -5.01,0.73 -2.02,0 -4.01,-0.35 -5.98,-1.04 -2.66,-0.98 -4.74,-2.43 -6.24,-4.35 -1.5,-1.93 -2.25,-4.06 -2.25,-6.4 0,-2.38 0.75,-4.52 2.25,-6.42 1.5,-1.91 3.58,-3.35 6.24,-4.33 1.97,-0.69 3.96,-1.04 5.98,-1.04 1.67,0 3.34,0.24 5.01,0.73 1.63,0.52 3.13,1.26 4.51,2.2 0.34,0.25 0.55,0.61 0.64,1.1 0,0.46 -0.15,0.82 -0.45,1.1 -0.43,0.35 -0.9,0.53 -1.42,0.53 -0.51,0 -0.94,-0.14 -1.28,-0.42 -0.99,-0.7 -2.08,-1.23 -3.28,-1.6 -1.2,-0.37 -2.45,-0.55 -3.73,-0.55 -1.55,0 -3.03,0.26 -4.44,0.78z"/>
    <path id="37" class="fil3 str2" d="M642.18 129.18c-2.02,0 -3.9,-0.3 -5.63,-0.91 -1.74,-0.62 -3.27,-1.45 -4.6,-2.52 -1.33,-1.07 -2.37,-2.31 -3.12,-3.72 -0.75,-1.42 -1.12,-2.95 -1.12,-4.59 0,-1.61 0.37,-3.13 1.12,-4.56 0.75,-1.43 1.79,-2.69 3.12,-3.77 1.33,-1.09 2.86,-1.93 4.6,-2.54 1.73,-0.62 3.61,-0.92 5.63,-0.92 1.97,0 3.83,0.3 5.59,0.92 1.76,0.61 3.3,1.45 4.63,2.54 1.33,1.08 2.37,2.34 3.12,3.77 0.75,1.43 1.13,2.95 1.13,4.56 0,1.64 -0.38,3.17 -1.13,4.59 -0.75,1.41 -1.79,2.65 -3.12,3.72 -1.33,1.07 -2.87,1.9 -4.63,2.52 -1.76,0.61 -3.62,0.91 -5.59,0.91zm0 -20.44c-1.46,0 -2.84,0.23 -4.15,0.68 -1.31,0.46 -2.45,1.08 -3.41,1.86 -0.97,0.79 -1.73,1.72 -2.28,2.78 -0.56,1.07 -0.84,2.19 -0.84,3.38 0,1.19 0.28,2.32 0.84,3.38 0.55,1.07 1.31,2 2.28,2.78 0.96,0.79 2.1,1.41 3.41,1.86 1.31,0.46 2.69,0.68 4.15,0.68 1.45,0 2.84,-0.22 4.14,-0.68 1.31,-0.45 2.45,-1.07 3.41,-1.86 0.97,-0.78 1.73,-1.71 2.29,-2.78 0.55,-1.06 0.83,-2.19 0.83,-3.38 0,-1.19 -0.28,-2.31 -0.83,-3.38 -0.56,-1.06 -1.32,-1.99 -2.29,-2.78 -0.96,-0.78 -2.1,-1.4 -3.41,-1.86 -1.3,-0.45 -2.69,-0.68 -4.14,-0.68z"/>
    <path id="38" class="fil3 str2" d="M662.3 129.18c-0.51,0 -0.96,-0.14 -1.35,-0.44 -0.38,-0.3 -0.57,-0.66 -0.57,-1.08l0 -12.79c0,-1.25 0.3,-2.44 0.9,-3.56 0.6,-1.12 1.41,-2.1 2.44,-2.94 1.03,-0.83 2.23,-1.5 3.6,-1.99 1.37,-0.49 2.83,-0.73 4.37,-0.73 1.93,0 3.72,0.37 5.37,1.1 1.65,0.73 3.02,1.75 4.09,3.04 1.03,-1.29 2.37,-2.31 4.02,-3.04 1.65,-0.73 3.44,-1.1 5.37,-1.1 1.54,0 3,0.24 4.37,0.73 1.37,0.49 2.57,1.16 3.6,1.99 1.03,0.84 1.85,1.82 2.44,2.94 0.61,1.12 0.91,2.31 0.91,3.56l0 12.79c0,0.42 -0.19,0.78 -0.55,1.08 -0.37,0.3 -0.8,0.44 -1.32,0.44 -0.51,0 -0.96,-0.14 -1.35,-0.44 -0.39,-0.3 -0.58,-0.66 -0.58,-1.08l0 -12.79c0,-0.83 -0.19,-1.63 -0.58,-2.38 -0.38,-0.75 -0.92,-1.41 -1.61,-1.97 -0.68,-0.56 -1.49,-0.99 -2.41,-1.31 -0.92,-0.31 -1.89,-0.47 -2.92,-0.47 -1.03,0 -2.01,0.16 -2.93,0.47 -0.92,0.32 -1.71,0.75 -2.38,1.31 -0.66,0.56 -1.2,1.22 -1.61,1.97 -0.4,0.75 -0.61,1.55 -0.61,2.38l0 12.79c0,0.42 -0.18,0.78 -0.54,1.08 -0.37,0.3 -0.81,0.44 -1.32,0.44 -0.52,0 -0.97,-0.14 -1.35,-0.44 -0.39,-0.3 -0.58,-0.66 -0.58,-1.08l0 -12.79c0,-0.83 -0.19,-1.63 -0.58,-2.38 -0.39,-0.75 -0.92,-1.41 -1.61,-1.97 -0.68,-0.56 -1.49,-0.99 -2.41,-1.31 -0.92,-0.31 -1.9,-0.47 -2.93,-0.47 -1.03,0 -2,0.16 -2.92,0.47 -0.92,0.32 -1.72,0.75 -2.38,1.31 -0.67,0.56 -1.2,1.22 -1.61,1.97 -0.41,0.75 -0.61,1.55 -0.61,2.38l0 12.79c0,0.42 -0.18,0.78 -0.55,1.08 -0.36,0.3 -0.8,0.44 -1.32,0.44z"/>
    <path id="39" class="fil3 str2" d="M707.26 125.51c0.51,0 0.96,0.15 1.35,0.45 0.38,0.3 0.58,0.66 0.58,1.07l0 0.58c0,0.46 -0.2,0.83 -0.58,1.13 -0.39,0.3 -0.84,0.44 -1.35,0.44 -0.52,0 -0.96,-0.14 -1.32,-0.44 -0.37,-0.3 -0.55,-0.67 -0.55,-1.13l0 -0.58c0,-0.41 0.18,-0.77 0.55,-1.07 0.36,-0.3 0.8,-0.45 1.32,-0.45z"/>
    <path id="40" class="fil3 str2" d="M727.64 105.6c1.98,0 3.84,0.3 5.6,0.91 1.76,0.61 3.3,1.46 4.63,2.55 1.33,1.08 2.37,2.34 3.12,3.77 0.75,1.43 1.12,2.95 1.12,4.56 0,1.64 -0.37,3.17 -1.12,4.59 -0.75,1.41 -1.79,2.66 -3.12,3.74 -1.33,1.09 -2.87,1.93 -4.63,2.55 -1.76,0.61 -3.62,0.91 -5.6,0.91 -2.01,0 -3.89,-0.3 -5.62,-0.91 -1.74,-0.62 -3.27,-1.46 -4.6,-2.55 -1.33,-1.08 -2.37,-2.33 -3.12,-3.74 -0.75,-1.42 -1.13,-2.95 -1.13,-4.59l0 -23.01c0,-0.46 0.2,-0.83 0.58,-1.13 0.39,-0.3 0.84,-0.44 1.35,-0.44 0.52,0 0.96,0.14 1.32,0.44 0.37,0.3 0.55,0.67 0.55,1.13l0 15.09c1.2,-1.04 2.51,-1.86 3.92,-2.46 1.03,-0.45 2.12,-0.8 3.28,-1.05 1.16,-0.24 2.32,-0.36 3.47,-0.36zm0 20.49c1.46,0 2.84,-0.23 4.15,-0.68 1.31,-0.45 2.45,-1.07 3.41,-1.86 0.97,-0.79 1.73,-1.7 2.28,-2.75 0.56,-1.05 0.84,-2.19 0.84,-3.41 0,-1.19 -0.28,-2.32 -0.84,-3.38 -0.55,-1.07 -1.31,-1.99 -2.28,-2.78 -0.96,-0.79 -2.1,-1.41 -3.41,-1.86 -1.31,-0.45 -2.69,-0.68 -4.15,-0.68 -1.45,0 -2.84,0.23 -4.14,0.68 -1.31,0.45 -2.45,1.07 -3.41,1.86 -0.97,0.79 -1.73,1.71 -2.29,2.78 -0.55,1.06 -0.83,2.19 -0.83,3.38 0,1.22 0.28,2.36 0.83,3.41 0.56,1.05 1.32,1.96 2.29,2.75 0.96,0.79 2.1,1.41 3.41,1.86 1.3,0.45 2.69,0.68 4.14,0.68z"/>
    <path id="41" class="fil3 str2" d="M748.03 129.18c-0.51,0 -0.96,-0.14 -1.35,-0.44 -0.39,-0.3 -0.58,-0.66 -0.58,-1.08l0 -12.79c0,-1.25 0.3,-2.44 0.9,-3.56 0.6,-1.12 1.42,-2.1 2.45,-2.94 1.02,-0.83 2.22,-1.5 3.6,-1.99 1.37,-0.49 2.83,-0.73 4.37,-0.73l3.15 0c0.51,0 0.97,0.15 1.35,0.44 0.39,0.3 0.58,0.66 0.58,1.08 0,0.42 -0.19,0.78 -0.58,1.07 -0.38,0.3 -0.84,0.45 -1.35,0.45l-3.15 0c-1.03,0 -2.01,0.16 -2.93,0.5 -0.92,0.33 -1.71,0.77 -2.38,1.33 -0.66,0.56 -1.2,1.22 -1.6,1.97 -0.41,0.75 -0.61,1.55 -0.61,2.38l0 12.79c0,0.42 -0.19,0.78 -0.55,1.08 -0.37,0.3 -0.81,0.44 -1.32,0.44z"/>
   </g>
  </g>
 </g>
</svg>
